M48
;Layer_Color=9474304
;FILE_FORMAT=2:4
INCH,TZ
;TYPE=PLATED
T1F00S00C0.0118
T2F00S00C0.0197
T4F00S00C0.0315
T5F00S00C0.0402
%
T01
X27520Y31181
T02
X37126Y14764
X34488Y13622
X35630Y11968
X35758Y20276
X36467Y19636
X34173Y19213
X30531Y21073
X27283Y20039
X25906Y20630
X24961Y18691
X23593Y20010
X21791Y20965
X22559Y16260
X21417Y15669
X24380Y15915
X21014Y19203
X20384Y21112
X18986Y20965
X19035Y20492
X17972Y18376
X18770Y22028
X19724Y25118
X20728Y26929
X20344Y29970
X21181Y31309
X16299Y28346
X25591Y27559
X26102Y27638
X24764Y26024
X23898Y23770
X23652Y22313
X23504Y21407
X22143Y22805
X22175Y23346
X27283Y23612
Y22417
X28250Y22382
Y22862
Y21841
Y21270
X27736Y25640
X28425Y26447
X29656Y26486
X29675Y27992
X30433Y25039
X32722Y24955
X33248Y24616
X33622Y22835
X34085Y22352
X33701Y21654
X34380Y21545
X31693Y23622
X32087Y25984
X36339Y25945
X36152Y28819
X34626Y29980
X34921Y32953
X31142Y30738
X27736Y30728
X27224Y30276
X27382Y29783
X26555Y30719
X25896Y34360
X25118Y34291
X24321Y32992
X21890Y32982
X27835Y34183
X36929Y30236
X37953
T04
X19606Y32165
X20394
X21181
X21969
X22756
X23543
X24331
X25118
X25906
X26693
T05
X18713Y28346
X19713
X22071
X23071
X24071
X31921Y32087
X32921
X33921
X34921
X35921
X36921
X37921
X38921
M30
