%FSTAX23Y23*%
%MOIN*%
%SFA1B1*%

%IPPOS*%
%ADD13C,0.005000*%
%LN5th_year_project-1*%
%LPD*%
G54D13*
X03172Y03208D02*
X03212D01*
X03192Y03188D02*
Y03228D01*
X03272Y03208D02*
X03312D01*
X03292Y03188D02*
Y03228D01*
X03372Y03208D02*
X03412D01*
X03392Y03188D02*
Y03228D01*
X03472Y03208D02*
X03512D01*
X03492Y03188D02*
Y03228D01*
X03572Y03208D02*
X03612D01*
X03592Y03188D02*
Y03228D01*
X03672Y03208D02*
X03712D01*
X03692Y03188D02*
Y03228D01*
X03772Y03208D02*
X03812D01*
X03792Y03188D02*
Y03228D01*
X03872Y03208D02*
X03912D01*
X03892Y03188D02*
Y03228D01*
X04034Y01575D02*
X0406D01*
X04047Y01562D02*
Y01588D01*
X04034Y01235D02*
X0406D01*
X04047Y01222D02*
Y01248D01*
X03823Y01575D02*
X03849D01*
X03836Y01562D02*
Y01588D01*
X03823Y01235D02*
X03849D01*
X03836Y01222D02*
Y01248D01*
X02181Y03216D02*
X02212D01*
X02196Y032D02*
Y03232D01*
X02259Y03216D02*
X02291D01*
X02275Y032D02*
Y03232D01*
X02338Y03216D02*
X0237D01*
X02354Y032D02*
Y03232D01*
X02417Y03216D02*
X02448D01*
X02433Y032D02*
Y03232D01*
X02496Y03216D02*
X02527D01*
X02511Y032D02*
Y03232D01*
X02574Y03216D02*
X02606D01*
X0259Y032D02*
Y03232D01*
X02653Y03216D02*
X02685D01*
X02669Y032D02*
Y03232D01*
X02102Y03216D02*
X02133D01*
X02118Y032D02*
Y03232D01*
X02023Y03216D02*
X02055D01*
X02039Y032D02*
Y03232D01*
X01944Y03216D02*
X01976D01*
X0196Y032D02*
Y03232D01*
X02387Y02834D02*
X02427D01*
X02407Y02814D02*
Y02854D01*
X02287Y02834D02*
X02327D01*
X02307Y02814D02*
Y02854D01*
X02187Y02834D02*
X02227D01*
X02207Y02814D02*
Y02854D01*
X01851Y02834D02*
X01891D01*
X01871Y02814D02*
Y02854D01*
X01951Y02834D02*
X01991D01*
X01971Y02814D02*
Y02854D01*
X01867Y02202D02*
X01886D01*
X01876Y02192D02*
Y02212D01*
X01888Y02096D02*
X01908D01*
X01898Y02086D02*
Y02106D01*
X01893Y02049D02*
X01913D01*
X01903Y02039D02*
Y02059D01*
X02169Y02096D02*
X02188D01*
X02179Y02086D02*
Y02106D01*
X0234Y0214D02*
X0236D01*
X0235Y0213D02*
Y0215D01*
X01787Y01837D02*
X01807D01*
X01797Y01827D02*
Y01847D01*
X02718Y02241D02*
X02738D01*
X02728Y02231D02*
Y02251D01*
X02815Y02286D02*
X02834D01*
X02824Y02276D02*
Y02296D01*
X02815Y02238D02*
X02834D01*
X02824Y02228D02*
Y02248D01*
X02718Y02361D02*
X02738D01*
X02728Y02351D02*
Y02371D01*
X02815Y02126D02*
X02834D01*
X02824Y02117D02*
Y02136D01*
X02815Y02184D02*
X02834D01*
X02824Y02174D02*
Y02193D01*
X03398Y02235D02*
X03418D01*
X03408Y02225D02*
Y02245D01*
X03553Y01196D02*
X03572D01*
X03562Y01187D02*
Y01206D01*
X02204Y0228D02*
X02224D01*
X02214Y0227D02*
Y0229D01*
X02486Y01869D02*
X02505D01*
X02496Y01859D02*
Y01878D01*
X03565Y02027D02*
X03585D01*
X03575Y02017D02*
Y02037D01*
X0336Y02165D02*
X03379D01*
X0337Y02155D02*
Y02175D01*
X03636Y01963D02*
X03656D01*
X03646Y01953D02*
Y01973D01*
X03262Y02495D02*
X03282D01*
X03272Y02485D02*
Y02505D01*
X03605Y02881D02*
X03625D01*
X03615Y02872D02*
Y02891D01*
X03428Y02154D02*
X03447D01*
X03437Y02144D02*
Y02164D01*
X02207Y02334D02*
X02227D01*
X02217Y02324D02*
Y02344D01*
X02379Y02376D02*
X02399D01*
X02389Y02367D02*
Y02386D01*
X02028Y02111D02*
X02048D01*
X02038Y02101D02*
Y02121D01*
X02091Y0192D02*
X02111D01*
X02101Y0191D02*
Y0193D01*
X02349Y02D02*
X02369D01*
X02359Y01991D02*
Y0201D01*
X02832Y02644D02*
X02852D01*
X02842Y02634D02*
Y02654D01*
X02957Y02799D02*
X02977D01*
X02967Y02789D02*
Y02809D01*
X02728Y02978D02*
X02748D01*
X02738Y02968D02*
Y02988D01*
X02763Y03072D02*
X02783D01*
X02773Y03062D02*
Y03082D01*
X02712Y03027D02*
X02732D01*
X02722Y03017D02*
Y03037D01*
X02645Y03071D02*
X02665D01*
X02655Y03062D02*
Y03081D01*
X02773Y03418D02*
X02793D01*
X02783Y03408D02*
Y03428D01*
X02579Y03436D02*
X02599D01*
X02589Y03426D02*
Y03445D01*
X02501Y03429D02*
X02521D01*
X02511Y03419D02*
Y03438D01*
X02422Y03299D02*
X02441D01*
X02432Y03289D02*
Y03309D01*
X02179Y03298D02*
X02198D01*
X02188Y03288D02*
Y03308D01*
X02108Y0313D02*
X02127D01*
X02118Y03121D02*
Y0314D01*
X02355Y02231D02*
X02375D01*
X02365Y02221D02*
Y02241D01*
X02955Y02648D02*
X02975D01*
X02965Y02638D02*
Y02658D01*
X03043Y02107D02*
X03062D01*
X03053Y02097D02*
Y02117D01*
X02428Y01591D02*
X02447D01*
X02437Y01581D02*
Y01601D01*
X02246Y01625D02*
X02265D01*
X02255Y01616D02*
Y01635D01*
X02024Y02997D02*
X02044D01*
X02034Y02987D02*
Y03006D01*
X02062Y02692D02*
X02082D01*
X02072Y02683D02*
Y02702D01*
X03314Y02461D02*
X03334D01*
X03324Y02451D02*
Y02471D01*
X03624Y02594D02*
X03643D01*
X03633Y02584D02*
Y02604D01*
X03452Y02998D02*
X03472D01*
X03462Y02988D02*
Y03007D01*
X03104Y03073D02*
X03124D01*
X03114Y03063D02*
Y03083D01*
X02763Y02563D02*
X02783D01*
X02773Y02554D02*
Y02573D01*
X03683Y03023D02*
X03702D01*
X03692Y03013D02*
Y03033D01*
X03198Y02598D02*
X03218D01*
X03208Y02588D02*
Y02608D01*
X03482Y03295D02*
X03501D01*
X03492Y03285D02*
Y03305D01*
X02746Y03118D02*
X02757D01*
X02751Y03112D02*
Y03124D01*
X026Y02763D02*
X0262D01*
X0261Y02753D02*
Y02773D01*
X03785Y03023D02*
X03805D01*
X03795Y03013D02*
Y03033D01*
X03033Y02503D02*
X03053D01*
X03043Y02494D02*
Y02513D01*
X02718Y02003D02*
X02738D01*
X02728Y01994D02*
Y02013D01*
X03438Y01362D02*
X03458D01*
X03448Y01352D02*
Y01372D01*
X03352Y02283D02*
X03372D01*
X03362Y02273D02*
Y02293D01*
X03159Y02362D02*
X03179D01*
X03169Y02352D02*
Y02372D01*
X01962Y02511D02*
X01982D01*
X01972Y02501D02*
Y02521D01*
X03407Y01921D02*
X03427D01*
X03417Y01911D02*
Y01931D01*
X03702Y01476D02*
X03722D01*
X03712Y01466D02*
Y01486D01*
X0258Y02062D02*
X026D01*
X0259Y02053D02*
Y02072D01*
X02549Y02755D02*
X02568D01*
X02559Y02746D02*
Y02765D01*
X02466Y02602D02*
X02486D01*
X02476Y02592D02*
Y02612D01*
X0162Y02834D02*
X01639D01*
X01629Y02824D02*
Y02844D01*
X02131Y01566D02*
X02151D01*
X02141Y01557D02*
Y01576D01*
M02*