%FSTAX23Y23*%
%MOIN*%
%SFA1B1*%

%IPPOS*%
%ADD13C,0.005000*%
%ADD79C,0.006670*%
%LN5th_year_project-1*%
%LPD*%
G54D13*
X04037Y01565D02*
Y01555D01*
X04057*
Y01565*
X04067*
Y01585*
X04057*
Y01595*
X04037*
Y01585*
X04027*
Y01565*
X04037*
Y01225D02*
Y01215D01*
X04057*
Y01225*
X04067*
Y01245*
X04057*
Y01255*
X04037*
Y01245*
X04027*
Y01225*
X04037*
X03816Y01555D02*
X03826D01*
X03836Y01565*
X03846Y01555*
X03856*
Y01565*
X03846Y01575*
X03856Y01585*
Y01595*
X03846*
X03836Y01585*
X03826Y01595*
X03816*
Y01585*
X03826Y01575*
X03816Y01565*
Y01555*
Y01235D02*
X03836Y01255D01*
X03856Y01235*
X03836Y01215*
X03816Y01235*
X02176Y03196D02*
Y03236D01*
X02216*
Y03196*
X02176*
X02255D02*
Y03236D01*
X02295*
Y03196*
X02255*
X02334D02*
Y03236D01*
X02374*
Y03196*
X02334*
X02413D02*
Y03236D01*
X02453*
Y03196*
X02413*
X02491D02*
Y03236D01*
X02531*
Y03196*
X02491*
X0257D02*
Y03236D01*
X0261*
Y03196*
X0257*
X02649D02*
Y03236D01*
X02689*
Y03196*
X02649*
X02098D02*
Y03236D01*
X02138*
Y03196*
X02098*
X02019D02*
Y03236D01*
X02059*
Y03196*
X02019*
X0194D02*
Y03236D01*
X0198*
Y03196*
X0194*
X01876Y02182D02*
X01886Y02192D01*
X01896*
X01886Y02202*
X01896Y02212*
X01886*
X01876Y02222*
X01866Y02212*
X01856*
X01866Y02202*
X01856Y02192*
X01866*
X01876Y02182*
X01898Y02076D02*
X01908Y02086D01*
X01918*
X01908Y02096*
X01918Y02106*
X01908*
X01898Y02116*
X01888Y02106*
X01878*
X01888Y02096*
X01878Y02086*
X01888*
X01898Y02076*
X01903Y02029D02*
X01913Y02039D01*
X01923*
X01913Y02049*
X01923Y02059*
X01913*
X01903Y02069*
X01893Y02059*
X01883*
X01893Y02049*
X01883Y02039*
X01893*
X01903Y02029*
X02179Y02076D02*
X02189Y02086D01*
X02199*
X02189Y02096*
X02199Y02106*
X02189*
X02179Y02116*
X02169Y02106*
X02159*
X02169Y02096*
X02159Y02086*
X02169*
X02179Y02076*
X0235Y0212D02*
X0236Y0213D01*
X0237*
X0236Y0214*
X0237Y0215*
X0236*
X0235Y0216*
X0234Y0215*
X0233*
X0234Y0214*
X0233Y0213*
X0234*
X0235Y0212*
X01797Y01817D02*
X01807Y01827D01*
X01817*
X01807Y01837*
X01817Y01847*
X01807*
X01797Y01857*
X01787Y01847*
X01777*
X01787Y01837*
X01777Y01827*
X01787*
X01797Y01817*
X02728Y02221D02*
X02738Y02231D01*
X02748*
X02738Y02241*
X02748Y02251*
X02738*
X02728Y02261*
X02718Y02251*
X02708*
X02718Y02241*
X02708Y02231*
X02718*
X02728Y02221*
X02824Y02266D02*
X02834Y02276D01*
X02844*
X02834Y02286*
X02844Y02296*
X02834*
X02824Y02306*
X02814Y02296*
X02804*
X02814Y02286*
X02804Y02276*
X02814*
X02824Y02266*
Y02218D02*
X02834Y02228D01*
X02844*
X02834Y02238*
X02844Y02248*
X02834*
X02824Y02258*
X02814Y02248*
X02804*
X02814Y02238*
X02804Y02228*
X02814*
X02824Y02218*
X02728Y02341D02*
X02738Y02351D01*
X02748*
X02738Y02361*
X02748Y02371*
X02738*
X02728Y02381*
X02718Y02371*
X02708*
X02718Y02361*
X02708Y02351*
X02718*
X02728Y02341*
X02824Y02106D02*
X02834Y02116D01*
X02844*
X02834Y02126*
X02844Y02136*
X02834*
X02824Y02146*
X02814Y02136*
X02804*
X02814Y02126*
X02804Y02116*
X02814*
X02824Y02106*
Y02164D02*
X02834Y02174D01*
X02844*
X02834Y02184*
X02844Y02194*
X02834*
X02824Y02204*
X02814Y02194*
X02804*
X02814Y02184*
X02804Y02174*
X02814*
X02824Y02164*
X03408Y02215D02*
X03418Y02225D01*
X03428*
X03418Y02235*
X03428Y02245*
X03418*
X03408Y02255*
X03398Y02245*
X03388*
X03398Y02235*
X03388Y02225*
X03398*
X03408Y02215*
X03562Y01176D02*
X03572Y01186D01*
X03582*
X03572Y01196*
X03582Y01206*
X03572*
X03562Y01216*
X03552Y01206*
X03542*
X03552Y01196*
X03542Y01186*
X03552*
X03562Y01176*
X02214Y0226D02*
X02224Y0227D01*
X02234*
X02224Y0228*
X02234Y0229*
X02224*
X02214Y023*
X02204Y0229*
X02194*
X02204Y0228*
X02194Y0227*
X02204*
X02214Y0226*
X02496Y01849D02*
X02506Y01859D01*
X02516*
X02506Y01869*
X02516Y01879*
X02506*
X02496Y01889*
X02486Y01879*
X02476*
X02486Y01869*
X02476Y01859*
X02486*
X02496Y01849*
X03575Y02007D02*
X03585Y02017D01*
X03595*
X03585Y02027*
X03595Y02037*
X03585*
X03575Y02047*
X03565Y02037*
X03555*
X03565Y02027*
X03555Y02017*
X03565*
X03575Y02007*
X0337Y02145D02*
X0338Y02155D01*
X0339*
X0338Y02165*
X0339Y02175*
X0338*
X0337Y02185*
X0336Y02175*
X0335*
X0336Y02165*
X0335Y02155*
X0336*
X0337Y02145*
X03646Y01943D02*
X03656Y01953D01*
X03666*
X03656Y01963*
X03666Y01973*
X03656*
X03646Y01983*
X03636Y01973*
X03626*
X03636Y01963*
X03626Y01953*
X03636*
X03646Y01943*
X03272Y02475D02*
X03282Y02485D01*
X03292*
X03282Y02495*
X03292Y02505*
X03282*
X03272Y02515*
X03262Y02505*
X03252*
X03262Y02495*
X03252Y02485*
X03262*
X03272Y02475*
X03615Y02861D02*
X03625Y02871D01*
X03635*
X03625Y02881*
X03635Y02891*
X03625*
X03615Y02901*
X03605Y02891*
X03595*
X03605Y02881*
X03595Y02871*
X03605*
X03615Y02861*
X03437Y02134D02*
X03447Y02144D01*
X03457*
X03447Y02154*
X03457Y02164*
X03447*
X03437Y02174*
X03427Y02164*
X03417*
X03427Y02154*
X03417Y02144*
X03427*
X03437Y02134*
X02217Y02314D02*
X02227Y02324D01*
X02237*
X02227Y02334*
X02237Y02344*
X02227*
X02217Y02354*
X02207Y02344*
X02197*
X02207Y02334*
X02197Y02324*
X02207*
X02217Y02314*
X02389Y02356D02*
X02399Y02366D01*
X02409*
X02399Y02376*
X02409Y02386*
X02399*
X02389Y02396*
X02379Y02386*
X02369*
X02379Y02376*
X02369Y02366*
X02379*
X02389Y02356*
X02038Y02091D02*
X02048Y02101D01*
X02058*
X02048Y02111*
X02058Y02121*
X02048*
X02038Y02131*
X02028Y02121*
X02018*
X02028Y02111*
X02018Y02101*
X02028*
X02038Y02091*
X02101Y019D02*
X02111Y0191D01*
X02121*
X02111Y0192*
X02121Y0193*
X02111*
X02101Y0194*
X02091Y0193*
X02081*
X02091Y0192*
X02081Y0191*
X02091*
X02101Y019*
X02359Y0198D02*
X02369Y0199D01*
X02379*
X02369Y02*
X02379Y0201*
X02369*
X02359Y0202*
X02349Y0201*
X02339*
X02349Y02*
X02339Y0199*
X02349*
X02359Y0198*
X02842Y02624D02*
X02852Y02634D01*
X02862*
X02852Y02644*
X02862Y02654*
X02852*
X02842Y02664*
X02832Y02654*
X02822*
X02832Y02644*
X02822Y02634*
X02832*
X02842Y02624*
X02967Y02779D02*
X02977Y02789D01*
X02987*
X02977Y02799*
X02987Y02809*
X02977*
X02967Y02819*
X02957Y02809*
X02947*
X02957Y02799*
X02947Y02789*
X02957*
X02967Y02779*
X02738Y02958D02*
X02748Y02968D01*
X02758*
X02748Y02978*
X02758Y02988*
X02748*
X02738Y02998*
X02728Y02988*
X02718*
X02728Y02978*
X02718Y02968*
X02728*
X02738Y02958*
X02773Y03052D02*
X02783Y03062D01*
X02793*
X02783Y03072*
X02793Y03082*
X02783*
X02773Y03092*
X02763Y03082*
X02753*
X02763Y03072*
X02753Y03062*
X02763*
X02773Y03052*
X02722Y03007D02*
X02732Y03017D01*
X02742*
X02732Y03027*
X02742Y03037*
X02732*
X02722Y03047*
X02712Y03037*
X02702*
X02712Y03027*
X02702Y03017*
X02712*
X02722Y03007*
X02655Y03051D02*
X02665Y03061D01*
X02675*
X02665Y03071*
X02675Y03081*
X02665*
X02655Y03091*
X02645Y03081*
X02635*
X02645Y03071*
X02635Y03061*
X02645*
X02655Y03051*
X02783Y03398D02*
X02793Y03408D01*
X02803*
X02793Y03418*
X02803Y03428*
X02793*
X02783Y03438*
X02773Y03428*
X02763*
X02773Y03418*
X02763Y03408*
X02773*
X02783Y03398*
X02589Y03416D02*
X02599Y03426D01*
X02609*
X02599Y03436*
X02609Y03446*
X02599*
X02589Y03456*
X02579Y03446*
X02569*
X02579Y03436*
X02569Y03426*
X02579*
X02589Y03416*
X02511Y03409D02*
X02521Y03419D01*
X02531*
X02521Y03429*
X02531Y03439*
X02521*
X02511Y03449*
X02501Y03439*
X02491*
X02501Y03429*
X02491Y03419*
X02501*
X02511Y03409*
X02432Y03279D02*
X02442Y03289D01*
X02452*
X02442Y03299*
X02452Y03309*
X02442*
X02432Y03319*
X02422Y03309*
X02412*
X02422Y03299*
X02412Y03289*
X02422*
X02432Y03279*
X02188Y03278D02*
X02198Y03288D01*
X02208*
X02198Y03298*
X02208Y03308*
X02198*
X02188Y03318*
X02178Y03308*
X02168*
X02178Y03298*
X02168Y03288*
X02178*
X02188Y03278*
X02118Y0311D02*
X02128Y0312D01*
X02138*
X02128Y0313*
X02138Y0314*
X02128*
X02118Y0315*
X02108Y0314*
X02098*
X02108Y0313*
X02098Y0312*
X02108*
X02118Y0311*
X02365Y02211D02*
X02375Y02221D01*
X02385*
X02375Y02231*
X02385Y02241*
X02375*
X02365Y02251*
X02355Y02241*
X02345*
X02355Y02231*
X02345Y02221*
X02355*
X02365Y02211*
X02965Y02628D02*
X02975Y02638D01*
X02985*
X02975Y02648*
X02985Y02658*
X02975*
X02965Y02668*
X02955Y02658*
X02945*
X02955Y02648*
X02945Y02638*
X02955*
X02965Y02628*
X03053Y02087D02*
X03063Y02097D01*
X03073*
X03063Y02107*
X03073Y02117*
X03063*
X03053Y02127*
X03043Y02117*
X03033*
X03043Y02107*
X03033Y02097*
X03043*
X03053Y02087*
X02437Y01571D02*
X02447Y01581D01*
X02457*
X02447Y01591*
X02457Y01601*
X02447*
X02437Y01611*
X02427Y01601*
X02417*
X02427Y01591*
X02417Y01581*
X02427*
X02437Y01571*
X02255Y01605D02*
X02265Y01615D01*
X02275*
X02265Y01625*
X02275Y01635*
X02265*
X02255Y01645*
X02245Y01635*
X02235*
X02245Y01625*
X02235Y01615*
X02245*
X02255Y01605*
X02034Y02977D02*
X02044Y02987D01*
X02054*
X02044Y02997*
X02054Y03007*
X02044*
X02034Y03017*
X02024Y03007*
X02014*
X02024Y02997*
X02014Y02987*
X02024*
X02034Y02977*
X02072Y02672D02*
X02082Y02682D01*
X02092*
X02082Y02692*
X02092Y02702*
X02082*
X02072Y02712*
X02062Y02702*
X02052*
X02062Y02692*
X02052Y02682*
X02062*
X02072Y02672*
X03324Y02441D02*
X03334Y02451D01*
X03344*
X03334Y02461*
X03344Y02471*
X03334*
X03324Y02481*
X03314Y02471*
X03304*
X03314Y02461*
X03304Y02451*
X03314*
X03324Y02441*
X03633Y02574D02*
X03643Y02584D01*
X03653*
X03643Y02594*
X03653Y02604*
X03643*
X03633Y02614*
X03623Y02604*
X03613*
X03623Y02594*
X03613Y02584*
X03623*
X03633Y02574*
X03462Y02978D02*
X03472Y02988D01*
X03482*
X03472Y02998*
X03482Y03008*
X03472*
X03462Y03018*
X03452Y03008*
X03442*
X03452Y02998*
X03442Y02988*
X03452*
X03462Y02978*
X03114Y03053D02*
X03124Y03063D01*
X03134*
X03124Y03073*
X03134Y03083*
X03124*
X03114Y03093*
X03104Y03083*
X03094*
X03104Y03073*
X03094Y03063*
X03104*
X03114Y03053*
X02773Y02543D02*
X02783Y02553D01*
X02793*
X02783Y02563*
X02793Y02573*
X02783*
X02773Y02583*
X02763Y02573*
X02753*
X02763Y02563*
X02753Y02553*
X02763*
X02773Y02543*
X03692Y03003D02*
X03702Y03013D01*
X03712*
X03702Y03023*
X03712Y03033*
X03702*
X03692Y03043*
X03682Y03033*
X03672*
X03682Y03023*
X03672Y03013*
X03682*
X03692Y03003*
X03208Y02578D02*
X03218Y02588D01*
X03228*
X03218Y02598*
X03228Y02608*
X03218*
X03208Y02618*
X03198Y02608*
X03188*
X03198Y02598*
X03188Y02588*
X03198*
X03208Y02578*
X03492Y03275D02*
X03502Y03285D01*
X03512*
X03502Y03295*
X03512Y03305*
X03502*
X03492Y03315*
X03482Y03305*
X03472*
X03482Y03295*
X03472Y03285*
X03482*
X03492Y03275*
X02751Y03098D02*
X02731Y03138D01*
X02771*
X02751Y03098*
X0261Y02743D02*
X0262Y02753D01*
X0263*
X0262Y02763*
X0263Y02773*
X0262*
X0261Y02783*
X026Y02773*
X0259*
X026Y02763*
X0259Y02753*
X026*
X0261Y02743*
X03795Y03003D02*
X03805Y03013D01*
X03815*
X03805Y03023*
X03815Y03033*
X03805*
X03795Y03043*
X03785Y03033*
X03775*
X03785Y03023*
X03775Y03013*
X03785*
X03795Y03003*
X03043Y02483D02*
X03053Y02493D01*
X03063*
X03053Y02503*
X03063Y02513*
X03053*
X03043Y02523*
X03033Y02513*
X03023*
X03033Y02503*
X03023Y02493*
X03033*
X03043Y02483*
X02728Y01983D02*
X02738Y01993D01*
X02748*
X02738Y02003*
X02748Y02013*
X02738*
X02728Y02023*
X02718Y02013*
X02708*
X02718Y02003*
X02708Y01993*
X02718*
X02728Y01983*
X03448Y01342D02*
X03458Y01352D01*
X03468*
X03458Y01362*
X03468Y01372*
X03458*
X03448Y01382*
X03438Y01372*
X03428*
X03438Y01362*
X03428Y01352*
X03438*
X03448Y01342*
X03362Y02263D02*
X03372Y02273D01*
X03382*
X03372Y02283*
X03382Y02293*
X03372*
X03362Y02303*
X03352Y02293*
X03342*
X03352Y02283*
X03342Y02273*
X03352*
X03362Y02263*
X03169Y02342D02*
X03179Y02352D01*
X03189*
X03179Y02362*
X03189Y02372*
X03179*
X03169Y02382*
X03159Y02372*
X03149*
X03159Y02362*
X03149Y02352*
X03159*
X03169Y02342*
X01972Y02491D02*
X01982Y02501D01*
X01992*
X01982Y02511*
X01992Y02521*
X01982*
X01972Y02531*
X01962Y02521*
X01952*
X01962Y02511*
X01952Y02501*
X01962*
X01972Y02491*
X03417Y01901D02*
X03427Y01911D01*
X03437*
X03427Y01921*
X03437Y01931*
X03427*
X03417Y01941*
X03407Y01931*
X03397*
X03407Y01921*
X03397Y01911*
X03407*
X03417Y01901*
X03712Y01456D02*
X03722Y01466D01*
X03732*
X03722Y01476*
X03732Y01486*
X03722*
X03712Y01496*
X03702Y01486*
X03692*
X03702Y01476*
X03692Y01466*
X03702*
X03712Y01456*
X0259Y02042D02*
X026Y02052D01*
X0261*
X026Y02062*
X0261Y02072*
X026*
X0259Y02082*
X0258Y02072*
X0257*
X0258Y02062*
X0257Y02052*
X0258*
X0259Y02042*
X02559Y02735D02*
X02569Y02745D01*
X02579*
X02569Y02755*
X02579Y02765*
X02569*
X02559Y02775*
X02549Y02765*
X02539*
X02549Y02755*
X02539Y02745*
X02549*
X02559Y02735*
X02476Y02582D02*
X02486Y02592D01*
X02496*
X02486Y02602*
X02496Y02612*
X02486*
X02476Y02622*
X02466Y02612*
X02456*
X02466Y02602*
X02456Y02592*
X02466*
X02476Y02582*
X01629Y02814D02*
X01639Y02824D01*
X01649*
X01639Y02834*
X01649Y02844*
X01639*
X01629Y02854*
X01619Y02844*
X01609*
X01619Y02834*
X01609Y02824*
X01619*
X01629Y02814*
X02141Y01546D02*
X02151Y01556D01*
X02161*
X02151Y01566*
X02161Y01576*
X02151*
X02141Y01586*
X02131Y01576*
X02121*
X02131Y01566*
X02121Y01556*
X02131*
X02141Y01546*
G54D79*
X03212Y03208D02*
D01*
X03212Y0321*
X03211Y03211*
X03211Y03212*
X03211Y03214*
X0321Y03215*
X0321Y03216*
X03209Y03218*
X03209Y03219*
X03208Y0322*
X03207Y03221*
X03206Y03222*
X03205Y03223*
X03204Y03224*
X03203Y03225*
X03202Y03225*
X032Y03226*
X03199Y03227*
X03198Y03227*
X03196Y03228*
X03195Y03228*
X03194Y03228*
X03192Y03228*
X03191*
X0319Y03228*
X03188Y03228*
X03187Y03228*
X03185Y03227*
X03184Y03227*
X03183Y03226*
X03182Y03225*
X0318Y03225*
X03179Y03224*
X03178Y03223*
X03177Y03222*
X03176Y03221*
X03175Y0322*
X03175Y03219*
X03174Y03218*
X03173Y03216*
X03173Y03215*
X03172Y03214*
X03172Y03212*
X03172Y03211*
X03172Y0321*
X03172Y03208*
X03172Y03207*
X03172Y03205*
X03172Y03204*
X03172Y03203*
X03173Y03201*
X03173Y032*
X03174Y03199*
X03175Y03198*
X03175Y03196*
X03176Y03195*
X03177Y03194*
X03178Y03193*
X03179Y03192*
X0318Y03192*
X03182Y03191*
X03183Y0319*
X03184Y0319*
X03185Y03189*
X03187Y03189*
X03188Y03188*
X0319Y03188*
X03191Y03188*
X03192*
X03194Y03188*
X03195Y03188*
X03196Y03189*
X03198Y03189*
X03199Y0319*
X032Y0319*
X03202Y03191*
X03203Y03192*
X03204Y03192*
X03205Y03193*
X03206Y03194*
X03207Y03195*
X03208Y03196*
X03209Y03198*
X03209Y03199*
X0321Y032*
X0321Y03201*
X03211Y03203*
X03211Y03204*
X03211Y03205*
X03212Y03207*
X03212Y03208*
X03312D02*
D01*
X03312Y0321*
X03311Y03211*
X03311Y03212*
X03311Y03214*
X0331Y03215*
X0331Y03216*
X03309Y03218*
X03309Y03219*
X03308Y0322*
X03307Y03221*
X03306Y03222*
X03305Y03223*
X03304Y03224*
X03303Y03225*
X03302Y03225*
X033Y03226*
X03299Y03227*
X03298Y03227*
X03296Y03228*
X03295Y03228*
X03294Y03228*
X03292Y03228*
X03291*
X0329Y03228*
X03288Y03228*
X03287Y03228*
X03285Y03227*
X03284Y03227*
X03283Y03226*
X03282Y03225*
X0328Y03225*
X03279Y03224*
X03278Y03223*
X03277Y03222*
X03276Y03221*
X03275Y0322*
X03275Y03219*
X03274Y03218*
X03273Y03216*
X03273Y03215*
X03272Y03214*
X03272Y03212*
X03272Y03211*
X03272Y0321*
X03272Y03208*
X03272Y03207*
X03272Y03205*
X03272Y03204*
X03272Y03203*
X03273Y03201*
X03273Y032*
X03274Y03199*
X03275Y03198*
X03275Y03196*
X03276Y03195*
X03277Y03194*
X03278Y03193*
X03279Y03192*
X0328Y03192*
X03282Y03191*
X03283Y0319*
X03284Y0319*
X03285Y03189*
X03287Y03189*
X03288Y03188*
X0329Y03188*
X03291Y03188*
X03292*
X03294Y03188*
X03295Y03188*
X03296Y03189*
X03298Y03189*
X03299Y0319*
X033Y0319*
X03302Y03191*
X03303Y03192*
X03304Y03192*
X03305Y03193*
X03306Y03194*
X03307Y03195*
X03308Y03196*
X03309Y03198*
X03309Y03199*
X0331Y032*
X0331Y03201*
X03311Y03203*
X03311Y03204*
X03311Y03205*
X03312Y03207*
X03312Y03208*
X03412D02*
D01*
X03412Y0321*
X03411Y03211*
X03411Y03212*
X03411Y03214*
X0341Y03215*
X0341Y03216*
X03409Y03218*
X03409Y03219*
X03408Y0322*
X03407Y03221*
X03406Y03222*
X03405Y03223*
X03404Y03224*
X03403Y03225*
X03402Y03225*
X034Y03226*
X03399Y03227*
X03398Y03227*
X03396Y03228*
X03395Y03228*
X03394Y03228*
X03392Y03228*
X03391*
X0339Y03228*
X03388Y03228*
X03387Y03228*
X03385Y03227*
X03384Y03227*
X03383Y03226*
X03382Y03225*
X0338Y03225*
X03379Y03224*
X03378Y03223*
X03377Y03222*
X03376Y03221*
X03375Y0322*
X03375Y03219*
X03374Y03218*
X03373Y03216*
X03373Y03215*
X03372Y03214*
X03372Y03212*
X03372Y03211*
X03372Y0321*
X03372Y03208*
X03372Y03207*
X03372Y03205*
X03372Y03204*
X03372Y03203*
X03373Y03201*
X03373Y032*
X03374Y03199*
X03375Y03198*
X03375Y03196*
X03376Y03195*
X03377Y03194*
X03378Y03193*
X03379Y03192*
X0338Y03192*
X03382Y03191*
X03383Y0319*
X03384Y0319*
X03385Y03189*
X03387Y03189*
X03388Y03188*
X0339Y03188*
X03391Y03188*
X03392*
X03394Y03188*
X03395Y03188*
X03396Y03189*
X03398Y03189*
X03399Y0319*
X034Y0319*
X03402Y03191*
X03403Y03192*
X03404Y03192*
X03405Y03193*
X03406Y03194*
X03407Y03195*
X03408Y03196*
X03409Y03198*
X03409Y03199*
X0341Y032*
X0341Y03201*
X03411Y03203*
X03411Y03204*
X03411Y03205*
X03412Y03207*
X03412Y03208*
X03512D02*
D01*
X03512Y0321*
X03511Y03211*
X03511Y03212*
X03511Y03214*
X0351Y03215*
X0351Y03216*
X03509Y03218*
X03509Y03219*
X03508Y0322*
X03507Y03221*
X03506Y03222*
X03505Y03223*
X03504Y03224*
X03503Y03225*
X03502Y03225*
X035Y03226*
X03499Y03227*
X03498Y03227*
X03496Y03228*
X03495Y03228*
X03494Y03228*
X03492Y03228*
X03491*
X0349Y03228*
X03488Y03228*
X03487Y03228*
X03485Y03227*
X03484Y03227*
X03483Y03226*
X03482Y03225*
X0348Y03225*
X03479Y03224*
X03478Y03223*
X03477Y03222*
X03476Y03221*
X03475Y0322*
X03475Y03219*
X03474Y03218*
X03473Y03216*
X03473Y03215*
X03472Y03214*
X03472Y03212*
X03472Y03211*
X03472Y0321*
X03472Y03208*
X03472Y03207*
X03472Y03205*
X03472Y03204*
X03472Y03203*
X03473Y03201*
X03473Y032*
X03474Y03199*
X03475Y03198*
X03475Y03196*
X03476Y03195*
X03477Y03194*
X03478Y03193*
X03479Y03192*
X0348Y03192*
X03482Y03191*
X03483Y0319*
X03484Y0319*
X03485Y03189*
X03487Y03189*
X03488Y03188*
X0349Y03188*
X03491Y03188*
X03492*
X03494Y03188*
X03495Y03188*
X03496Y03189*
X03498Y03189*
X03499Y0319*
X035Y0319*
X03502Y03191*
X03503Y03192*
X03504Y03192*
X03505Y03193*
X03506Y03194*
X03507Y03195*
X03508Y03196*
X03509Y03198*
X03509Y03199*
X0351Y032*
X0351Y03201*
X03511Y03203*
X03511Y03204*
X03511Y03205*
X03512Y03207*
X03512Y03208*
X03612D02*
D01*
X03612Y0321*
X03611Y03211*
X03611Y03212*
X03611Y03214*
X0361Y03215*
X0361Y03216*
X03609Y03218*
X03609Y03219*
X03608Y0322*
X03607Y03221*
X03606Y03222*
X03605Y03223*
X03604Y03224*
X03603Y03225*
X03602Y03225*
X036Y03226*
X03599Y03227*
X03598Y03227*
X03596Y03228*
X03595Y03228*
X03594Y03228*
X03592Y03228*
X03591*
X0359Y03228*
X03588Y03228*
X03587Y03228*
X03585Y03227*
X03584Y03227*
X03583Y03226*
X03582Y03225*
X0358Y03225*
X03579Y03224*
X03578Y03223*
X03577Y03222*
X03576Y03221*
X03575Y0322*
X03575Y03219*
X03574Y03218*
X03573Y03216*
X03573Y03215*
X03572Y03214*
X03572Y03212*
X03572Y03211*
X03572Y0321*
X03572Y03208*
X03572Y03207*
X03572Y03205*
X03572Y03204*
X03572Y03203*
X03573Y03201*
X03573Y032*
X03574Y03199*
X03575Y03198*
X03575Y03196*
X03576Y03195*
X03577Y03194*
X03578Y03193*
X03579Y03192*
X0358Y03192*
X03582Y03191*
X03583Y0319*
X03584Y0319*
X03585Y03189*
X03587Y03189*
X03588Y03188*
X0359Y03188*
X03591Y03188*
X03592*
X03594Y03188*
X03595Y03188*
X03596Y03189*
X03598Y03189*
X03599Y0319*
X036Y0319*
X03602Y03191*
X03603Y03192*
X03604Y03192*
X03605Y03193*
X03606Y03194*
X03607Y03195*
X03608Y03196*
X03609Y03198*
X03609Y03199*
X0361Y032*
X0361Y03201*
X03611Y03203*
X03611Y03204*
X03611Y03205*
X03612Y03207*
X03612Y03208*
X03712D02*
D01*
X03712Y0321*
X03711Y03211*
X03711Y03212*
X03711Y03214*
X0371Y03215*
X0371Y03216*
X03709Y03218*
X03709Y03219*
X03708Y0322*
X03707Y03221*
X03706Y03222*
X03705Y03223*
X03704Y03224*
X03703Y03225*
X03702Y03225*
X037Y03226*
X03699Y03227*
X03698Y03227*
X03696Y03228*
X03695Y03228*
X03694Y03228*
X03692Y03228*
X03691*
X0369Y03228*
X03688Y03228*
X03687Y03228*
X03685Y03227*
X03684Y03227*
X03683Y03226*
X03682Y03225*
X0368Y03225*
X03679Y03224*
X03678Y03223*
X03677Y03222*
X03676Y03221*
X03675Y0322*
X03675Y03219*
X03674Y03218*
X03673Y03216*
X03673Y03215*
X03672Y03214*
X03672Y03212*
X03672Y03211*
X03672Y0321*
X03672Y03208*
X03672Y03207*
X03672Y03205*
X03672Y03204*
X03672Y03203*
X03673Y03201*
X03673Y032*
X03674Y03199*
X03675Y03198*
X03675Y03196*
X03676Y03195*
X03677Y03194*
X03678Y03193*
X03679Y03192*
X0368Y03192*
X03682Y03191*
X03683Y0319*
X03684Y0319*
X03685Y03189*
X03687Y03189*
X03688Y03188*
X0369Y03188*
X03691Y03188*
X03692*
X03694Y03188*
X03695Y03188*
X03696Y03189*
X03698Y03189*
X03699Y0319*
X037Y0319*
X03702Y03191*
X03703Y03192*
X03704Y03192*
X03705Y03193*
X03706Y03194*
X03707Y03195*
X03708Y03196*
X03709Y03198*
X03709Y03199*
X0371Y032*
X0371Y03201*
X03711Y03203*
X03711Y03204*
X03711Y03205*
X03712Y03207*
X03712Y03208*
X03812D02*
D01*
X03812Y0321*
X03811Y03211*
X03811Y03212*
X03811Y03214*
X0381Y03215*
X0381Y03216*
X03809Y03218*
X03809Y03219*
X03808Y0322*
X03807Y03221*
X03806Y03222*
X03805Y03223*
X03804Y03224*
X03803Y03225*
X03802Y03225*
X038Y03226*
X03799Y03227*
X03798Y03227*
X03796Y03228*
X03795Y03228*
X03794Y03228*
X03792Y03228*
X03791*
X0379Y03228*
X03788Y03228*
X03787Y03228*
X03785Y03227*
X03784Y03227*
X03783Y03226*
X03782Y03225*
X0378Y03225*
X03779Y03224*
X03778Y03223*
X03777Y03222*
X03776Y03221*
X03775Y0322*
X03775Y03219*
X03774Y03218*
X03773Y03216*
X03773Y03215*
X03772Y03214*
X03772Y03212*
X03772Y03211*
X03772Y0321*
X03772Y03208*
X03772Y03207*
X03772Y03205*
X03772Y03204*
X03772Y03203*
X03773Y03201*
X03773Y032*
X03774Y03199*
X03775Y03198*
X03775Y03196*
X03776Y03195*
X03777Y03194*
X03778Y03193*
X03779Y03192*
X0378Y03192*
X03782Y03191*
X03783Y0319*
X03784Y0319*
X03785Y03189*
X03787Y03189*
X03788Y03188*
X0379Y03188*
X03791Y03188*
X03792*
X03794Y03188*
X03795Y03188*
X03796Y03189*
X03798Y03189*
X03799Y0319*
X038Y0319*
X03802Y03191*
X03803Y03192*
X03804Y03192*
X03805Y03193*
X03806Y03194*
X03807Y03195*
X03808Y03196*
X03809Y03198*
X03809Y03199*
X0381Y032*
X0381Y03201*
X03811Y03203*
X03811Y03204*
X03811Y03205*
X03812Y03207*
X03812Y03208*
X03912D02*
D01*
X03912Y0321*
X03911Y03211*
X03911Y03212*
X03911Y03214*
X0391Y03215*
X0391Y03216*
X03909Y03218*
X03909Y03219*
X03908Y0322*
X03907Y03221*
X03906Y03222*
X03905Y03223*
X03904Y03224*
X03903Y03225*
X03902Y03225*
X039Y03226*
X03899Y03227*
X03898Y03227*
X03896Y03228*
X03895Y03228*
X03894Y03228*
X03892Y03228*
X03891*
X0389Y03228*
X03888Y03228*
X03887Y03228*
X03885Y03227*
X03884Y03227*
X03883Y03226*
X03882Y03225*
X0388Y03225*
X03879Y03224*
X03878Y03223*
X03877Y03222*
X03876Y03221*
X03875Y0322*
X03875Y03219*
X03874Y03218*
X03873Y03216*
X03873Y03215*
X03872Y03214*
X03872Y03212*
X03872Y03211*
X03872Y0321*
X03872Y03208*
X03872Y03207*
X03872Y03205*
X03872Y03204*
X03872Y03203*
X03873Y03201*
X03873Y032*
X03874Y03199*
X03875Y03198*
X03875Y03196*
X03876Y03195*
X03877Y03194*
X03878Y03193*
X03879Y03192*
X0388Y03192*
X03882Y03191*
X03883Y0319*
X03884Y0319*
X03885Y03189*
X03887Y03189*
X03888Y03188*
X0389Y03188*
X03891Y03188*
X03892*
X03894Y03188*
X03895Y03188*
X03896Y03189*
X03898Y03189*
X03899Y0319*
X039Y0319*
X03902Y03191*
X03903Y03192*
X03904Y03192*
X03905Y03193*
X03906Y03194*
X03907Y03195*
X03908Y03196*
X03909Y03198*
X03909Y03199*
X0391Y032*
X0391Y03201*
X03911Y03203*
X03911Y03204*
X03911Y03205*
X03912Y03207*
X03912Y03208*
X02427Y02834D02*
D01*
X02427Y02836*
X02426Y02837*
X02426Y02838*
X02426Y0284*
X02425Y02841*
X02425Y02842*
X02424Y02844*
X02424Y02845*
X02423Y02846*
X02422Y02847*
X02421Y02848*
X0242Y02849*
X02419Y0285*
X02418Y02851*
X02417Y02851*
X02415Y02852*
X02414Y02853*
X02413Y02853*
X02411Y02854*
X0241Y02854*
X02409Y02854*
X02407Y02854*
X02406*
X02404Y02854*
X02403Y02854*
X02402Y02854*
X024Y02853*
X02399Y02853*
X02398Y02852*
X02397Y02851*
X02395Y02851*
X02394Y0285*
X02393Y02849*
X02392Y02848*
X02391Y02847*
X0239Y02846*
X0239Y02845*
X02389Y02844*
X02388Y02842*
X02388Y02841*
X02387Y0284*
X02387Y02838*
X02387Y02837*
X02387Y02836*
X02387Y02834*
X02387Y02833*
X02387Y02831*
X02387Y0283*
X02387Y02829*
X02388Y02827*
X02388Y02826*
X02389Y02825*
X0239Y02824*
X0239Y02822*
X02391Y02821*
X02392Y0282*
X02393Y02819*
X02394Y02818*
X02395Y02818*
X02397Y02817*
X02398Y02816*
X02399Y02816*
X024Y02815*
X02402Y02815*
X02403Y02814*
X02404Y02814*
X02406Y02814*
X02407*
X02409Y02814*
X0241Y02814*
X02411Y02815*
X02413Y02815*
X02414Y02816*
X02415Y02816*
X02417Y02817*
X02418Y02818*
X02419Y02818*
X0242Y02819*
X02421Y0282*
X02422Y02821*
X02423Y02822*
X02424Y02824*
X02424Y02825*
X02425Y02826*
X02425Y02827*
X02426Y02829*
X02426Y0283*
X02426Y02831*
X02427Y02833*
X02427Y02834*
X02327D02*
D01*
X02327Y02836*
X02326Y02837*
X02326Y02838*
X02326Y0284*
X02325Y02841*
X02325Y02842*
X02324Y02844*
X02324Y02845*
X02323Y02846*
X02322Y02847*
X02321Y02848*
X0232Y02849*
X02319Y0285*
X02318Y02851*
X02317Y02851*
X02315Y02852*
X02314Y02853*
X02313Y02853*
X02311Y02854*
X0231Y02854*
X02309Y02854*
X02307Y02854*
X02306*
X02304Y02854*
X02303Y02854*
X02302Y02854*
X023Y02853*
X02299Y02853*
X02298Y02852*
X02297Y02851*
X02295Y02851*
X02294Y0285*
X02293Y02849*
X02292Y02848*
X02291Y02847*
X0229Y02846*
X0229Y02845*
X02289Y02844*
X02288Y02842*
X02288Y02841*
X02287Y0284*
X02287Y02838*
X02287Y02837*
X02287Y02836*
X02287Y02834*
X02287Y02833*
X02287Y02831*
X02287Y0283*
X02287Y02829*
X02288Y02827*
X02288Y02826*
X02289Y02825*
X0229Y02824*
X0229Y02822*
X02291Y02821*
X02292Y0282*
X02293Y02819*
X02294Y02818*
X02295Y02818*
X02297Y02817*
X02298Y02816*
X02299Y02816*
X023Y02815*
X02302Y02815*
X02303Y02814*
X02304Y02814*
X02306Y02814*
X02307*
X02309Y02814*
X0231Y02814*
X02311Y02815*
X02313Y02815*
X02314Y02816*
X02315Y02816*
X02317Y02817*
X02318Y02818*
X02319Y02818*
X0232Y02819*
X02321Y0282*
X02322Y02821*
X02323Y02822*
X02324Y02824*
X02324Y02825*
X02325Y02826*
X02325Y02827*
X02326Y02829*
X02326Y0283*
X02326Y02831*
X02327Y02833*
X02327Y02834*
X02227D02*
D01*
X02227Y02836*
X02226Y02837*
X02226Y02838*
X02226Y0284*
X02225Y02841*
X02225Y02842*
X02224Y02844*
X02224Y02845*
X02223Y02846*
X02222Y02847*
X02221Y02848*
X0222Y02849*
X02219Y0285*
X02218Y02851*
X02217Y02851*
X02215Y02852*
X02214Y02853*
X02213Y02853*
X02211Y02854*
X0221Y02854*
X02209Y02854*
X02207Y02854*
X02206*
X02204Y02854*
X02203Y02854*
X02202Y02854*
X022Y02853*
X02199Y02853*
X02198Y02852*
X02197Y02851*
X02195Y02851*
X02194Y0285*
X02193Y02849*
X02192Y02848*
X02191Y02847*
X0219Y02846*
X0219Y02845*
X02189Y02844*
X02188Y02842*
X02188Y02841*
X02187Y0284*
X02187Y02838*
X02187Y02837*
X02187Y02836*
X02187Y02834*
X02187Y02833*
X02187Y02831*
X02187Y0283*
X02187Y02829*
X02188Y02827*
X02188Y02826*
X02189Y02825*
X0219Y02824*
X0219Y02822*
X02191Y02821*
X02192Y0282*
X02193Y02819*
X02194Y02818*
X02195Y02818*
X02197Y02817*
X02198Y02816*
X02199Y02816*
X022Y02815*
X02202Y02815*
X02203Y02814*
X02204Y02814*
X02206Y02814*
X02207*
X02209Y02814*
X0221Y02814*
X02211Y02815*
X02213Y02815*
X02214Y02816*
X02215Y02816*
X02217Y02817*
X02218Y02818*
X02219Y02818*
X0222Y02819*
X02221Y0282*
X02222Y02821*
X02223Y02822*
X02224Y02824*
X02224Y02825*
X02225Y02826*
X02225Y02827*
X02226Y02829*
X02226Y0283*
X02226Y02831*
X02227Y02833*
X02227Y02834*
X01891D02*
D01*
X01891Y02836*
X01891Y02837*
X0189Y02838*
X0189Y0284*
X0189Y02841*
X01889Y02842*
X01888Y02844*
X01888Y02845*
X01887Y02846*
X01886Y02847*
X01885Y02848*
X01884Y02849*
X01883Y0285*
X01882Y02851*
X01881Y02851*
X0188Y02852*
X01878Y02853*
X01877Y02853*
X01876Y02854*
X01874Y02854*
X01873Y02854*
X01871Y02854*
X0187*
X01869Y02854*
X01867Y02854*
X01866Y02854*
X01865Y02853*
X01863Y02853*
X01862Y02852*
X01861Y02851*
X0186Y02851*
X01858Y0285*
X01857Y02849*
X01856Y02848*
X01855Y02847*
X01855Y02846*
X01854Y02845*
X01853Y02844*
X01852Y02842*
X01852Y02841*
X01852Y0284*
X01851Y02838*
X01851Y02837*
X01851Y02836*
X01851Y02834*
X01851Y02833*
X01851Y02831*
X01851Y0283*
X01852Y02829*
X01852Y02827*
X01852Y02826*
X01853Y02825*
X01854Y02824*
X01855Y02822*
X01855Y02821*
X01856Y0282*
X01857Y02819*
X01858Y02818*
X0186Y02818*
X01861Y02817*
X01862Y02816*
X01863Y02816*
X01865Y02815*
X01866Y02815*
X01867Y02814*
X01869Y02814*
X0187Y02814*
X01871*
X01873Y02814*
X01874Y02814*
X01876Y02815*
X01877Y02815*
X01878Y02816*
X0188Y02816*
X01881Y02817*
X01882Y02818*
X01883Y02818*
X01884Y02819*
X01885Y0282*
X01886Y02821*
X01887Y02822*
X01888Y02824*
X01888Y02825*
X01889Y02826*
X0189Y02827*
X0189Y02829*
X0189Y0283*
X01891Y02831*
X01891Y02833*
X01891Y02834*
X01991D02*
D01*
X01991Y02836*
X01991Y02837*
X0199Y02838*
X0199Y0284*
X0199Y02841*
X01989Y02842*
X01988Y02844*
X01988Y02845*
X01987Y02846*
X01986Y02847*
X01985Y02848*
X01984Y02849*
X01983Y0285*
X01982Y02851*
X01981Y02851*
X0198Y02852*
X01978Y02853*
X01977Y02853*
X01976Y02854*
X01974Y02854*
X01973Y02854*
X01971Y02854*
X0197*
X01969Y02854*
X01967Y02854*
X01966Y02854*
X01965Y02853*
X01963Y02853*
X01962Y02852*
X01961Y02851*
X0196Y02851*
X01958Y0285*
X01957Y02849*
X01956Y02848*
X01955Y02847*
X01955Y02846*
X01954Y02845*
X01953Y02844*
X01952Y02842*
X01952Y02841*
X01952Y0284*
X01951Y02838*
X01951Y02837*
X01951Y02836*
X01951Y02834*
X01951Y02833*
X01951Y02831*
X01951Y0283*
X01952Y02829*
X01952Y02827*
X01952Y02826*
X01953Y02825*
X01954Y02824*
X01955Y02822*
X01955Y02821*
X01956Y0282*
X01957Y02819*
X01958Y02818*
X0196Y02818*
X01961Y02817*
X01962Y02816*
X01963Y02816*
X01965Y02815*
X01966Y02815*
X01967Y02814*
X01969Y02814*
X0197Y02814*
X01971*
X01973Y02814*
X01974Y02814*
X01976Y02815*
X01977Y02815*
X01978Y02816*
X0198Y02816*
X01981Y02817*
X01982Y02818*
X01983Y02818*
X01984Y02819*
X01985Y0282*
X01986Y02821*
X01987Y02822*
X01988Y02824*
X01988Y02825*
X01989Y02826*
X0199Y02827*
X0199Y02829*
X0199Y0283*
X01991Y02831*
X01991Y02833*
X01991Y02834*
M02*