%FSTAX23Y23*%
%MOIN*%
%SFA1B1*%

%IPPOS*%
%ADD12C,0.007870*%
%LN5th_year_project-1*%
%LPD*%
G36*
X02596Y02126D02*
Y02126D01*
Y02126*
Y02126*
Y02126*
X02596Y02125*
Y02125*
X02596Y02125*
X02596Y02124*
X02596Y02123*
X02596Y02122*
X02595Y02121*
X02595Y0212*
Y0212*
X02595Y0212*
X02595Y0212*
X02595Y0212*
X02595Y0212*
X02594Y02119*
X02594Y02118*
X02593Y02118*
X02593Y02117*
X02592Y02117*
X02592*
X02592Y02117*
X02592Y02117*
X02591Y02116*
X02591Y02116*
X02591Y02116*
X02591Y02116*
X0259Y02116*
X0259Y02116*
X02589Y02116*
X02589Y02116*
X02588Y02116*
X02587Y02115*
X02586Y02115*
X02586*
X02585Y02115*
X02585*
X02585Y02115*
X02584Y02115*
X02584Y02115*
X02583Y02116*
X02582Y02116*
X02581Y02116*
X0258Y02117*
X0258*
X0258Y02117*
X0258Y02117*
X0258Y02117*
X02579Y02117*
X02579Y02117*
X02578Y02118*
X02578Y02119*
X02577Y02119*
X02577Y0212*
Y0212*
X02577Y0212*
X02577Y0212*
X02577Y0212*
X02577Y02121*
X02577Y02121*
X02577Y02121*
X02577Y02122*
X02576Y02122*
X02576Y02123*
X02576Y02123*
X02576Y02124*
X02576Y02124*
X02576Y02125*
X02576Y02126*
Y02126*
Y02141*
X02579*
Y02126*
Y02126*
Y02126*
Y02126*
Y02126*
Y02126*
X02579Y02125*
X02579Y02125*
X0258Y02124*
X0258Y02123*
X0258Y02122*
X0258Y02122*
X0258Y02122*
X0258Y02121*
X0258Y02121*
X0258Y02121*
X0258Y02121*
X02581Y0212*
X02581Y0212*
X02582Y02119*
X02582Y02119*
X02582Y02119*
X02582Y02119*
X02583Y02119*
X02583Y02119*
X02584Y02119*
X02584Y02118*
X02585Y02118*
X02586Y02118*
X02586*
X02586Y02118*
X02587*
X02587Y02118*
X02588Y02119*
X02589Y02119*
X02589Y02119*
X0259Y02119*
X02591Y0212*
X02591Y0212*
Y0212*
X02591Y0212*
X02591Y0212*
X02591Y0212*
X02591Y02121*
X02591Y02121*
X02592Y02121*
X02592Y02121*
X02592Y02122*
X02592Y02122*
X02592Y02123*
X02592Y02123*
X02592Y02124*
X02592Y02125*
X02593Y02126*
Y02126*
Y02141*
X02596*
Y02126*
G37*
G36*
X02612Y02116D02*
X02609D01*
Y02135*
X02609Y02135*
X02609Y02135*
X02608Y02135*
X02608Y02135*
X02608Y02134*
X02607Y02134*
X02606Y02134*
X02606Y02133*
X02606*
X02606Y02133*
X02605Y02133*
X02605Y02133*
X02605Y02133*
X02604Y02132*
X02604Y02132*
X02603Y02132*
X02603Y02132*
Y02135*
X02603*
X02603Y02135*
X02603Y02135*
X02603Y02135*
X02603Y02135*
X02603Y02135*
X02604Y02136*
X02605Y02136*
X02606Y02136*
X02606Y02137*
X02607Y02138*
X02607Y02138*
X02607Y02138*
X02607Y02138*
X02608Y02138*
X02608Y02139*
X02609Y02139*
X02609Y0214*
X02609Y0214*
X0261Y02141*
X02612*
Y02116*
G37*
G36*
X01729Y02053D02*
X01722Y02048D01*
X01722*
X01722Y02047*
X01722Y02047*
X01721Y02047*
X01721Y02047*
X01721Y02047*
X0172Y02046*
X01719Y02046*
X01718Y02045*
X01718Y02045*
X01718*
X01718Y02045*
X01718Y02045*
X01718Y02045*
X01718Y02045*
X01719Y02044*
X0172Y02044*
X0172Y02043*
X01721Y02043*
X01722Y02042*
X01729Y02037*
Y02033*
X01715Y02044*
X01704*
Y02047*
X01715*
X01729Y02057*
Y02053*
G37*
G36*
X01723Y02029D02*
X01723Y02029D01*
X01723Y02029*
X01723Y02029*
X01724Y02029*
X01724Y02028*
X01724Y02028*
X01724Y02027*
X01725Y02026*
X01726Y02026*
X01726Y02025*
X01726Y02025*
X01726Y02025*
X01726Y02025*
X01727Y02024*
X01727Y02024*
X01728Y02023*
X01728Y02023*
X01729Y02022*
X0173Y02022*
Y0202*
X01704*
Y02023*
X01724*
X01724Y02023*
X01724Y02023*
X01724Y02024*
X01723Y02024*
X01723Y02024*
X01723Y02025*
X01722Y02025*
X01722Y02026*
Y02026*
X01722Y02026*
X01722Y02026*
X01721Y02027*
X01721Y02027*
X01721Y02028*
X01721Y02028*
X0172Y02029*
X0172Y02029*
X01723*
Y02029*
G37*
G36*
X01507Y0214D02*
X01507Y0214D01*
X01508Y0214*
X01508Y02139*
X01508Y02139*
X01509Y02139*
X0151Y02139*
X01511Y02139*
X01511Y02138*
X01512Y02138*
X01512Y02138*
X01512Y02138*
X01512Y02138*
X01512Y02137*
X01513Y02137*
X01513Y02137*
X01513Y02137*
X01513Y02136*
X01514Y02136*
X01514Y02135*
X01514Y02135*
X01515Y02134*
X01515Y02134*
X01515Y02133*
X01515Y02133*
X01515Y02132*
X01515Y02131*
Y02131*
X01515Y0213*
X01515Y0213*
X01515Y0213*
X01515Y02129*
X01515Y02129*
X01515Y02128*
X01514Y02127*
X01514Y02127*
X01514Y02126*
X01514Y02126*
X01513Y02125*
X01513Y02125*
X01513Y02125*
X01513Y02125*
X01513Y02125*
X01513Y02125*
X01513Y02125*
X01512Y02125*
X01512Y02124*
X01511Y02124*
X0151Y02123*
X01509Y02123*
X01509Y02123*
X01508Y02123*
X01508Y02126*
X01508*
X01508*
X01508Y02126*
X01508Y02126*
X01509Y02126*
X01509Y02127*
X0151Y02127*
X0151Y02127*
X01511Y02127*
X01512Y02128*
X01512Y02128*
X01512Y02128*
X01512Y02128*
X01512Y02129*
X01512Y02129*
X01513Y0213*
X01513Y0213*
X01513Y02131*
Y02131*
X01513Y02131*
X01513Y02132*
X01513Y02132*
X01512Y02133*
X01512Y02134*
X01512Y02134*
X01511Y02135*
X01511Y02135*
X01511*
X01511Y02135*
X01511Y02135*
X0151Y02135*
X0151Y02136*
X01509Y02136*
X01508Y02136*
X01508Y02136*
X01507Y02136*
X01507*
X01506*
X01506*
X01506Y02136*
X01506*
X01506Y02136*
X01505Y02136*
X01504Y02136*
X01504Y02136*
X01503Y02135*
X01502Y02135*
X01502Y02135*
X01502Y02135*
X01502Y02134*
X01502Y02134*
X01501Y02133*
X01501Y02133*
X01501Y02132*
X01501Y02131*
Y02131*
X01501Y0213*
X01501Y0213*
X01501Y0213*
X01501Y02129*
X01501Y02129*
X01502Y02128*
X01502Y02128*
X01502Y02128*
X01502Y02128*
X01502Y02128*
X01502Y02127*
X01503Y02127*
X01503Y02127*
X01503Y02126*
X01503Y02123*
X0149Y02126*
Y02138*
X01493*
Y02128*
X015Y02127*
X015Y02127*
X015Y02127*
X015Y02127*
X01499Y02127*
X01499Y02128*
X01499Y02128*
X01499Y02128*
X01499Y02129*
X01498Y0213*
X01498Y02131*
X01498Y02132*
Y02132*
X01498Y02132*
X01498Y02133*
X01498Y02133*
X01498Y02133*
X01498Y02134*
X01499Y02135*
X01499Y02135*
X01499Y02135*
X01499Y02136*
X015Y02136*
X015Y02137*
X015Y02137*
X015Y02137*
X01501Y02137*
X01501Y02138*
X01501Y02138*
X01501Y02138*
X01501Y02138*
X01502Y02138*
X01502Y02138*
X01502Y02139*
X01503Y02139*
X01503Y02139*
X01504Y02139*
X01504Y02139*
X01505Y0214*
X01506Y0214*
X01506Y0214*
X01506*
X01506*
X01507*
X01507Y0214*
G37*
G36*
X01515Y02112D02*
X01495D01*
X01495Y02112*
X01495Y02112*
X01495Y02111*
X01496Y02111*
X01496Y02111*
X01496Y0211*
X01497Y0211*
X01497Y02109*
Y02109*
X01497Y02109*
X01497Y02109*
X01498Y02108*
X01498Y02108*
X01498Y02107*
X01498Y02107*
X01499Y02106*
X01499Y02106*
X01496*
Y02106*
X01496Y02106*
X01496Y02106*
X01496Y02106*
X01495Y02106*
X01495Y02107*
X01495Y02107*
X01495Y02108*
X01494Y02109*
X01494Y0211*
X01493Y0211*
X01493Y0211*
X01493Y0211*
X01493Y02111*
X01492Y02111*
X01492Y02111*
X01491Y02112*
X01491Y02112*
X0149Y02113*
X01489Y02113*
Y02115*
X01515*
Y02112*
G37*
G36*
X01507Y021D02*
X01507Y021D01*
X01508Y021*
X01508Y021*
X01508Y021*
X01509Y021*
X01509Y021*
X0151Y02099*
X01511Y02098*
X01512Y02098*
X01513Y02097*
X01513Y02097*
X01513Y02097*
X01513Y02097*
X01513Y02096*
X01513Y02096*
X01514Y02096*
X01514Y02096*
X01514Y02095*
X01514Y02095*
X01514Y02094*
X01515Y02094*
X01515Y02093*
X01515Y02093*
X01515Y02091*
X01515Y02091*
X01515Y0209*
Y0209*
X01515Y02089*
Y02089*
X01515Y02089*
X01515Y02088*
X01515Y02088*
X01515Y02087*
X01515Y02086*
X01514Y02084*
X01514Y02084*
X01514Y02083*
X01514Y02083*
X01514Y02083*
X01513Y02083*
X01513Y02083*
X01513Y02083*
X01512Y02082*
X01512Y02081*
X01511Y02081*
X0151Y0208*
X01509Y0208*
X01509*
X01509Y0208*
X01508Y02079*
X01508Y02079*
X01508Y02079*
X01508Y02079*
X01507Y02079*
X01507Y02079*
X01506Y02079*
X01506Y02079*
X01505Y02078*
X01503Y02078*
X01502Y02078*
X01502*
X01502*
X01502*
X01501Y02078*
X01501*
X01501Y02078*
X015Y02078*
X015Y02078*
X01499Y02079*
X01497Y02079*
X01496Y02079*
X01495Y0208*
X01495*
X01495Y0208*
X01495Y0208*
X01495Y0208*
X01494Y0208*
X01494Y0208*
X01494Y02081*
X01493Y02081*
X01492Y02082*
X01491Y02083*
X01491Y02084*
Y02084*
X01491Y02084*
X01491Y02084*
X0149Y02085*
X0149Y02085*
X0149Y02085*
X0149Y02085*
X0149Y02086*
X0149Y02086*
X0149Y02087*
X01489Y02088*
X01489Y02089*
X01489Y0209*
Y0209*
X01489Y02091*
X01489Y02091*
X01489Y02091*
X01489Y02092*
X01489Y02092*
X0149Y02093*
X0149Y02094*
X0149Y02095*
X0149Y02095*
X01491Y02096*
X01491Y02096*
X01491Y02097*
X01491Y02097*
X01491Y02097*
X01491Y02097*
X01492Y02097*
X01492Y02097*
X01492Y02098*
X01493Y02098*
X01493Y02098*
X01493Y02098*
X01494Y02099*
X01494Y02099*
X01495Y02099*
X01495Y021*
X01497Y021*
X01497Y02097*
X01497*
X01497Y02097*
X01497Y02097*
X01497Y02097*
X01497Y02097*
X01496Y02096*
X01496Y02096*
X01495Y02096*
X01494Y02095*
X01494Y02095*
X01493Y02094*
X01493Y02094*
X01493Y02094*
X01493Y02094*
X01493Y02093*
X01492Y02092*
X01492Y02092*
X01492Y02091*
X01492Y0209*
Y0209*
X01492Y0209*
Y02089*
X01492Y02089*
X01492Y02088*
X01492Y02088*
X01493Y02087*
X01493Y02086*
X01493Y02085*
Y02085*
X01494Y02085*
X01494Y02085*
X01494Y02085*
X01494Y02084*
X01495Y02084*
X01496Y02083*
X01496Y02083*
X01497Y02082*
X01497*
X01497Y02082*
X01497Y02082*
X01498Y02082*
X01498Y02082*
X01498Y02082*
X01499Y02082*
X01499Y02082*
X015Y02082*
X01501Y02082*
X01502Y02082*
X01502*
X01502*
X01502*
X01503*
X01503Y02082*
X01503*
X01504Y02082*
X01504Y02082*
X01505Y02082*
X01506Y02082*
X01507Y02082*
X01508Y02083*
X01508*
X01508Y02083*
X01508Y02083*
X01508Y02083*
X01508Y02083*
X01509Y02083*
X0151Y02084*
X0151Y02084*
X01511Y02085*
X01511Y02086*
Y02086*
X01511Y02086*
X01511Y02086*
X01511Y02086*
X01512Y02086*
X01512Y02087*
X01512Y02087*
X01512Y02088*
X01512Y02089*
X01512Y0209*
Y0209*
X01512Y0209*
Y0209*
X01512Y02091*
X01512Y02091*
X01512Y02092*
X01512Y02093*
X01511Y02094*
X01511Y02095*
X01511Y02095*
X01511Y02095*
X0151Y02095*
X0151Y02095*
X0151Y02096*
X01509Y02096*
X01508Y02096*
X01507Y02097*
X01506Y02097*
X01507Y02101*
X01507*
X01507Y021*
G37*
G36*
X02147Y02242D02*
X02153D01*
Y02239*
X02147*
Y02228*
X02144*
X02127Y0224*
Y02242*
X02144*
Y02246*
X02147*
Y02242*
G37*
G36*
X02153Y02218D02*
X02133D01*
X02133Y02218*
X02133Y02218*
X02133Y02218*
X02134Y02217*
X02134Y02217*
X02134Y02217*
X02135Y02216*
X02135Y02215*
Y02215*
X02135Y02215*
X02135Y02215*
X02135Y02215*
X02136Y02214*
X02136Y02214*
X02136Y02213*
X02136Y02213*
X02137Y02212*
X02134*
Y02212*
X02134Y02212*
X02134Y02212*
X02133Y02213*
X02133Y02213*
X02133Y02213*
X02133Y02214*
X02132Y02214*
X02132Y02215*
X02131Y02216*
X02131Y02217*
X02131Y02217*
X02131Y02217*
X0213Y02217*
X0213Y02217*
X0213Y02218*
X02129Y02218*
X02129Y02219*
X02128Y02219*
X02127Y02219*
Y02221*
X02153*
Y02218*
G37*
G36*
X02145Y02207D02*
X02145Y02207D01*
X02145Y02207*
X02146Y02207*
X02146Y02206*
X02146Y02206*
X02147Y02206*
X02148Y02206*
X02149Y02205*
X0215Y02204*
X0215Y02204*
X02151Y02203*
X02151Y02203*
X02151Y02203*
X02151Y02203*
X02151Y02203*
X02151Y02202*
X02152Y02202*
X02152Y02202*
X02152Y02201*
X02152Y02201*
X02152Y022*
X02153Y022*
X02153Y02199*
X02153Y02198*
X02153Y02197*
X02153Y02196*
Y02196*
X02153Y02196*
Y02195*
X02153Y02195*
X02153Y02195*
X02153Y02194*
X02153Y02193*
X02152Y02192*
X02152Y02191*
X02152Y0219*
X02151Y0219*
X02151Y0219*
X02151Y0219*
X02151Y0219*
X02151Y02189*
X02151Y02189*
X0215Y02188*
X0215Y02188*
X02149Y02187*
X02148Y02186*
X02147Y02186*
X02147*
X02146Y02186*
X02146Y02186*
X02146Y02186*
X02146Y02186*
X02145Y02186*
X02145Y02185*
X02145Y02185*
X02144Y02185*
X02144Y02185*
X02142Y02185*
X02141Y02185*
X0214Y02185*
X0214*
X0214*
X02139*
X02139Y02185*
X02139*
X02138Y02185*
X02138Y02185*
X02137Y02185*
X02136Y02185*
X02135Y02185*
X02134Y02186*
X02133Y02186*
X02133*
X02133Y02186*
X02133Y02186*
X02132Y02186*
X02132Y02187*
X02132Y02187*
X02131Y02187*
X02131Y02188*
X0213Y02189*
X02129Y02189*
X02129Y0219*
Y0219*
X02128Y0219*
X02128Y02191*
X02128Y02191*
X02128Y02191*
X02128Y02191*
X02128Y02192*
X02128Y02192*
X02128Y02193*
X02127Y02193*
X02127Y02194*
X02127Y02195*
X02127Y02196*
Y02197*
X02127Y02197*
X02127Y02197*
X02127Y02198*
X02127Y02198*
X02127Y02199*
X02127Y022*
X02128Y02201*
X02128Y02201*
X02128Y02202*
X02129Y02202*
X02129Y02203*
X02129Y02203*
X02129Y02203*
X02129Y02203*
X02129Y02203*
X02129Y02203*
X0213Y02204*
X0213Y02204*
X0213Y02204*
X02131Y02205*
X02131Y02205*
X02132Y02205*
X02132Y02205*
X02133Y02206*
X02133Y02206*
X02134Y02206*
X02135Y02203*
X02135*
X02135Y02203*
X02135Y02203*
X02135Y02203*
X02134Y02203*
X02134Y02203*
X02134Y02203*
X02133Y02202*
X02132Y02202*
X02132Y02201*
X02131Y02201*
X02131Y02201*
X02131Y022*
X02131Y022*
X0213Y02199*
X0213Y02199*
X0213Y02198*
X0213Y02197*
X0213Y02196*
Y02196*
X0213Y02196*
Y02196*
X0213Y02195*
X0213Y02195*
X0213Y02194*
X0213Y02193*
X02131Y02192*
X02131Y02192*
Y02192*
X02131Y02191*
X02132Y02191*
X02132Y02191*
X02132Y0219*
X02133Y0219*
X02133Y0219*
X02134Y02189*
X02135Y02189*
X02135*
X02135Y02189*
X02135Y02189*
X02135Y02189*
X02136Y02189*
X02136Y02189*
X02136Y02188*
X02137Y02188*
X02138Y02188*
X02139Y02188*
X0214Y02188*
X0214*
X0214*
X0214*
X0214*
X02141Y02188*
X02141*
X02141Y02188*
X02142Y02188*
X02143Y02188*
X02144Y02188*
X02145Y02189*
X02145Y02189*
X02145*
X02146Y02189*
X02146Y02189*
X02146Y02189*
X02146Y02189*
X02147Y0219*
X02147Y0219*
X02148Y02191*
X02149Y02191*
X02149Y02192*
Y02192*
X02149Y02192*
X02149Y02192*
X02149Y02192*
X02149Y02193*
X0215Y02193*
X0215Y02194*
X0215Y02195*
X0215Y02195*
X0215Y02196*
Y02196*
X0215Y02197*
Y02197*
X0215Y02197*
X0215Y02198*
X0215Y02199*
X0215Y02199*
X02149Y022*
X02149Y02201*
X02149Y02201*
X02149Y02201*
X02148Y02201*
X02148Y02202*
X02147Y02202*
X02147Y02202*
X02146Y02203*
X02145Y02203*
X02144Y02204*
X02145Y02207*
X02145*
X02145Y02207*
G37*
G36*
X02979Y02351D02*
X02979D01*
X02979*
X02979*
X02979Y02351*
X02978Y02351*
X02978Y02351*
X02978Y02351*
X02977Y02352*
X02977*
X02977Y02352*
X02977Y02352*
X02977Y02352*
X02976Y02352*
X02976Y02352*
X02975Y02353*
X02975Y02353*
X02974Y02354*
X02974*
X02974Y02354*
X02974Y02354*
X02973Y02354*
X02973Y02355*
X02972Y02355*
X02972Y02356*
X02971Y02357*
X0297Y02358*
X0297Y02358*
X0297Y02358*
X0297Y02358*
X0297Y02358*
X02969Y02359*
X02969Y02359*
X02968Y0236*
X02967Y02361*
X02966Y02362*
X02966Y02362*
X02966Y02363*
X02965Y02363*
X02965Y02363*
X02965*
X02965Y02363*
X02965Y02363*
X02964Y02363*
X02964Y02364*
X02964Y02364*
X02963Y02364*
X02962Y02364*
X02962Y02365*
X02961Y02365*
X02961*
X02961*
X02961Y02365*
X0296Y02365*
X0296Y02365*
X02959Y02364*
X02959Y02364*
X02958Y02364*
X02958Y02363*
X02958Y02363*
X02958Y02363*
X02958Y02363*
X02957Y02362*
X02957Y02362*
X02957Y02361*
X02957Y02361*
X02957Y0236*
Y0236*
X02957Y02359*
X02957Y02359*
X02957Y02359*
X02957Y02358*
X02957Y02357*
X02958Y02357*
X02958Y02356*
X02958Y02356*
X02958Y02356*
X02959Y02356*
X02959Y02356*
X0296Y02355*
X0296Y02355*
X02961Y02355*
X02962Y02355*
X02961Y02352*
X02961*
X02961*
X02961Y02352*
X02961Y02352*
X0296Y02352*
X0296Y02352*
X02959Y02352*
X02958Y02352*
X02958Y02353*
X02957Y02353*
X02956Y02354*
X02956Y02354*
X02956Y02354*
X02956Y02354*
X02956Y02354*
X02956Y02355*
X02956Y02355*
X02955Y02355*
X02955Y02355*
X02955Y02356*
X02955Y02356*
X02955Y02357*
X02954Y02357*
X02954Y02358*
X02954Y02359*
X02954Y02359*
X02954Y0236*
Y0236*
X02954Y02361*
X02954Y02361*
X02954Y02361*
X02954Y02362*
X02954Y02362*
X02955Y02363*
X02955Y02364*
X02955Y02364*
X02955Y02365*
X02956Y02365*
X02956Y02366*
X02956Y02366*
X02956Y02366*
X02956Y02366*
X02956Y02366*
X02957Y02366*
X02957Y02366*
X02957Y02367*
X02958Y02367*
X02959Y02368*
X0296Y02368*
X02961Y02368*
X02961Y02368*
X02961*
X02961*
X02962Y02368*
X02962Y02368*
X02963Y02368*
X02963Y02368*
X02964Y02367*
X02964Y02367*
X02964Y02367*
X02964Y02367*
X02965Y02367*
X02965Y02367*
X02965Y02366*
X02966Y02366*
X02967Y02366*
X02967Y02365*
X02967Y02365*
X02967Y02365*
X02968Y02365*
X02968Y02364*
X02968Y02364*
X02969Y02364*
X02969Y02363*
X02969Y02363*
X0297Y02363*
X0297Y02362*
X02971Y02362*
X02971Y02361*
X02972Y0236*
X02972Y0236*
X02972Y0236*
X02972Y0236*
X02972Y0236*
X02972Y02359*
X02973Y02359*
X02973Y02358*
X02974Y02358*
X02974Y02357*
X02975Y02357*
X02975Y02357*
X02975Y02357*
X02975Y02357*
X02975Y02357*
X02975Y02356*
X02976Y02356*
X02976Y02355*
Y02368*
X02979*
Y02351*
G37*
G36*
X02972Y02349D02*
X02972Y02349D01*
X02972Y02349*
X02972Y02348*
X02973Y02348*
X02973Y02348*
X02974Y02348*
X02975Y02347*
X02976Y02347*
X02977Y02346*
X02977Y02345*
X02978Y02345*
X02978Y02345*
X02978Y02345*
X02978Y02345*
X02978Y02344*
X02978Y02344*
X02978Y02344*
X02979Y02344*
X02979Y02343*
X02979Y02343*
X02979Y02342*
X02979Y02342*
X02979Y02341*
X0298Y0234*
X0298Y02339*
X0298Y02338*
Y02338*
X0298Y02338*
Y02337*
X0298Y02337*
X0298Y02336*
X0298Y02336*
X02979Y02335*
X02979Y02334*
X02979Y02333*
X02978Y02332*
X02978Y02332*
X02978Y02332*
X02978Y02332*
X02978Y02331*
X02978Y02331*
X02977Y02331*
X02977Y0233*
X02976Y0233*
X02975Y02329*
X02974Y02328*
X02973Y02328*
X02973*
X02973Y02328*
X02973Y02328*
X02973Y02328*
X02973Y02328*
X02972Y02327*
X02972Y02327*
X02971Y02327*
X02971Y02327*
X0297Y02327*
X02969Y02327*
X02968Y02327*
X02967Y02327*
X02967*
X02966*
X02966*
X02966Y02327*
X02966*
X02965Y02327*
X02965Y02327*
X02964Y02327*
X02963Y02327*
X02962Y02327*
X02961Y02328*
X0296Y02328*
X0296*
X0296Y02328*
X02959Y02328*
X02959Y02328*
X02959Y02328*
X02959Y02329*
X02958Y02329*
X02957Y0233*
X02957Y0233*
X02956Y02331*
X02955Y02332*
Y02332*
X02955Y02332*
X02955Y02333*
X02955Y02333*
X02955Y02333*
X02955Y02333*
X02955Y02334*
X02955Y02334*
X02954Y02334*
X02954Y02335*
X02954Y02336*
X02954Y02337*
X02954Y02338*
Y02339*
X02954Y02339*
X02954Y02339*
X02954Y0234*
X02954Y0234*
X02954Y02341*
X02954Y02342*
X02955Y02343*
X02955Y02343*
X02955Y02344*
X02955Y02344*
X02956Y02345*
X02956Y02345*
X02956Y02345*
X02956Y02345*
X02956Y02345*
X02956Y02345*
X02957Y02346*
X02957Y02346*
X02957Y02346*
X02957Y02346*
X02958Y02347*
X02958Y02347*
X02959Y02347*
X02959Y02348*
X0296Y02348*
X02961Y02348*
X02962Y02345*
X02962*
X02962Y02345*
X02962Y02345*
X02961Y02345*
X02961Y02345*
X02961Y02345*
X0296Y02344*
X0296Y02344*
X02959Y02344*
X02958Y02343*
X02958Y02342*
X02958Y02342*
X02958Y02342*
X02957Y02342*
X02957Y02341*
X02957Y02341*
X02957Y0234*
X02957Y02339*
X02957Y02338*
Y02338*
X02957Y02338*
Y02338*
X02957Y02337*
X02957Y02337*
X02957Y02336*
X02957Y02335*
X02958Y02334*
X02958Y02333*
Y02333*
X02958Y02333*
X02958Y02333*
X02959Y02333*
X02959Y02332*
X0296Y02332*
X0296Y02331*
X02961Y02331*
X02962Y02331*
X02962*
X02962Y02331*
X02962Y02331*
X02962Y02331*
X02962Y02331*
X02963Y0233*
X02963Y0233*
X02964Y0233*
X02965Y0233*
X02966Y0233*
X02967Y0233*
X02967*
X02967*
X02967*
X02967*
X02967Y0233*
X02968*
X02968Y0233*
X02968Y0233*
X02969Y0233*
X0297Y0233*
X02971Y02331*
X02972Y02331*
X02972*
X02972Y02331*
X02972Y02331*
X02973Y02331*
X02973Y02331*
X02974Y02332*
X02974Y02332*
X02975Y02332*
X02975Y02333*
X02976Y02334*
Y02334*
X02976Y02334*
X02976Y02334*
X02976Y02334*
X02976Y02335*
X02976Y02335*
X02977Y02336*
X02977Y02336*
X02977Y02337*
X02977Y02338*
Y02338*
X02977Y02339*
Y02339*
X02977Y02339*
X02977Y0234*
X02977Y0234*
X02976Y02341*
X02976Y02342*
X02975Y02343*
X02975Y02343*
X02975Y02343*
X02975Y02343*
X02975Y02343*
X02974Y02344*
X02973Y02344*
X02973Y02345*
X02972Y02345*
X02971Y02345*
X02971Y02349*
X02971*
X02972Y02349*
G37*
G36*
X03568Y03234D02*
X03569Y03234D01*
X03569Y03234*
X0357Y03234*
X03571Y03233*
X03571Y03233*
X03571*
X03571Y03233*
X03572Y03233*
X03572Y03233*
X03572Y03232*
X03573Y03232*
X03573Y03232*
X03574Y03231*
X03574Y03231*
X03574Y03231*
X03574Y0323*
X03574Y0323*
X03575Y0323*
X03575Y03229*
X03575Y03229*
X03575Y03228*
X03575Y03227*
Y03227*
Y03227*
X03575Y03227*
X03575Y03226*
X03575Y03226*
X03575Y03225*
X03574Y03225*
X03574Y03224*
X03574Y03224*
X03574Y03224*
X03574Y03224*
X03573Y03224*
X03573Y03223*
X03573Y03223*
X03572Y03223*
X03572Y03222*
X03572*
X03572Y03222*
X03572*
X03572Y03222*
X03572Y03222*
X03573Y03222*
X03573Y03222*
X03574Y03221*
X03574Y03221*
X03575Y0322*
X03575Y0322*
X03575Y0322*
X03575Y03219*
X03576Y03219*
X03576Y03218*
X03576Y03218*
X03576Y03217*
X03576Y03216*
Y03216*
Y03216*
Y03216*
X03576Y03216*
X03576Y03215*
X03576Y03215*
X03576Y03215*
X03576Y03214*
X03576Y03213*
X03575Y03213*
X03575Y03212*
X03575Y03212*
X03575Y03211*
X03574Y03211*
X03574Y0321*
X03574Y0321*
X03574Y0321*
X03574Y0321*
X03573Y0321*
X03573Y0321*
X03573Y0321*
X03573Y0321*
X03572Y03209*
X03572Y03209*
X03571Y03209*
X03571Y03209*
X0357Y03209*
X0357Y03208*
X03569Y03208*
X03568Y03208*
X03568Y03208*
X03567*
X03567Y03208*
X03567Y03208*
X03567Y03208*
X03566Y03208*
X03566Y03208*
X03565Y03209*
X03564Y03209*
X03564Y03209*
X03563Y03209*
X03563Y0321*
X03562Y0321*
X03562Y0321*
X03562Y0321*
X03562Y0321*
X03562Y0321*
X03562Y03211*
X03562Y03211*
X03561Y03211*
X03561Y03212*
X03561Y03212*
X0356Y03213*
X0356Y03214*
X0356Y03215*
X0356Y03215*
X03563Y03216*
Y03216*
X03563Y03216*
Y03215*
X03563Y03215*
X03563Y03215*
X03563Y03214*
X03564Y03214*
X03564Y03213*
X03564Y03212*
X03565Y03212*
X03565Y03212*
X03565Y03212*
X03565Y03212*
X03566Y03211*
X03566Y03211*
X03566Y03211*
X03567Y03211*
X03568Y03211*
X03568*
X03568Y03211*
X03569Y03211*
X03569Y03211*
X0357Y03211*
X0357Y03211*
X03571Y03212*
X03571Y03212*
X03572Y03212*
X03572Y03213*
X03572Y03213*
X03572Y03213*
X03572Y03214*
X03573Y03214*
X03573Y03215*
X03573Y03216*
Y03216*
Y03216*
Y03216*
X03573Y03216*
X03573Y03217*
X03573Y03217*
X03573Y03218*
X03572Y03218*
X03572Y03219*
X03572Y03219*
X03571Y0322*
X03571Y0322*
X03571Y0322*
X03571Y0322*
X0357Y0322*
X03569Y03221*
X03569Y03221*
X03568Y03221*
X03568*
X03567Y03221*
X03567Y03221*
X03567Y03221*
X03566Y03221*
X03566Y03221*
X03566Y03223*
X03566*
X03567Y03223*
X03567*
X03567Y03223*
X03568Y03223*
X03568Y03223*
X03569Y03224*
X0357Y03224*
X0357Y03224*
X0357Y03224*
X0357Y03224*
X03571Y03225*
X03571Y03225*
X03571Y03225*
X03572Y03226*
X03572Y03227*
X03572Y03227*
Y03227*
Y03228*
Y03228*
X03572Y03228*
X03572Y03228*
X03572Y03229*
X03571Y03229*
X03571Y0323*
X03571Y0323*
X03571Y0323*
X0357Y0323*
X0357Y03231*
X0357Y03231*
X03569Y03231*
X03569Y03231*
X03568Y03231*
X03568Y03231*
X03567*
X03567Y03231*
X03567Y03231*
X03566Y03231*
X03566Y03231*
X03565Y03231*
X03565Y0323*
X03565Y0323*
X03564Y0323*
X03564Y0323*
X03564Y03229*
X03564Y03229*
X03564Y03228*
X03563Y03228*
X03563Y03227*
X0356Y03227*
Y03227*
X0356Y03228*
X0356Y03228*
X0356Y03228*
X0356Y03228*
X0356Y03228*
X03561Y03229*
X03561Y0323*
X03561Y03231*
X03562Y03232*
X03563Y03232*
X03563Y03232*
X03563Y03232*
X03563Y03232*
X03563Y03232*
X03563Y03233*
X03563Y03233*
X03564Y03233*
X03565Y03233*
X03566Y03234*
X03567Y03234*
X03567Y03234*
X03568*
X03568Y03234*
G37*
G36*
X03556Y03217D02*
Y03217D01*
Y03216*
Y03216*
Y03216*
X03555Y03216*
Y03216*
X03555Y03215*
X03555Y03214*
X03555Y03213*
X03555Y03212*
X03555Y03212*
X03555Y03212*
X03555Y03211*
X03554Y03211*
X03554Y03211*
X03554Y0321*
X03553Y0321*
X03553Y03209*
X03552Y03209*
X03552Y03209*
X03552Y03209*
X03552Y03209*
X03551Y03209*
X03551Y03208*
X0355Y03208*
X03549Y03208*
X03548Y03208*
X03548*
X03548Y03208*
X03548Y03208*
X03547Y03208*
X03547Y03208*
X03546Y03209*
X03545Y03209*
X03544Y03209*
X03544Y03209*
X03544Y0321*
X03543Y0321*
Y0321*
X03543Y0321*
X03543Y0321*
X03543Y0321*
X03543Y03211*
X03543Y03211*
X03543Y03211*
X03542Y03211*
X03542Y03212*
X03542Y03212*
X03542Y03213*
X03542Y03213*
X03542Y03214*
X03542Y03214*
X03542Y03215*
Y03216*
X03545Y03216*
Y03216*
Y03216*
Y03216*
X03545Y03216*
Y03215*
X03545Y03215*
X03545Y03215*
X03545Y03214*
X03545Y03213*
X03545Y03213*
X03546Y03212*
X03546Y03212*
X03546Y03212*
X03546Y03212*
X03546Y03212*
X03546Y03212*
X03547Y03211*
X03547Y03211*
X03548Y03211*
X03548Y03211*
X03549*
X03549Y03211*
X03549Y03211*
X03549Y03211*
X0355Y03211*
X0355Y03212*
X03551Y03212*
X03551Y03212*
X03551Y03212*
X03551Y03212*
X03551Y03212*
X03551Y03212*
X03551Y03213*
X03552Y03213*
X03552Y03213*
Y03213*
X03552Y03213*
X03552Y03214*
X03552Y03214*
X03552Y03214*
X03552Y03215*
X03552Y03216*
Y03216*
Y03234*
X03556*
Y03217*
G37*
G36*
X03031Y02914D02*
X03031D01*
X03032Y02914*
X03032Y02914*
X03033Y02914*
X03034Y02913*
X03035Y02913*
X03035*
X03035Y02913*
X03035Y02913*
X03035Y02913*
X03035Y02913*
X03036Y02912*
X03036Y02912*
X03037Y02911*
X03037Y02911*
X03038Y0291*
X03038Y0291*
X03038Y0291*
X03038Y0291*
X03038Y02909*
X03039Y02909*
X03039Y02908*
X03039Y02907*
X03039Y02906*
Y02906*
X03039Y02906*
Y02906*
X03039Y02905*
X03039Y02905*
X03039Y02904*
X03039Y02904*
X03038Y02904*
X03038Y02903*
X03038Y02902*
X03038Y02902*
X03037Y02901*
X03037Y02901*
X03037Y029*
X03036Y029*
X03036Y029*
X03036Y029*
X03036Y029*
X03035Y029*
X03035Y02899*
X03035Y02899*
X03034Y02899*
X03034Y02899*
X03033Y02898*
X03033Y02898*
X03032Y02898*
X03031Y02898*
X0303Y02898*
X03029Y02898*
X03028Y02898*
X03027Y02897*
X03027*
X03027*
X03026*
X03026*
X03026*
X03025Y02898*
X03025Y02898*
X03024Y02898*
X03023Y02898*
X03023Y02898*
X03022Y02898*
X03021Y02898*
X0302Y02898*
X03019Y02899*
X03018Y02899*
X03017Y02899*
X03017Y029*
X03016Y029*
X03016Y029*
X03016Y029*
X03016Y029*
X03016Y02901*
X03015Y02901*
X03015Y02901*
X03015Y02901*
X03015Y02902*
X03014Y02902*
X03014Y02903*
X03014Y02903*
X03014Y02904*
X03013Y02904*
X03013Y02905*
X03013Y02906*
X03013Y02907*
Y02907*
X03013Y02907*
Y02907*
X03013Y02908*
X03013Y02908*
X03014Y02909*
X03014Y0291*
X03014Y02911*
X03014Y02911*
X03015Y02911*
Y02911*
X03015Y02911*
X03015Y02912*
X03015Y02912*
X03016Y02912*
X03017Y02913*
X03017Y02913*
X03018Y02914*
X03019Y02914*
X0302Y02911*
X0302*
X0302*
X03019Y02911*
X03019Y0291*
X03019Y0291*
X03018Y0291*
X03017Y0291*
X03017Y02909*
X03017Y02909*
X03017Y02909*
X03017Y02909*
X03016Y02909*
X03016Y02908*
X03016Y02908*
X03016Y02907*
X03016Y02906*
Y02906*
X03016Y02906*
X03016Y02905*
X03016Y02905*
X03016Y02905*
X03016Y02904*
X03016Y02904*
X03017Y02904*
X03017Y02903*
X03017Y02903*
X03017Y02903*
X03018Y02903*
X03018Y02902*
X03019Y02902*
X0302Y02901*
X0302*
X0302Y02901*
X0302Y02901*
X0302Y02901*
X0302Y02901*
X0302Y02901*
X03021Y02901*
X03021Y02901*
X03022Y02901*
X03022Y02901*
X03022Y02901*
X03023Y02901*
X03024Y02901*
X03024Y02901*
X03025Y02901*
X03025*
X03025Y02901*
X03025Y02901*
X03025Y02901*
X03025Y02901*
X03024Y02902*
X03024Y02902*
X03023Y02903*
X03023Y02903*
X03023Y02903*
X03023Y02904*
X03023Y02904*
X03023Y02904*
X03022Y02905*
X03022Y02905*
X03022Y02906*
X03022Y02907*
Y02907*
X03022Y02907*
X03022Y02907*
X03022Y02908*
X03022Y02909*
X03023Y02909*
X03023Y0291*
X03023Y0291*
X03023Y02911*
X03024Y02911*
X03024Y02912*
X03024Y02912*
X03024Y02912*
X03025Y02912*
X03025Y02912*
X03025Y02912*
X03025Y02912*
X03025Y02913*
X03026Y02913*
X03026Y02913*
X03026Y02913*
X03027Y02913*
X03027Y02914*
X03028Y02914*
X03028Y02914*
X03029Y02914*
X0303Y02914*
X0303Y02914*
X0303*
X0303*
X03031*
X03031*
X03031Y02914*
G37*
G36*
X03038Y02892D02*
X03033Y02888D01*
X03033*
X03033Y02888*
X03033Y02888*
X03033Y02888*
X03032Y02888*
X03032Y02887*
X03031Y02887*
X03031Y02887*
X0303Y02886*
X0303Y02886*
X0303Y02886*
X0303Y02886*
X03029Y02885*
X03029Y02885*
X03029Y02885*
X03028Y02884*
X03028Y02884*
X03028Y02884*
X03028Y02884*
X03028Y02884*
X03028Y02884*
X03028Y02883*
X03027Y02883*
Y02883*
X03027Y02882*
Y02882*
X03027Y02882*
X03027Y02882*
Y02882*
X03027Y02881*
Y02877*
X03038*
Y02874*
X03013*
Y02885*
X03013Y02886*
Y02886*
X03013Y02887*
X03013Y02887*
X03014Y02888*
X03014Y02889*
X03014Y02889*
X03014Y0289*
Y0289*
X03014Y0289*
X03014Y0289*
X03014Y0289*
X03014Y02891*
X03015Y02891*
X03015Y02892*
X03016Y02892*
X03016Y02893*
X03016Y02893*
X03017Y02893*
X03017Y02893*
X03017Y02893*
X03018Y02893*
X03019Y02894*
X03019Y02894*
X0302Y02894*
X0302*
X0302*
X0302*
X03021Y02894*
X03021*
X03021Y02894*
X03022Y02893*
X03022Y02893*
X03023Y02893*
X03024Y02892*
X03024Y02892*
X03025Y02892*
X03025Y02892*
X03025Y02892*
X03025Y02892*
X03025Y02891*
X03025Y02891*
X03025Y02891*
X03026Y02891*
X03026Y0289*
X03026Y0289*
X03026Y02889*
X03026Y02889*
X03027Y02888*
X03027Y02888*
X03027Y02887*
X03027Y02887*
X03027Y02887*
X03027Y02887*
X03027Y02887*
X03027Y02887*
X03028Y02888*
X03028Y02888*
X03028Y02889*
X03028Y02889*
X03028Y02889*
X03029Y02889*
X03029Y02889*
X0303Y0289*
X0303Y0289*
X03031Y02891*
X03032Y02891*
X03038Y02896*
Y02892*
G37*
G36*
X03485Y02778D02*
X03485Y02778D01*
Y02777*
X03485Y02777*
X03485Y02776*
X03485Y02775*
X03485Y02774*
X03485Y02774*
X03485Y02773*
Y02773*
X03485Y02773*
X03485Y02773*
X03484Y02773*
X03484Y02773*
X03484Y02772*
X03483Y02772*
X03483Y02771*
X03482Y02771*
X03482Y02771*
X03482Y02771*
X03482Y0277*
X03481Y0277*
X03481Y0277*
X0348Y0277*
X03479Y0277*
X03478Y0277*
X03478*
X03478*
X03478*
X03478Y0277*
X03478*
X03477Y0277*
X03477Y0277*
X03476Y0277*
X03475Y0277*
X03475Y02771*
X03474Y02771*
X03474Y02771*
X03474Y02771*
X03474Y02772*
X03474Y02772*
X03473Y02772*
X03473Y02772*
X03473Y02772*
X03473Y02773*
X03473Y02773*
X03473Y02773*
X03472Y02774*
X03472Y02774*
X03472Y02775*
X03472Y02775*
X03472Y02776*
X03472Y02777*
X03472Y02777*
X03472Y02776*
X03471Y02776*
X03471Y02776*
X03471Y02775*
X03471Y02775*
X0347Y02775*
X0347Y02775*
X0347Y02774*
X0347Y02774*
X03469Y02774*
X03469Y02773*
X03468Y02773*
X03468Y02772*
X03467Y02772*
X0346Y02768*
Y02772*
X03465Y02775*
X03465*
X03465Y02775*
X03466Y02775*
X03466Y02775*
X03466Y02776*
X03467Y02776*
X03467Y02776*
X03468Y02777*
X03468Y02777*
X03469Y02778*
X03469Y02778*
X03469Y02778*
X03469Y02778*
X0347Y02778*
X0347Y02779*
X0347Y02779*
X03471Y02779*
X03471Y02779*
X03471Y02779*
X03471Y02779*
X03471Y0278*
X03471Y0278*
X03471Y02781*
Y02781*
X03471Y02781*
Y02781*
X03471Y02781*
X03471Y02781*
Y02782*
X03471Y02782*
Y02786*
X0346*
Y0279*
X03485*
Y02778*
G37*
G36*
X03461Y02766D02*
X03461Y02766D01*
X03461Y02766*
X03462Y02766*
X03462Y02766*
X03462*
X03462Y02766*
X03463Y02766*
X03463Y02765*
X03463Y02765*
X03464Y02765*
X03464Y02765*
X03465Y02764*
X03466Y02764*
X03466*
X03466Y02764*
X03466Y02763*
X03466Y02763*
X03467Y02763*
X03467Y02762*
X03468Y02761*
X03469Y02761*
X03469Y0276*
X03469Y0276*
X0347Y02759*
X0347Y02759*
X0347Y02759*
X0347Y02759*
X03471Y02758*
X03471Y02757*
X03472Y02756*
X03473Y02756*
X03474Y02755*
X03474Y02755*
X03474Y02754*
X03475Y02754*
X03475*
X03475Y02754*
X03475Y02754*
X03475Y02754*
X03475Y02754*
X03476Y02753*
X03477Y02753*
X03477Y02753*
X03478Y02753*
X03479Y02753*
X03479*
X03479*
X03479Y02753*
X03479Y02753*
X0348Y02753*
X0348Y02753*
X03481Y02753*
X03481Y02753*
X03482Y02754*
X03482Y02754*
X03482Y02754*
X03482Y02754*
X03482Y02755*
X03483Y02755*
X03483Y02756*
X03483Y02757*
X03483Y02757*
Y02758*
X03483Y02758*
X03483Y02758*
X03483Y02759*
X03483Y02759*
X03482Y0276*
X03482Y0276*
X03482Y02761*
X03481Y02761*
X03481Y02761*
X03481Y02761*
X03481Y02762*
X0348Y02762*
X03479Y02762*
X03479Y02762*
X03478Y02762*
X03478Y02766*
X03478*
X03478*
X03479Y02765*
X03479Y02765*
X03479Y02765*
X03479Y02765*
X0348Y02765*
X03481Y02765*
X03482Y02764*
X03483Y02764*
X03483Y02763*
X03484Y02763*
X03484Y02763*
X03484Y02763*
X03484Y02763*
X03484Y02763*
X03484Y02762*
X03484Y02762*
X03484Y02762*
X03485Y02762*
X03485Y02761*
X03485Y02761*
X03485Y0276*
X03485Y0276*
X03485Y02759*
X03485Y02758*
X03485Y02757*
Y02757*
X03485Y02757*
X03485Y02756*
X03485Y02756*
X03485Y02756*
X03485Y02755*
X03485Y02754*
X03485Y02753*
X03484Y02753*
X03484Y02752*
X03484Y02752*
X03483Y02752*
X03483Y02752*
X03483Y02751*
X03483Y02751*
X03483Y02751*
X03483Y02751*
X03483Y02751*
X03482Y0275*
X03481Y0275*
X0348Y0275*
X0348Y02749*
X03479Y02749*
X03478Y02749*
X03478*
X03478*
X03478Y02749*
X03477Y02749*
X03477Y0275*
X03477Y0275*
X03476Y0275*
X03475Y0275*
X03475Y0275*
X03475Y0275*
X03475Y0275*
X03475Y02751*
X03474Y02751*
X03474Y02751*
X03473Y02752*
X03472Y02752*
X03472Y02752*
X03472Y02752*
X03472Y02753*
X03472Y02753*
X03471Y02753*
X03471Y02754*
X03471Y02754*
X0347Y02754*
X0347Y02755*
X03469Y02755*
X03469Y02756*
X03468Y02756*
X03468Y02757*
X03468Y02757*
X03468Y02757*
X03468Y02757*
X03468Y02757*
X03467Y02758*
X03467Y02758*
X03466Y02759*
X03466Y0276*
X03465Y0276*
X03465Y0276*
X03465Y0276*
X03465Y02761*
X03465Y02761*
X03464Y02761*
X03464Y02761*
X03464Y02761*
X03463Y02762*
Y02749*
X0346*
Y02766*
X0346*
X0346*
X03461*
X03461Y02766*
G37*
G36*
X03383Y02787D02*
X03383Y02787D01*
Y02786*
X03383Y02786*
X03383Y02785*
X03383Y02784*
X03383Y02783*
X03383Y02783*
X03383Y02782*
Y02782*
X03383Y02782*
X03383Y02782*
X03382Y02782*
X03382Y02781*
X03382Y02781*
X03381Y02781*
X03381Y0278*
X0338Y0278*
X0338Y0278*
X0338Y02779*
X0338Y02779*
X03379Y02779*
X03379Y02779*
X03378Y02779*
X03377Y02779*
X03377Y02779*
X03376*
X03376*
X03376*
X03376Y02779*
X03376*
X03376Y02779*
X03375Y02779*
X03374Y02779*
X03373Y02779*
X03373Y0278*
X03372Y0278*
X03372Y0278*
X03372Y0278*
X03372Y02781*
X03372Y02781*
X03372Y02781*
X03371Y02781*
X03371Y02781*
X03371Y02782*
X03371Y02782*
X03371Y02782*
X0337Y02783*
X0337Y02783*
X0337Y02784*
X0337Y02784*
X0337Y02785*
X0337Y02786*
X0337Y02786*
X0337Y02785*
X03369Y02785*
X03369Y02785*
X03369Y02784*
X03369Y02784*
X03368Y02784*
X03368Y02784*
X03368Y02783*
X03368Y02783*
X03367Y02783*
X03367Y02782*
X03366Y02782*
X03366Y02781*
X03365Y02781*
X03358Y02777*
Y02781*
X03363Y02784*
X03363*
X03364Y02784*
X03364Y02784*
X03364Y02784*
X03364Y02785*
X03365Y02785*
X03365Y02785*
X03366Y02786*
X03366Y02786*
X03367Y02786*
X03367Y02787*
X03367Y02787*
X03367Y02787*
X03368Y02787*
X03368Y02788*
X03368Y02788*
X03369Y02788*
X03369Y02788*
X03369Y02788*
X03369Y02788*
X03369Y02789*
X03369Y02789*
X03369Y0279*
Y0279*
X03369Y0279*
Y0279*
X03369Y0279*
X03369Y0279*
Y02791*
X03369Y02791*
Y02795*
X03358*
Y02799*
X03383*
Y02787*
G37*
G36*
X03365Y02771D02*
X03365D01*
X03365Y02771*
X03365*
X03365Y02771*
X03364Y02771*
X03364Y02771*
X03363Y02771*
X03363Y0277*
X03362Y0277*
X03361Y0277*
X03361Y0277*
X03361Y02769*
X03361Y02769*
X03361Y02769*
X03361Y02768*
X03361Y02768*
X0336Y02767*
X0336Y02767*
Y02766*
X0336Y02766*
X0336Y02766*
X03361Y02765*
X03361Y02765*
X03361Y02764*
X03361Y02763*
X03362Y02763*
X03362Y02763*
X03362Y02763*
X03362Y02762*
X03363Y02762*
X03363Y02762*
X03364Y02762*
X03365Y02761*
X03366Y02761*
X03366*
X03366*
X03366*
X03366Y02761*
X03366Y02761*
X03367Y02762*
X03367Y02762*
X03368Y02762*
X03369Y02762*
X03369Y02763*
X03369Y02763*
X03369Y02763*
X0337Y02763*
X0337Y02764*
X0337Y02764*
X0337Y02765*
X0337Y02766*
X0337Y02766*
Y02767*
X0337Y02767*
X0337Y02767*
X0337Y02768*
X0337Y02768*
X0337Y02768*
X03373Y02768*
Y02768*
X03373Y02768*
Y02767*
X03373Y02767*
X03373Y02766*
X03373Y02766*
X03373Y02765*
X03374Y02765*
X03374Y02764*
X03374Y02764*
X03374Y02764*
X03374Y02764*
X03375Y02763*
X03375Y02763*
X03376Y02763*
X03376Y02763*
X03377Y02763*
X03377*
X03377*
X03377*
X03378Y02763*
X03378Y02763*
X03378Y02763*
X03379Y02763*
X03379Y02763*
X0338Y02764*
X0338Y02764*
X0338Y02764*
X0338Y02764*
X0338Y02764*
X03381Y02765*
X03381Y02765*
X03381Y02766*
X03381Y02767*
Y02767*
X03381Y02767*
X03381Y02768*
X03381Y02768*
X03381Y02769*
X0338Y02769*
X0338Y0277*
X0338Y0277*
X0338Y0277*
X03379Y0277*
X03379Y0277*
X03379Y02771*
X03378Y02771*
X03377Y02771*
X03376Y02771*
X03377Y02774*
X03377*
X03377Y02774*
X03377Y02774*
X03378Y02774*
X03378Y02774*
X03378Y02774*
X03379Y02774*
X0338Y02773*
X0338Y02773*
X03381Y02772*
X03382Y02772*
X03382Y02772*
X03382Y02772*
X03382Y02772*
X03382Y02771*
X03382Y02771*
X03382Y02771*
X03383Y0277*
X03383Y0277*
X03383Y02769*
X03383Y02768*
X03384Y02767*
Y02766*
X03384Y02766*
X03383Y02765*
X03383Y02765*
X03383Y02764*
X03383Y02764*
X03383Y02763*
Y02763*
X03383Y02763*
X03382Y02763*
X03382Y02762*
X03382Y02762*
X03382Y02762*
X03381Y02761*
X03381Y02761*
X0338Y0276*
X0338Y0276*
X0338Y0276*
X0338Y0276*
X03379Y0276*
X03379Y0276*
X03378Y02759*
X03378Y02759*
X03377Y02759*
X03377*
X03377*
X03376Y02759*
X03376Y02759*
X03376Y0276*
X03375Y0276*
X03375Y0276*
X03374Y0276*
X03374Y0276*
X03374Y0276*
X03374Y02761*
X03373Y02761*
X03373Y02761*
X03373Y02762*
X03372Y02762*
X03372Y02763*
Y02763*
X03372Y02763*
Y02763*
X03372Y02762*
X03372Y02762*
X03371Y02762*
X03371Y02761*
X03371Y0276*
X0337Y0276*
X0337Y02759*
X0337Y02759*
X03369Y02759*
X03369Y02759*
X03369Y02759*
X03368Y02758*
X03367Y02758*
X03367Y02758*
X03366Y02758*
X03366*
X03365*
X03365*
X03365Y02758*
X03365Y02758*
X03364Y02758*
X03364Y02758*
X03364Y02758*
X03363Y02759*
X03362Y02759*
X03362Y02759*
X03361Y02759*
X03361Y0276*
X0336Y0276*
X0336Y02761*
X0336Y02761*
X0336Y02761*
X0336Y02761*
X0336Y02761*
X03359Y02761*
X03359Y02761*
X03359Y02762*
X03359Y02762*
X03359Y02763*
X03359Y02763*
X03358Y02764*
X03358Y02764*
X03358Y02765*
X03358Y02765*
X03358Y02766*
X03358Y02767*
Y02767*
X03358Y02767*
X03358Y02767*
X03358Y02768*
X03358Y02768*
X03358Y02768*
X03358Y02769*
X03359Y0277*
X03359Y02771*
X03359Y02771*
X03359Y02772*
X0336Y02772*
X0336Y02772*
X0336Y02772*
X0336Y02772*
X0336Y02772*
X0336Y02773*
X03361Y02773*
X03361Y02773*
X03361Y02773*
X03362Y02774*
X03363Y02774*
X03364Y02774*
X03364Y02774*
X03365Y02775*
X03365Y02771*
G37*
G36*
X03273Y02787D02*
X03273Y02787D01*
Y02786*
X03273Y02786*
X03273Y02785*
X03272Y02784*
X03272Y02783*
X03272Y02783*
X03272Y02782*
Y02782*
X03272Y02782*
X03272Y02782*
X03272Y02782*
X03271Y02781*
X03271Y02781*
X03271Y02781*
X0327Y0278*
X0327Y0278*
X0327Y0278*
X03269Y02779*
X03269Y02779*
X03269Y02779*
X03268Y02779*
X03267Y02779*
X03267Y02779*
X03266Y02779*
X03266*
X03266*
X03266*
X03265Y02779*
X03265*
X03265Y02779*
X03264Y02779*
X03264Y02779*
X03263Y02779*
X03262Y0278*
X03262Y0278*
X03261Y0278*
X03261Y0278*
X03261Y02781*
X03261Y02781*
X03261Y02781*
X03261Y02781*
X03261Y02781*
X0326Y02782*
X0326Y02782*
X0326Y02782*
X0326Y02783*
X0326Y02783*
X03259Y02784*
X03259Y02784*
X03259Y02785*
X03259Y02786*
X03259Y02786*
X03259Y02785*
X03259Y02785*
X03259Y02785*
X03258Y02784*
X03258Y02784*
X03258Y02784*
X03258Y02784*
X03258Y02783*
X03257Y02783*
X03257Y02783*
X03256Y02782*
X03256Y02782*
X03255Y02781*
X03254Y02781*
X03248Y02777*
Y02781*
X03253Y02784*
X03253*
X03253Y02784*
X03253Y02784*
X03253Y02784*
X03254Y02785*
X03254Y02785*
X03255Y02785*
X03255Y02786*
X03256Y02786*
X03256Y02786*
X03256Y02787*
X03256Y02787*
X03257Y02787*
X03257Y02787*
X03257Y02788*
X03258Y02788*
X03258Y02788*
X03258Y02788*
X03258Y02788*
X03258Y02788*
X03258Y02789*
X03258Y02789*
X03259Y0279*
Y0279*
X03259Y0279*
Y0279*
X03259Y0279*
X03259Y0279*
Y02791*
X03259Y02791*
Y02795*
X03248*
Y02799*
X03273*
Y02787*
G37*
G36*
X03273Y02764D02*
Y02762D01*
X03256*
Y02758*
X03254*
Y02762*
X03248*
Y02765*
X03254*
Y02776*
X03256*
X03273Y02764*
G37*
G36*
X03121Y02839D02*
X03121Y02839D01*
X03122Y02839*
X03122Y02839*
X03123Y02839*
X03123Y02839*
X03124Y02839*
X03125Y02838*
X03125Y02838*
X03126Y02838*
X03126Y02838*
X03126Y02838*
X03127Y02837*
X03127Y02837*
X03127Y02837*
X03127Y02837*
X03127Y02837*
X03128Y02836*
X03128Y02836*
X03128Y02835*
X03128Y02835*
X03129Y02834*
X03129Y02834*
X03129Y02833*
X03129Y02832*
X03129Y02832*
X03129Y02831*
Y02831*
X03129Y0283*
X03129Y0283*
X03129Y0283*
X03129Y02829*
X03129Y02829*
X03129Y02828*
X03129Y02827*
X03128Y02827*
X03128Y02826*
X03128Y02826*
X03128Y02825*
X03127Y02825*
X03127Y02825*
X03127Y02825*
X03127Y02825*
X03127Y02825*
X03127Y02825*
X03126Y02824*
X03126Y02824*
X03125Y02824*
X03125Y02823*
X03124Y02823*
X03123Y02823*
X03122Y02823*
X03122Y02826*
X03122*
X03122*
X03122Y02826*
X03123Y02826*
X03123Y02826*
X03124Y02826*
X03124Y02827*
X03125Y02827*
X03125Y02827*
X03126Y02828*
X03126Y02828*
X03126Y02828*
X03126Y02828*
X03126Y02829*
X03127Y02829*
X03127Y0283*
X03127Y0283*
X03127Y02831*
Y02831*
X03127Y02831*
X03127Y02832*
X03127Y02832*
X03126Y02833*
X03126Y02833*
X03126Y02834*
X03126Y02834*
X03125Y02835*
X03125*
X03125Y02835*
X03125Y02835*
X03125Y02835*
X03124Y02835*
X03123Y02836*
X03123Y02836*
X03122Y02836*
X03121Y02836*
X03121*
X03121*
X0312*
X0312Y02836*
X0312*
X0312Y02836*
X03119Y02836*
X03119Y02836*
X03118Y02836*
X03117Y02835*
X03117Y02835*
X03116Y02835*
X03116Y02834*
X03116Y02834*
X03116Y02834*
X03116Y02833*
X03115Y02832*
X03115Y02832*
X03115Y02831*
Y02831*
X03115Y0283*
X03115Y0283*
X03115Y0283*
X03115Y02829*
X03116Y02829*
X03116Y02828*
X03116Y02828*
X03116Y02828*
X03116Y02828*
X03116Y02827*
X03116Y02827*
X03117Y02827*
X03117Y02827*
X03118Y02826*
X03117Y02823*
X03104Y02826*
Y02838*
X03107*
Y02828*
X03114Y02827*
X03114Y02827*
X03114Y02827*
X03114Y02827*
X03114Y02827*
X03114Y02828*
X03113Y02828*
X03113Y02828*
X03113Y02829*
X03113Y0283*
X03112Y02831*
X03112Y02832*
Y02832*
X03112Y02832*
X03112Y02833*
X03112Y02833*
X03112Y02833*
X03113Y02834*
X03113Y02834*
X03113Y02835*
X03113Y02835*
X03114Y02836*
X03114Y02836*
X03114Y02837*
X03115Y02837*
X03115Y02837*
X03115Y02837*
X03115Y02837*
X03115Y02838*
X03115Y02838*
X03116Y02838*
X03116Y02838*
X03116Y02838*
X03117Y02839*
X03117Y02839*
X03118Y02839*
X03118Y02839*
X03119Y02839*
X03119Y02839*
X0312Y02839*
X0312Y0284*
X03121*
X03121*
X03121*
X03121Y02839*
G37*
G36*
X03129Y02817D02*
X03124Y02813D01*
X03124*
X03124Y02813*
X03124Y02813*
X03123Y02813*
X03123Y02813*
X03123Y02813*
X03122Y02812*
X03121Y02812*
X03121Y02811*
X0312Y02811*
X0312Y02811*
X0312Y02811*
X0312Y02811*
X0312Y0281*
X03119Y0281*
X03119Y0281*
X03119Y02809*
X03119Y02809*
X03119Y02809*
X03118Y02809*
X03118Y02809*
X03118Y02808*
X03118Y02808*
Y02808*
X03118Y02808*
Y02808*
X03118Y02807*
X03118Y02807*
Y02807*
X03118Y02806*
Y02802*
X03129*
Y02799*
X03104*
Y0281*
X03104Y02811*
Y02811*
X03104Y02812*
X03104Y02813*
X03104Y02813*
X03104Y02814*
X03104Y02815*
X03104Y02815*
Y02815*
X03105Y02815*
X03105Y02815*
X03105Y02816*
X03105Y02816*
X03105Y02816*
X03106Y02817*
X03106Y02817*
X03107Y02818*
X03107Y02818*
X03107Y02818*
X03108Y02818*
X03108Y02818*
X03109Y02819*
X03109Y02819*
X0311Y02819*
X03111Y02819*
X03111*
X03111*
X03111*
X03111Y02819*
X03111*
X03112Y02819*
X03112Y02819*
X03113Y02818*
X03114Y02818*
X03114Y02818*
X03115Y02817*
X03115Y02817*
X03115Y02817*
X03115Y02817*
X03116Y02817*
X03116Y02817*
X03116Y02816*
X03116Y02816*
X03116Y02816*
X03116Y02815*
X03117Y02815*
X03117Y02815*
X03117Y02814*
X03117Y02814*
X03117Y02813*
X03117Y02812*
X03118Y02812*
X03118Y02812*
X03118Y02812*
X03118Y02812*
X03118Y02813*
X03118Y02813*
X03119Y02814*
X03119Y02814*
X03119Y02814*
X03119Y02814*
X03119Y02814*
X0312Y02815*
X0312Y02815*
X03121Y02816*
X03121Y02816*
X03122Y02817*
X03129Y02821*
Y02817*
G37*
G36*
X03568Y01544D02*
X03569D01*
X03569Y01544*
X0357Y01544*
X0357Y01544*
X03571Y01543*
X03572Y01543*
X03574Y01543*
X03575Y01542*
X03575*
X03575Y01542*
X03575Y01542*
X03575Y01542*
X03575Y01542*
X03576Y01542*
X03576Y01541*
X03577Y01541*
X03578Y0154*
X03579Y01539*
X03579Y01538*
Y01538*
X03579Y01538*
X03579Y01538*
X03579Y01538*
X0358Y01537*
X0358Y01537*
X0358Y01537*
X0358Y01536*
X0358Y01536*
X0358Y01535*
X0358Y01534*
X03581Y01533*
X03581Y01532*
Y01532*
X03581Y01531*
X03581Y01531*
X03581Y01531*
X03581Y0153*
X0358Y0153*
X0358Y01529*
X0358Y01528*
X0358Y01527*
X03579Y01527*
X03579Y01526*
X03579Y01526*
X03579Y01526*
X03579Y01526*
X03579Y01525*
X03578Y01525*
X03578Y01525*
X03578Y01525*
X03578Y01524*
X03577Y01524*
X03577Y01524*
X03577Y01524*
X03576Y01523*
X03576Y01523*
X03575Y01523*
X03575Y01522*
X03573Y01522*
X03573Y01525*
X03573*
X03573Y01525*
X03573Y01525*
X03573Y01525*
X03573Y01526*
X03574Y01526*
X03574Y01526*
X03575Y01526*
X03575Y01527*
X03576Y01527*
X03577Y01528*
X03577Y01528*
X03577Y01528*
X03577Y01529*
X03577Y01529*
X03577Y0153*
X03578Y0153*
X03578Y01531*
X03578Y01532*
Y01532*
X03578Y01533*
Y01533*
X03578Y01533*
X03578Y01534*
X03578Y01535*
X03577Y01535*
X03577Y01536*
X03576Y01537*
Y01537*
X03576Y01537*
X03576Y01537*
X03576Y01538*
X03575Y01538*
X03575Y01538*
X03574Y01539*
X03574Y01539*
X03573Y0154*
X03573*
X03573Y0154*
X03572Y0154*
X03572Y0154*
X03572Y0154*
X03572Y0154*
X03571Y0154*
X0357Y0154*
X0357Y0154*
X03569Y0154*
X03568Y0154*
X03568*
X03568*
X03568*
X03567*
X03567Y0154*
X03567*
X03566Y0154*
X03566Y0154*
X03565Y0154*
X03564Y0154*
X03563Y0154*
X03562Y01539*
X03562*
X03562Y01539*
X03562Y01539*
X03562Y01539*
X03561Y01539*
X03561Y01539*
X0356Y01538*
X0356Y01538*
X03559Y01537*
X03559Y01537*
Y01537*
X03559Y01537*
X03559Y01536*
X03558Y01536*
X03558Y01536*
X03558Y01535*
X03558Y01535*
X03558Y01534*
X03558Y01533*
X03557Y01532*
Y01532*
X03558Y01532*
Y01532*
X03558Y01531*
X03558Y01531*
X03558Y0153*
X03558Y01529*
X03559Y01528*
X03559Y01528*
X03559Y01528*
X03559Y01528*
X03559Y01527*
X0356Y01527*
X0356Y01527*
X03561Y01526*
X03562Y01526*
X03563Y01525*
X03564Y01525*
X03563Y01522*
X03563*
X03563Y01522*
X03563Y01522*
X03562Y01522*
X03562Y01522*
X03562Y01522*
X03561Y01522*
X03561Y01522*
X0356Y01523*
X03559Y01524*
X03558Y01524*
X03557Y01525*
X03557Y01525*
X03557Y01525*
X03557Y01526*
X03557Y01526*
X03556Y01526*
X03556Y01526*
X03556Y01526*
X03556Y01527*
X03556Y01527*
X03556Y01528*
X03555Y01528*
X03555Y01529*
X03555Y01529*
X03555Y01531*
X03555Y01531*
X03555Y01532*
Y01532*
X03555Y01533*
Y01533*
X03555Y01533*
X03555Y01534*
X03555Y01534*
X03555Y01535*
X03555Y01537*
X03556Y01538*
X03556Y01538*
X03556Y01539*
X03556Y01539*
X03556Y01539*
X03556Y01539*
X03557Y01539*
X03557Y0154*
X03558Y0154*
X03558Y01541*
X03559Y01541*
X0356Y01542*
X03561Y01543*
X03561*
X03561Y01543*
X03561Y01543*
X03562Y01543*
X03562Y01543*
X03562Y01543*
X03563Y01543*
X03563Y01543*
X03564Y01543*
X03564Y01543*
X03565Y01544*
X03566Y01544*
X03568Y01544*
X03568*
X03568*
X03568*
X03568Y01544*
G37*
G36*
X03574Y01516D02*
X03574Y01516D01*
X03574Y01516*
X03574Y01516*
X03574Y01516*
X03575Y01515*
X03575Y01515*
X03575Y01514*
X03576Y01513*
X03576Y01513*
X03577Y01512*
X03577Y01512*
X03577Y01512*
X03577Y01512*
X03578Y01511*
X03578Y01511*
X03579Y0151*
X03579Y0151*
X0358Y01509*
X0358Y01509*
Y01507*
X03555*
Y0151*
X03575*
X03575Y0151*
X03575Y0151*
X03574Y01511*
X03574Y01511*
X03574Y01511*
X03573Y01512*
X03573Y01513*
X03573Y01513*
Y01513*
X03573Y01513*
X03572Y01513*
X03572Y01514*
X03572Y01514*
X03572Y01515*
X03572Y01515*
X03571Y01516*
X03571Y01516*
X03574*
Y01516*
G37*
G36*
X03562Y01496D02*
X03562D01*
X03562Y01496*
X03562*
X03562Y01496*
X03561Y01496*
X03561Y01496*
X0356Y01495*
X03559Y01495*
X03559Y01495*
X03558Y01494*
X03558Y01494*
X03558Y01494*
X03558Y01494*
X03558Y01493*
X03558Y01493*
X03557Y01492*
X03557Y01492*
X03557Y01491*
Y01491*
X03557Y01491*
X03557Y0149*
X03557Y0149*
X03558Y01489*
X03558Y01489*
X03558Y01488*
X03559Y01487*
X03559Y01487*
X03559Y01487*
X03559Y01487*
X0356Y01487*
X0356Y01486*
X03561Y01486*
X03562Y01486*
X03562Y01486*
X03562*
X03563*
X03563*
X03563Y01486*
X03563Y01486*
X03564Y01486*
X03564Y01486*
X03565Y01487*
X03565Y01487*
X03566Y01487*
X03566Y01487*
X03566Y01488*
X03566Y01488*
X03567Y01488*
X03567Y01489*
X03567Y01489*
X03567Y0149*
X03567Y01491*
Y01491*
X03567Y01491*
X03567Y01492*
X03567Y01492*
X03567Y01493*
X03567Y01493*
X0357Y01493*
Y01493*
X0357Y01492*
Y01492*
X0357Y01492*
X0357Y01491*
X0357Y0149*
X0357Y0149*
X0357Y01489*
X03571Y01489*
X03571Y01489*
X03571Y01488*
X03571Y01488*
X03572Y01488*
X03572Y01488*
X03572Y01487*
X03573Y01487*
X03574Y01487*
X03574*
X03574*
X03574*
X03574Y01487*
X03575Y01487*
X03575Y01487*
X03576Y01488*
X03576Y01488*
X03577Y01488*
X03577Y01488*
X03577Y01488*
X03577Y01489*
X03577Y01489*
X03578Y01489*
X03578Y0149*
X03578Y01491*
X03578Y01491*
Y01491*
X03578Y01492*
X03578Y01492*
X03578Y01493*
X03577Y01493*
X03577Y01494*
X03577Y01494*
X03577Y01494*
X03577Y01494*
X03576Y01495*
X03576Y01495*
X03575Y01495*
X03575Y01495*
X03574Y01496*
X03573Y01496*
X03574Y01499*
X03574*
X03574Y01499*
X03574Y01499*
X03574Y01499*
X03575Y01499*
X03575Y01499*
X03576Y01498*
X03576Y01498*
X03577Y01498*
X03578Y01497*
X03579Y01496*
X03579Y01496*
X03579Y01496*
X03579Y01496*
X03579Y01496*
X03579Y01496*
X03579Y01495*
X0358Y01495*
X0358Y01494*
X0358Y01493*
X0358Y01492*
X0358Y01492*
Y01491*
X0358Y01491*
X0358Y0149*
X0358Y01489*
X0358Y01489*
X0358Y01488*
X03579Y01488*
Y01487*
X03579Y01487*
X03579Y01487*
X03579Y01487*
X03579Y01487*
X03579Y01486*
X03578Y01486*
X03578Y01485*
X03577Y01485*
X03577Y01485*
X03577Y01485*
X03576Y01485*
X03576Y01484*
X03576Y01484*
X03575Y01484*
X03574Y01484*
X03574Y01484*
X03574*
X03574*
X03573Y01484*
X03573Y01484*
X03572Y01484*
X03572Y01484*
X03571Y01484*
X03571Y01485*
X03571Y01485*
X03571Y01485*
X0357Y01485*
X0357Y01485*
X0357Y01486*
X03569Y01486*
X03569Y01487*
X03569Y01487*
Y01487*
X03569Y01487*
Y01487*
X03569Y01487*
X03568Y01487*
X03568Y01486*
X03568Y01486*
X03568Y01485*
X03567Y01484*
X03567Y01484*
X03566Y01484*
X03566Y01484*
X03566Y01484*
X03565Y01483*
X03565Y01483*
X03564Y01483*
X03563Y01483*
X03562Y01483*
X03562*
X03562*
X03562*
X03562Y01483*
X03562Y01483*
X03561Y01483*
X03561Y01483*
X03561Y01483*
X0356Y01483*
X03559Y01483*
X03559Y01484*
X03558Y01484*
X03558Y01484*
X03557Y01485*
X03557Y01485*
X03557Y01485*
X03557Y01485*
X03557Y01485*
X03557Y01486*
X03556Y01486*
X03556Y01486*
X03556Y01486*
X03556Y01487*
X03556Y01487*
X03555Y01488*
X03555Y01488*
X03555Y01489*
X03555Y01489*
X03555Y0149*
X03555Y0149*
X03555Y01491*
Y01491*
X03555Y01492*
X03555Y01492*
X03555Y01492*
X03555Y01493*
X03555Y01493*
X03555Y01494*
X03555Y01495*
X03556Y01495*
X03556Y01496*
X03556Y01496*
X03557Y01497*
X03557Y01497*
X03557Y01497*
X03557Y01497*
X03557Y01497*
X03557Y01497*
X03557Y01497*
X03558Y01498*
X03558Y01498*
X03559Y01498*
X0356Y01499*
X03561Y01499*
X03561Y01499*
X03562Y01499*
X03562Y01496*
G37*
G36*
X01993Y02326D02*
X01986Y02321D01*
X01986*
X01986Y02321*
X01985Y02321*
X01985Y02321*
X01985Y02321*
X01984Y0232*
X01984Y0232*
X01983Y0232*
X01982Y02319*
X01981Y02319*
X01981*
X01981Y02319*
X01982Y02319*
X01982Y02318*
X01982Y02318*
X01983Y02318*
X01983Y02317*
X01984Y02317*
X01985Y02316*
X01986Y02316*
X01993Y02311*
Y02307*
X01979Y02317*
X01968*
Y0232*
X01979*
X01993Y0233*
Y02326*
G37*
G36*
X01969Y02306D02*
X01969Y02306D01*
X01969Y02306*
X0197Y02306*
X0197Y02305*
X0197*
X0197Y02305*
X0197Y02305*
X01971Y02305*
X01971Y02305*
X01972Y02305*
X01972Y02304*
X01973Y02304*
X01973Y02303*
X01973*
X01974Y02303*
X01974Y02303*
X01974Y02303*
X01975Y02302*
X01975Y02302*
X01976Y02301*
X01976Y023*
X01977Y02299*
X01977Y02299*
X01977Y02299*
X01978Y02299*
X01978Y02299*
X01978Y02298*
X01978Y02298*
X01979Y02297*
X0198Y02296*
X01981Y02295*
X01981Y02295*
X01982Y02294*
X01982Y02294*
X01983Y02294*
X01983*
X01983Y02294*
X01983Y02294*
X01983Y02294*
X01983Y02293*
X01984Y02293*
X01984Y02293*
X01985Y02293*
X01986Y02292*
X01986Y02292*
X01986*
X01986*
X01987Y02292*
X01987Y02292*
X01987Y02292*
X01988Y02293*
X01988Y02293*
X01989Y02293*
X0199Y02294*
X0199Y02294*
X0199Y02294*
X0199Y02294*
X0199Y02295*
X0199Y02295*
X01991Y02296*
X01991Y02296*
X01991Y02297*
Y02297*
X01991Y02297*
X01991Y02298*
X01991Y02298*
X0199Y02299*
X0199Y023*
X0199Y023*
X01989Y02301*
X01989Y02301*
X01989Y02301*
X01989Y02301*
X01988Y02301*
X01988Y02302*
X01987Y02302*
X01987Y02302*
X01986Y02302*
X01986Y02305*
X01986*
X01986*
X01986Y02305*
X01987Y02305*
X01987Y02305*
X01987Y02305*
X01988Y02305*
X01989Y02304*
X0199Y02304*
X01991Y02303*
X01991Y02303*
X01991Y02303*
X01992Y02303*
X01992Y02303*
X01992Y02303*
X01992Y02302*
X01992Y02302*
X01992Y02302*
X01992Y02302*
X01992Y02301*
X01993Y02301*
X01993Y023*
X01993Y023*
X01993Y02299*
X01993Y02298*
X01993Y02298*
X01993Y02297*
Y02297*
X01993Y02296*
X01993Y02296*
X01993Y02296*
X01993Y02295*
X01993Y02295*
X01993Y02294*
X01993Y02293*
X01992Y02293*
X01992Y02292*
X01992Y02292*
X01991Y02291*
X01991Y02291*
X01991Y02291*
X01991Y02291*
X01991Y02291*
X01991Y02291*
X01991Y02291*
X0199Y0229*
X01989Y0229*
X01988Y02289*
X01987Y02289*
X01987Y02289*
X01986Y02289*
X01986*
X01986*
X01986Y02289*
X01985Y02289*
X01985Y02289*
X01984Y02289*
X01984Y0229*
X01983Y0229*
X01983Y0229*
X01983Y0229*
X01983Y0229*
X01982Y0229*
X01982Y02291*
X01981Y02291*
X01981Y02291*
X0198Y02292*
X0198Y02292*
X0198Y02292*
X0198Y02292*
X01979Y02293*
X01979Y02293*
X01979Y02293*
X01978Y02294*
X01978Y02294*
X01978Y02294*
X01977Y02295*
X01977Y02295*
X01976Y02296*
X01976Y02297*
X01976Y02297*
X01976Y02297*
X01976Y02297*
X01975Y02297*
X01975Y02297*
X01975Y02298*
X01974Y02299*
X01973Y02299*
X01973Y023*
X01973Y023*
X01973Y023*
X01973Y023*
X01972Y023*
X01972Y023*
X01972Y02301*
X01972Y02301*
X01971Y02301*
Y02289*
X01968*
Y02306*
X01968*
X01968*
X01968*
X01969Y02306*
G37*
G36*
X02765Y01452D02*
X02762D01*
Y01471*
X02762Y01471*
X02761Y01471*
X02761Y01471*
X02761Y01471*
X0276Y0147*
X0276Y0147*
X02759Y0147*
X02759Y01469*
X02759*
X02759Y01469*
X02758Y01469*
X02758Y01469*
X02758Y01469*
X02757Y01468*
X02756Y01468*
X02756Y01468*
X02755Y01468*
Y01471*
X02755*
X02755Y01471*
X02756Y01471*
X02756Y01471*
X02756Y01471*
X02756Y01471*
X02757Y01472*
X02758Y01472*
X02758Y01472*
X02759Y01473*
X0276Y01474*
X0276Y01474*
X0276Y01474*
X0276Y01474*
X02761Y01474*
X02761Y01475*
X02761Y01475*
X02762Y01476*
X02762Y01476*
X02763Y01477*
X02765*
Y01452*
G37*
G36*
X02739Y01477D02*
X0274Y01477D01*
X02741Y01477*
X02741Y01477*
X02742Y01477*
X02742*
X02742Y01477*
X02742*
X02742Y01476*
X02743Y01476*
X02743Y01476*
X02744Y01476*
X02744Y01476*
X02745Y01475*
X02746Y01475*
X02746*
X02746Y01475*
X02746Y01474*
X02746Y01474*
X02747Y01474*
X02747Y01473*
X02748Y01472*
X02748Y01471*
X02749Y0147*
Y0147*
X02749Y0147*
X02749Y0147*
X02749Y0147*
X02749Y0147*
X02749Y01469*
X02749Y01469*
X02749Y01469*
X02749Y01468*
X02749Y01468*
X02749Y01467*
X0275Y01466*
X0275Y01464*
Y01464*
Y01464*
Y01464*
Y01464*
X0275Y01464*
Y01463*
X0275Y01463*
X02749Y01462*
X02749Y01461*
X02749Y0146*
X02749Y01459*
Y01459*
X02749Y01459*
X02749Y01459*
X02749Y01459*
X02749Y01459*
X02748Y01458*
X02748Y01458*
X02748Y01457*
X02748Y01456*
X02747Y01456*
X02747Y01456*
X02747Y01455*
X02747Y01455*
X02747Y01455*
X02746Y01455*
X02746Y01454*
X02745Y01454*
X02745Y01453*
X02745Y01453*
X02745Y01453*
X02744Y01453*
X02744Y01453*
X02744Y01453*
X02743Y01453*
X02743Y01452*
X02742Y01452*
X02742*
X02742Y01452*
X02741Y01452*
X02741Y01452*
X0274Y01452*
X0274Y01452*
X02739Y01452*
X02738Y01452*
X02729*
Y01477*
X02739*
X02739Y01477*
G37*
G36*
X01844Y02529D02*
X01844Y02529D01*
X01844Y02529*
X01845Y02529*
X01845Y02529*
X01846Y02529*
X01847Y02528*
X01847Y02528*
X01848Y02528*
X01848Y02528*
X01849Y02527*
X01849Y02527*
X01849Y02527*
X01849Y02527*
X01849Y02527*
X01849Y02527*
X01849Y02526*
X0185Y02526*
X0185Y02525*
X01851Y02524*
X01851Y02523*
X01851Y02523*
X01851Y02522*
Y02522*
Y02522*
X01851Y02522*
X01851Y02521*
X01851Y02521*
X01851Y0252*
X01851Y0252*
X0185Y02519*
X0185Y02519*
X0185Y02519*
X0185Y02519*
X0185Y02518*
X0185Y02518*
X01849Y02517*
X01849Y02517*
X01848Y02516*
X01848Y02516*
X01848Y02516*
X01848Y02516*
X01847Y02515*
X01847Y02515*
X01847Y02515*
X01846Y02514*
X01846Y02514*
X01846Y02514*
X01845Y02513*
X01845Y02513*
X01844Y02512*
X01843Y02512*
X01843Y02512*
X01843Y02512*
X01843Y02511*
X01843Y02511*
X01843Y02511*
X01842Y0251*
X01841Y0251*
X01841Y02509*
X0184Y02509*
X0184Y02509*
X0184Y02509*
X0184Y02508*
X0184Y02508*
X0184Y02508*
X01839Y02508*
X01839Y02507*
X01839Y02507*
X01851*
Y02504*
X01834*
Y02504*
Y02504*
Y02504*
X01834Y02505*
X01834Y02505*
X01834Y02505*
X01834Y02506*
X01835Y02506*
Y02506*
X01835Y02506*
X01835Y02506*
X01835Y02507*
X01835Y02507*
X01835Y02508*
X01836Y02508*
X01836Y02509*
X01837Y02509*
Y02509*
X01837Y02509*
X01837Y0251*
X01837Y0251*
X01838Y0251*
X01838Y02511*
X01839Y02512*
X0184Y02512*
X01841Y02513*
X01841Y02513*
X01841Y02513*
X01841Y02514*
X01841Y02514*
X01842Y02514*
X01842Y02514*
X01843Y02515*
X01844Y02516*
X01845Y02517*
X01845Y02517*
X01846Y02518*
X01846Y02518*
X01846Y02519*
Y02519*
X01846Y02519*
X01846Y02519*
X01847Y02519*
X01847Y02519*
X01847Y0252*
X01847Y0252*
X01848Y02521*
X01848Y02522*
X01848Y02522*
Y02522*
Y02522*
X01848Y02523*
X01848Y02523*
X01848Y02523*
X01847Y02524*
X01847Y02524*
X01847Y02525*
X01846Y02525*
X01846Y02525*
X01846Y02526*
X01846Y02526*
X01845Y02526*
X01845Y02526*
X01844Y02526*
X01844Y02527*
X01843Y02527*
X01843*
X01843Y02527*
X01842Y02527*
X01842Y02527*
X01841Y02526*
X0184Y02526*
X0184Y02526*
X01839Y02525*
X01839Y02525*
X01839Y02525*
X01839Y02525*
X01839Y02524*
X01838Y02524*
X01838Y02523*
X01838Y02522*
X01838Y02522*
X01835Y02522*
Y02522*
Y02522*
X01835Y02522*
X01835Y02523*
X01835Y02523*
X01835Y02523*
X01835Y02524*
X01836Y02525*
X01836Y02526*
X01837Y02527*
X01837Y02527*
X01837Y02527*
X01837Y02527*
X01837Y02527*
X01837Y02528*
X01838Y02528*
X01838Y02528*
X01838Y02528*
X01838Y02528*
X01839Y02528*
X01839Y02528*
X0184Y02529*
X0184Y02529*
X01841Y02529*
X01842Y02529*
X01842Y02529*
X01843Y02529*
X01843*
X01844Y02529*
G37*
G36*
X01821Y02529D02*
X01822Y02529D01*
X01822Y02529*
X01823Y02529*
X01824Y02529*
X01824*
X01824Y02529*
X01824*
X01824Y02529*
X01824Y02529*
X01825Y02528*
X01826Y02528*
X01826Y02528*
X01827Y02527*
X01827Y02527*
X01827*
X01827Y02527*
X01828Y02527*
X01828Y02526*
X01828Y02526*
X01829Y02525*
X01829Y02524*
X0183Y02524*
X0183Y02523*
Y02523*
X0183Y02522*
X0183Y02522*
X0183Y02522*
X01831Y02522*
X01831Y02522*
X01831Y02521*
X01831Y02521*
X01831Y0252*
X01831Y0252*
X01831Y02519*
X01831Y02518*
X01831Y02517*
Y02517*
Y02517*
Y02516*
Y02516*
X01831Y02516*
Y02516*
X01831Y02515*
X01831Y02514*
X01831Y02513*
X01831Y02512*
X01831Y02512*
Y02512*
X01831Y02511*
X01831Y02511*
X01831Y02511*
X0183Y02511*
X0183Y0251*
X0183Y0251*
X0183Y02509*
X01829Y02508*
X01829Y02508*
X01829Y02508*
X01829Y02508*
X01829Y02507*
X01828Y02507*
X01828Y02507*
X01828Y02506*
X01827Y02506*
X01827Y02506*
X01827Y02506*
X01826Y02505*
X01826Y02505*
X01826Y02505*
X01825Y02505*
X01825Y02505*
X01824Y02505*
X01824Y02504*
X01824*
X01823Y02504*
X01823Y02504*
X01822Y02504*
X01822Y02504*
X01821Y02504*
X0182Y02504*
X0182Y02504*
X01811*
Y02529*
X0182*
X01821Y02529*
G37*
G36*
X01935Y02843D02*
Y02843D01*
Y02842*
Y02842*
Y02842*
X01935Y02842*
Y02841*
X01935Y02841*
X01934Y0284*
X01934Y02839*
X01934Y02838*
X01934Y02838*
X01934Y02838*
X01934Y02837*
X01934Y02837*
X01933Y02837*
X01933Y02836*
X01933Y02836*
X01932Y02835*
X01931Y02835*
X01931Y02835*
X01931Y02835*
X01931Y02835*
X0193Y02835*
X0193Y02834*
X01929Y02834*
X01928Y02834*
X01928Y02834*
X01927*
X01927Y02834*
X01927Y02834*
X01926Y02834*
X01926Y02834*
X01925Y02835*
X01924Y02835*
X01924Y02835*
X01923Y02835*
X01923Y02836*
X01922Y02836*
Y02836*
X01922Y02836*
X01922Y02836*
X01922Y02836*
X01922Y02837*
X01922Y02837*
X01922Y02837*
X01922Y02837*
X01921Y02838*
X01921Y02838*
X01921Y02839*
X01921Y02839*
X01921Y0284*
X01921Y0284*
X01921Y02841*
Y02842*
X01924Y02842*
Y02842*
Y02842*
Y02842*
X01924Y02842*
Y02841*
X01924Y02841*
X01924Y02841*
X01924Y0284*
X01924Y02839*
X01925Y02839*
X01925Y02838*
X01925Y02838*
X01925Y02838*
X01925Y02838*
X01925Y02838*
X01926Y02838*
X01926Y02837*
X01926Y02837*
X01927Y02837*
X01928Y02837*
X01928*
X01928Y02837*
X01928Y02837*
X01929Y02837*
X01929Y02837*
X01929Y02837*
X0193Y02838*
X0193Y02838*
X0193Y02838*
X0193Y02838*
X0193Y02838*
X0193Y02838*
X01931Y02839*
X01931Y02839*
X01931Y02839*
Y02839*
X01931Y02839*
X01931Y0284*
X01931Y0284*
X01931Y0284*
X01931Y02841*
X01931Y02842*
Y02842*
Y0286*
X01935*
Y02843*
G37*
G36*
X01952Y02843D02*
X01955D01*
Y02841*
X01952*
Y02835*
X01949*
Y02841*
X01938*
Y02843*
X01949Y0286*
X01952*
Y02843*
G37*
G36*
X01777Y02318D02*
X01777D01*
X01778Y02318*
X01778Y02318*
X01779Y02318*
X0178Y02318*
X01781Y02318*
X01782Y02317*
X01783Y02317*
X01783*
X01783Y02317*
X01784Y02317*
X01784Y02317*
X01784Y02316*
X01784Y02316*
X01785Y02316*
X01786Y02315*
X01786Y02314*
X01787Y02314*
X01788Y02313*
Y02313*
X01788Y02313*
X01788Y02312*
X01788Y02312*
X01788Y02312*
X01788Y02312*
X01788Y02311*
X01789Y02311*
X01789Y0231*
X01789Y0231*
X01789Y02309*
X01789Y02308*
X01789Y02307*
Y02306*
X01789Y02306*
X01789Y02306*
X01789Y02305*
X01789Y02305*
X01789Y02304*
X01789Y02303*
X01789Y02302*
X01788Y02302*
X01788Y02301*
X01788Y02301*
X01787Y023*
X01787Y023*
X01787Y023*
X01787Y023*
X01787Y023*
X01787Y023*
X01787Y02299*
X01786Y02299*
X01786Y02299*
X01786Y02298*
X01785Y02298*
X01785Y02298*
X01784Y02298*
X01784Y02297*
X01783Y02297*
X01782Y02297*
X01781Y023*
X01781*
X01781Y023*
X01781Y023*
X01782Y023*
X01782Y023*
X01782Y023*
X01783Y02301*
X01783Y02301*
X01784Y02301*
X01785Y02302*
X01785Y02302*
X01785Y02303*
X01785Y02303*
X01786Y02303*
X01786Y02304*
X01786Y02304*
X01786Y02305*
X01786Y02306*
X01787Y02307*
Y02307*
X01786Y02307*
Y02307*
X01786Y02308*
X01786Y02308*
X01786Y02309*
X01786Y0231*
X01786Y02311*
X01785Y02311*
Y02311*
X01785Y02312*
X01785Y02312*
X01785Y02312*
X01784Y02313*
X01784Y02313*
X01783Y02313*
X01782Y02314*
X01781Y02314*
X01781*
X01781Y02314*
X01781Y02314*
X01781Y02314*
X01781Y02314*
X0178Y02314*
X0178Y02315*
X01779Y02315*
X01778Y02315*
X01777Y02315*
X01776Y02315*
X01776*
X01776*
X01776*
X01776*
X01776Y02315*
X01775*
X01775Y02315*
X01775Y02315*
X01774Y02315*
X01773Y02315*
X01772Y02314*
X01771Y02314*
X01771*
X01771Y02314*
X01771Y02314*
X01771Y02314*
X0177Y02314*
X0177Y02313*
X01769Y02313*
X01768Y02312*
X01768Y02312*
X01767Y02311*
Y02311*
X01767Y02311*
X01767Y02311*
X01767Y02311*
X01767Y0231*
X01767Y0231*
X01767Y02309*
X01766Y02308*
X01766Y02308*
X01766Y02307*
Y02307*
X01766Y02306*
Y02306*
X01766Y02306*
X01766Y02305*
X01767Y02304*
X01767Y02304*
X01767Y02303*
X01768Y02302*
X01768Y02302*
X01768Y02302*
X01768Y02302*
X01768Y02301*
X01769Y02301*
X0177Y02301*
X0177Y023*
X01771Y023*
X01773Y02299*
X01772Y02296*
X01772*
X01772Y02296*
X01771Y02296*
X01771Y02296*
X01771Y02296*
X0177Y02297*
X0177Y02297*
X01769Y02297*
X01768Y02298*
X01767Y02298*
X01766Y02299*
X01766Y02299*
X01765Y023*
X01765Y023*
X01765Y023*
X01765Y023*
X01765Y023*
X01765Y02301*
X01765Y02301*
X01765Y02301*
X01764Y02302*
X01764Y02302*
X01764Y02303*
X01764Y02303*
X01764Y02304*
X01763Y02305*
X01763Y02306*
X01763Y02307*
Y02307*
X01763Y02307*
Y02308*
X01763Y02308*
X01763Y02308*
X01763Y02309*
X01764Y0231*
X01764Y02311*
X01764Y02312*
X01765Y02313*
X01765Y02313*
X01765Y02313*
X01765Y02313*
X01765Y02313*
X01765Y02314*
X01766Y02314*
X01766Y02315*
X01767Y02315*
X01768Y02316*
X01769Y02317*
X0177Y02317*
X0177*
X0177Y02317*
X0177Y02317*
X0177Y02317*
X01771Y02317*
X01771Y02318*
X01771Y02318*
X01772Y02318*
X01772Y02318*
X01773Y02318*
X01774Y02318*
X01775Y02318*
X01776Y02318*
X01777*
X01777*
X01777*
X01777Y02318*
G37*
G36*
X01783Y02291D02*
X01783Y02291D01*
X01783Y02291*
X01783Y0229*
X01783Y0229*
X01783Y0229*
X01784Y02289*
X01784Y02289*
X01784Y02288*
X01785Y02287*
X01786Y02286*
X01786Y02286*
X01786Y02286*
X01786Y02286*
X01786Y02286*
X01787Y02285*
X01787Y02285*
X01788Y02284*
X01788Y02284*
X01789Y02284*
Y02282*
X01764*
Y02285*
X01783*
X01783Y02285*
X01783Y02285*
X01783Y02285*
X01783Y02286*
X01782Y02286*
X01782Y02286*
X01782Y02287*
X01781Y02288*
Y02288*
X01781Y02288*
X01781Y02288*
X01781Y02288*
X01781Y02289*
X0178Y02289*
X0178Y0229*
X0178Y0229*
X0178Y02291*
X01783*
Y02291*
G37*
G36*
X01789Y02257D02*
X01786D01*
X01786Y02257*
X01786Y02257*
X01786Y02257*
X01786Y02258*
X01785Y02258*
X01785Y02258*
X01785Y02258*
X01784Y02259*
X01784Y02259*
X01783Y02259*
X01783Y0226*
X01782Y0226*
X01782Y02261*
X01781Y02261*
X0178Y02262*
X01779Y02262*
X01779Y02262*
X01779Y02262*
X01779Y02262*
X01779Y02262*
X01778Y02263*
X01778Y02263*
X01777Y02263*
X01777Y02263*
X01776Y02264*
X01775Y02264*
X01775Y02264*
X01774Y02265*
X01772Y02265*
X01771Y02266*
X01771*
X0177Y02266*
X0177Y02266*
X0177Y02266*
X0177Y02266*
X01769Y02266*
X01769Y02266*
X01769Y02266*
X01768Y02266*
X01768Y02266*
X01766Y02267*
X01765Y02267*
X01764Y02267*
Y0227*
X01764*
X01764*
X01764*
X01764Y0227*
X01765*
X01765Y0227*
X01765Y0227*
X01766Y0227*
X01766Y0227*
X01767Y0227*
X01767Y0227*
X01768Y02269*
X01769Y02269*
X01769Y02269*
X01771Y02269*
X01771*
X01771Y02269*
X01771Y02269*
X01772Y02269*
X01772Y02269*
X01772Y02268*
X01773Y02268*
X01773Y02268*
X01774Y02268*
X01775Y02268*
X01776Y02267*
X01778Y02266*
X01779Y02266*
X01779Y02266*
X01779Y02266*
X01779Y02265*
X0178Y02265*
X0178Y02265*
X0178Y02265*
X01781Y02265*
X01781Y02264*
X01782Y02264*
X01783Y02263*
X01785Y02262*
X01786Y02261*
Y02274*
X01789*
Y02257*
G37*
G36*
X02178Y0196D02*
X02178Y0196D01*
X02179Y0196*
X02179Y0196*
X02179Y0196*
X0218Y01959*
X02181Y01959*
X02182Y01959*
X02182Y01959*
X02183Y01958*
X02183Y01958*
X02183Y01958*
X02183Y01958*
X02183Y01958*
X02184Y01958*
X02184Y01957*
X02184Y01957*
X02184Y01956*
X02185Y01956*
X02185Y01955*
X02185Y01954*
X02185Y01953*
X02185Y01953*
Y01953*
Y01953*
X02185Y01952*
X02185Y01952*
X02185Y01951*
X02185Y01951*
X02185Y0195*
X02185Y0195*
X02185Y0195*
X02185Y0195*
X02184Y01949*
X02184Y01949*
X02184Y01948*
X02184Y01948*
X02183Y01947*
X02183Y01947*
X02183Y01947*
X02182Y01946*
X02182Y01946*
X02182Y01946*
X02181Y01946*
X02181Y01945*
X02181Y01945*
X0218Y01945*
X0218Y01944*
X0218Y01944*
X02179Y01943*
X02178Y01943*
X02178Y01942*
X02178Y01942*
X02178Y01942*
X02178Y01942*
X02177Y01942*
X02177Y01942*
X02176Y01941*
X02176Y01941*
X02175Y0194*
X02175Y0194*
X02174Y01939*
X02174Y01939*
X02174Y01939*
X02174Y01939*
X02174Y01939*
X02174Y01939*
X02173Y01938*
X02173Y01938*
X02185*
Y01935*
X02169*
Y01935*
Y01935*
Y01935*
X02169Y01935*
X02169Y01936*
X02169Y01936*
X02169Y01936*
X02169Y01937*
Y01937*
X02169Y01937*
X02169Y01937*
X02169Y01937*
X02169Y01938*
X0217Y01938*
X0217Y01939*
X02171Y01939*
X02171Y0194*
Y0194*
X02171Y0194*
X02171Y0194*
X02172Y01941*
X02172Y01941*
X02173Y01942*
X02173Y01942*
X02174Y01943*
X02175Y01944*
X02175Y01944*
X02175Y01944*
X02175Y01944*
X02176Y01944*
X02176Y01945*
X02176Y01945*
X02177Y01946*
X02178Y01947*
X02179Y01948*
X0218Y01948*
X0218Y01948*
X0218Y01949*
X02181Y01949*
Y01949*
X02181Y01949*
X02181Y01949*
X02181Y0195*
X02181Y0195*
X02181Y0195*
X02182Y01951*
X02182Y01952*
X02182Y01952*
X02182Y01953*
Y01953*
Y01953*
X02182Y01953*
X02182Y01954*
X02182Y01954*
X02182Y01955*
X02182Y01955*
X02181Y01956*
X02181Y01956*
X02181Y01956*
X02181Y01956*
X0218Y01956*
X0218Y01957*
X02179Y01957*
X02179Y01957*
X02178Y01957*
X02177Y01957*
X02177*
X02177Y01957*
X02177Y01957*
X02176Y01957*
X02175Y01957*
X02175Y01957*
X02174Y01956*
X02174Y01956*
X02174Y01956*
X02174Y01956*
X02173Y01955*
X02173Y01955*
X02173Y01954*
X02173Y01954*
X02172Y01953*
X02172Y01952*
X02169Y01953*
Y01953*
Y01953*
X02169Y01953*
X02169Y01953*
X02169Y01953*
X02169Y01954*
X0217Y01955*
X0217Y01955*
X0217Y01956*
X02171Y01957*
X02171Y01958*
X02172Y01958*
X02172Y01958*
X02172Y01958*
X02172Y01958*
X02172Y01958*
X02172Y01958*
X02173Y01959*
X02173Y01959*
X02173Y01959*
X02174Y01959*
X02174Y01959*
X02174Y01959*
X02175Y0196*
X02176Y0196*
X02177Y0196*
X02177Y0196*
X02178*
X02178Y0196*
G37*
G36*
X02157Y0196D02*
X02157D01*
X02158Y0196*
X02159Y0196*
X02159Y01959*
X0216Y01959*
X02161Y01959*
X02161*
X02161Y01959*
X02161Y01959*
X02161Y01959*
X02162Y01958*
X02162Y01958*
X02163Y01958*
X02163Y01957*
X02164Y01957*
X02164Y01957*
X02164Y01956*
X02164Y01956*
X02164Y01956*
X02164Y01955*
X02164Y01955*
X02164Y01954*
X02165Y01953*
Y01953*
Y01953*
X02164Y01953*
X02164Y01952*
X02164Y01952*
X02164Y01951*
X02164Y01951*
X02164Y0195*
X02164Y0195*
X02163Y0195*
X02163Y0195*
X02163Y01949*
X02163Y01949*
X02162Y01949*
X02162Y01948*
X02161Y01948*
X02161*
X02161Y01948*
X02161Y01948*
X02161Y01948*
X02162Y01948*
X02162Y01947*
X02163Y01947*
X02163Y01947*
X02164Y01946*
X02164Y01946*
X02165Y01946*
X02165Y01945*
X02165Y01945*
X02165Y01945*
X02165Y01944*
X02166Y01943*
X02166Y01943*
X02166Y01942*
Y01942*
Y01942*
X02166Y01941*
X02166Y01941*
X02166Y0194*
X02165Y0194*
X02165Y01939*
X02165Y01939*
X02165Y01938*
X02165Y01938*
X02165Y01938*
X02164Y01938*
X02164Y01937*
X02164Y01937*
X02164Y01937*
X02163Y01936*
X02163Y01936*
X02163Y01936*
X02163Y01936*
X02162Y01936*
X02162Y01936*
X02161Y01935*
X02161Y01935*
X0216Y01935*
X0216*
X0216Y01935*
X0216Y01935*
X02159Y01935*
X02159Y01935*
X02158Y01935*
X02157Y01935*
X02147*
Y0196*
X02157*
X02157Y0196*
G37*
G36*
X02143Y01957D02*
X02129D01*
Y01949*
X02141*
Y01946*
X02129*
Y01935*
X02125*
Y0196*
X02143*
Y01957*
G37*
G36*
X02795Y01754D02*
X02796Y01754D01*
X02796Y01754*
X02797Y01754*
X02797Y01754*
X02798Y01753*
X02799Y01753*
X028Y01753*
X028Y01753*
X02801Y01752*
X02801Y01752*
X02801Y01752*
X02801Y01752*
X02801Y01752*
X02802Y01752*
X02802Y01751*
X02802Y01751*
X02802Y01751*
X02803Y01751*
X02803Y0175*
X02803Y0175*
X02804Y01749*
X02804Y01749*
X02804Y01748*
X02804Y01748*
X02805Y01747*
X02802Y01746*
Y01746*
X02801Y01746*
X02801Y01746*
X02801Y01746*
X02801Y01746*
X02801Y01747*
X02801Y01747*
X02801Y01748*
X028Y01749*
X028Y01749*
X02799Y0175*
X02799Y0175*
X02799Y0175*
X02798Y0175*
X02798Y0175*
X02797Y01751*
X02796Y01751*
X02796Y01751*
X02795Y01751*
X02794*
X02794Y01751*
X02794*
X02794Y01751*
X02793Y01751*
X02792Y01751*
X02791Y0175*
X02791Y0175*
X0279Y0175*
X0279*
X0279Y0175*
X0279Y01749*
X02789Y01749*
X02789Y01749*
X02788Y01748*
X02788Y01748*
X02788Y01747*
X02787Y01746*
Y01746*
X02787Y01746*
X02787Y01746*
X02787Y01745*
X02787Y01745*
X02787Y01745*
X02787Y01744*
X02787Y01744*
X02787Y01743*
X02786Y01742*
X02786Y01741*
Y01741*
Y01741*
Y01741*
Y01741*
X02786Y0174*
Y0174*
X02787Y0174*
X02787Y01739*
X02787Y01738*
X02787Y01737*
X02787Y01736*
X02787Y01735*
Y01735*
X02787Y01735*
X02787Y01735*
X02788Y01735*
X02788Y01735*
X02788Y01734*
X02788Y01733*
X02789Y01733*
X0279Y01732*
X0279Y01732*
X0279*
X0279Y01732*
X0279Y01732*
X02791Y01732*
X02791Y01731*
X02792Y01731*
X02792Y01731*
X02793Y01731*
X02794Y01731*
X02795Y01731*
X02795*
X02795Y01731*
X02795*
X02796Y01731*
X02796Y01731*
X02797Y01731*
X02798Y01731*
X02798Y01732*
X02799Y01732*
X02799Y01732*
X02799Y01732*
X028Y01733*
X028Y01733*
X028Y01733*
X02801Y01734*
X02801Y01735*
X02802Y01736*
X02802Y01737*
X02805Y01736*
Y01736*
X02805Y01736*
X02805Y01736*
X02805Y01736*
X02805Y01735*
X02805Y01735*
X02805Y01734*
X02804Y01734*
X02804Y01733*
X02803Y01732*
X02802Y01731*
X02802Y0173*
X02801Y0173*
X02801Y0173*
X02801Y0173*
X02801Y0173*
X02801Y0173*
X02801Y0173*
X028Y01729*
X028Y01729*
X028Y01729*
X02799Y01729*
X02799Y01729*
X02798Y01728*
X02797Y01728*
X02796Y01728*
X02796Y01728*
X02795Y01728*
X02794*
X02794Y01728*
X02794*
X02793Y01728*
X02793Y01728*
X02792Y01728*
X02791Y01728*
X0279Y01729*
X02789Y01729*
X02789Y01729*
X02788Y0173*
X02788Y0173*
X02788Y0173*
X02788Y0173*
X02788Y0173*
X02787Y0173*
X02787Y01731*
X02786Y01731*
X02785Y01732*
X02785Y01733*
X02784Y01734*
Y01734*
X02784Y01734*
X02784Y01735*
X02784Y01735*
X02784Y01735*
X02784Y01735*
X02784Y01736*
X02784Y01736*
X02784Y01737*
X02783Y01737*
X02783Y01738*
X02783Y0174*
X02783Y01741*
Y01741*
Y01741*
Y01741*
X02783Y01742*
Y01742*
X02783Y01742*
X02783Y01743*
X02783Y01743*
X02783Y01744*
X02784Y01746*
X02784Y01747*
X02784Y01748*
Y01748*
X02785Y01748*
X02785Y01748*
X02785Y01748*
X02785Y01749*
X02785Y01749*
X02786Y0175*
X02786Y0175*
X02787Y01751*
X02788Y01752*
X02789Y01752*
X02789*
X02789Y01752*
X02789Y01753*
X02789Y01753*
X02789Y01753*
X0279Y01753*
X0279Y01753*
X02791Y01753*
X02791Y01753*
X02791Y01753*
X02792Y01754*
X02794Y01754*
X02795Y01754*
X02795*
X02795Y01754*
G37*
G36*
X0282Y01728D02*
X02817D01*
Y01748*
X02817Y01748*
X02816Y01748*
X02816Y01748*
X02816Y01747*
X02815Y01747*
X02815Y01747*
X02814Y01746*
X02814Y01746*
X02814*
X02814Y01746*
X02813Y01746*
X02813Y01745*
X02813Y01745*
X02812Y01745*
X02812Y01745*
X02811Y01744*
X0281Y01744*
Y01747*
X02811*
X02811Y01747*
X02811Y01747*
X02811Y01748*
X02811Y01748*
X02811Y01748*
X02812Y01748*
X02813Y01749*
X02813Y01749*
X02814Y0175*
X02815Y0175*
X02815Y0175*
X02815Y0175*
X02815Y01751*
X02816Y01751*
X02816Y01751*
X02816Y01752*
X02817Y01752*
X02817Y01753*
X02818Y01754*
X0282*
Y01728*
G37*
G36*
X02156Y02343D02*
X02156D01*
X02157Y02343*
X02157Y02343*
X02158Y02343*
X02159Y02343*
X0216Y02342*
X02161Y02342*
X02162Y02342*
X02162*
X02162Y02341*
X02163Y02341*
X02163Y02341*
X02163Y02341*
X02163Y02341*
X02164Y0234*
X02165Y0234*
X02165Y02339*
X02166Y02338*
X02167Y02337*
Y02337*
X02167Y02337*
X02167Y02337*
X02167Y02337*
X02167Y02337*
X02167Y02336*
X02167Y02336*
X02168Y02335*
X02168Y02335*
X02168Y02335*
X02168Y02334*
X02168Y02332*
X02168Y02331*
Y02331*
X02168Y0233*
X02168Y0233*
X02168Y0233*
X02168Y02329*
X02168Y02329*
X02168Y02328*
X02167Y02327*
X02167Y02326*
X02167Y02326*
X02167Y02325*
X02166Y02325*
X02166Y02325*
X02166Y02325*
X02166Y02325*
X02166Y02324*
X02166Y02324*
X02166Y02324*
X02165Y02324*
X02165Y02323*
X02165Y02323*
X02164Y02323*
X02164Y02322*
X02163Y02322*
X02163Y02322*
X02162Y02322*
X02161Y02321*
X0216Y02324*
X0216*
X0216Y02325*
X0216Y02325*
X02161Y02325*
X02161Y02325*
X02161Y02325*
X02162Y02325*
X02162Y02325*
X02163Y02326*
X02164Y02326*
X02164Y02327*
X02164Y02327*
X02164Y02327*
X02165Y02328*
X02165Y02328*
X02165Y02329*
X02165Y02329*
X02165Y0233*
X02165Y02331*
Y02331*
X02165Y02332*
Y02332*
X02165Y02332*
X02165Y02333*
X02165Y02334*
X02165Y02334*
X02164Y02335*
X02164Y02336*
Y02336*
X02164Y02336*
X02164Y02336*
X02163Y02337*
X02163Y02337*
X02162Y02338*
X02162Y02338*
X02161Y02338*
X0216Y02339*
X0216*
X0216Y02339*
X0216Y02339*
X0216Y02339*
X0216Y02339*
X02159Y02339*
X02159Y02339*
X02158Y02339*
X02157Y02339*
X02156Y0234*
X02155Y0234*
X02155*
X02155*
X02155*
X02155*
X02155Y0234*
X02154*
X02154Y02339*
X02154Y02339*
X02153Y02339*
X02152Y02339*
X02151Y02339*
X0215Y02339*
X0215*
X0215Y02339*
X0215Y02339*
X02149Y02338*
X02149Y02338*
X02148Y02338*
X02148Y02338*
X02147Y02337*
X02147Y02336*
X02146Y02336*
Y02336*
X02146Y02336*
X02146Y02336*
X02146Y02335*
X02146Y02335*
X02146Y02334*
X02145Y02334*
X02145Y02333*
X02145Y02332*
X02145Y02331*
Y02331*
X02145Y02331*
Y02331*
X02145Y0233*
X02145Y0233*
X02145Y02329*
X02146Y02328*
X02146Y02327*
X02147Y02327*
X02147Y02327*
X02147Y02327*
X02147Y02326*
X02147Y02326*
X02148Y02326*
X02149Y02325*
X02149Y02325*
X0215Y02324*
X02151Y02324*
X02151Y02321*
X02151*
X0215Y02321*
X0215Y02321*
X0215Y02321*
X0215Y02321*
X02149Y02321*
X02149Y02321*
X02148Y02322*
X02147Y02322*
X02146Y02323*
X02145Y02324*
X02145Y02324*
X02144Y02325*
X02144Y02325*
X02144Y02325*
X02144Y02325*
X02144Y02325*
X02144Y02325*
X02144Y02326*
X02143Y02326*
X02143Y02326*
X02143Y02327*
X02143Y02327*
X02143Y02328*
X02143Y02328*
X02142Y0233*
X02142Y0233*
X02142Y02331*
Y02332*
X02142Y02332*
Y02332*
X02142Y02333*
X02142Y02333*
X02142Y02334*
X02143Y02335*
X02143Y02336*
X02143Y02337*
X02144Y02337*
X02144Y02338*
X02144Y02338*
X02144Y02338*
X02144Y02338*
X02144Y02338*
X02145Y02339*
X02145Y02339*
X02146Y0234*
X02147Y02341*
X02148Y02341*
X02149Y02342*
X02149*
X02149Y02342*
X02149Y02342*
X02149Y02342*
X0215Y02342*
X0215Y02342*
X0215Y02342*
X02151Y02342*
X02151Y02342*
X02152Y02343*
X02153Y02343*
X02154Y02343*
X02155Y02343*
X02155*
X02156*
X02156*
X02156Y02343*
G37*
G36*
X02162Y02315D02*
X02162Y02315D01*
X02162Y02315*
X02162Y02315*
X02162Y02315*
X02162Y02315*
X02162Y02314*
X02163Y02313*
X02163Y02313*
X02164Y02312*
X02165Y02311*
X02165Y02311*
X02165Y02311*
X02165Y02311*
X02165Y0231*
X02166Y0231*
X02166Y02309*
X02167Y02309*
X02167Y02309*
X02168Y02308*
Y02306*
X02143*
Y02309*
X02162*
X02162Y02309*
X02162Y0231*
X02162Y0231*
X02162Y0231*
X02161Y02311*
X02161Y02311*
X02161Y02312*
X0216Y02312*
Y02312*
X0216Y02312*
X0216Y02313*
X0216Y02313*
X0216Y02313*
X02159Y02314*
X02159Y02314*
X02159Y02315*
X02159Y02316*
X02162*
Y02315*
G37*
G36*
X02156Y02298D02*
X02156Y02298D01*
X02157Y02298*
X02158Y02298*
X02159Y02298*
X02159Y02298*
X0216Y02298*
X02161Y02298*
X02162Y02297*
X02163Y02297*
X02164Y02297*
X02164Y02296*
X02165Y02296*
X02165Y02296*
X02165Y02296*
X02165Y02296*
X02166Y02295*
X02166Y02295*
X02166Y02295*
X02166Y02294*
X02167Y02294*
X02167Y02294*
X02167Y02293*
X02167Y02293*
X02168Y02292*
X02168Y02291*
X02168Y02291*
X02168Y0229*
X02168Y02289*
Y02289*
X02168Y02289*
Y02289*
X02168Y02288*
X02168Y02288*
X02168Y02287*
X02167Y02286*
X02167Y02285*
X02167Y02285*
X02166Y02285*
Y02284*
X02166Y02284*
X02166Y02284*
X02166Y02284*
X02165Y02284*
X02164Y02283*
X02164Y02283*
X02163Y02282*
X02162Y02282*
X02161Y02285*
X02162*
X02162*
X02162Y02285*
X02162Y02285*
X02162Y02286*
X02163Y02286*
X02164Y02286*
X02164Y02286*
X02164Y02287*
X02164Y02287*
X02165Y02287*
X02165Y02287*
X02165Y02288*
X02165Y02288*
X02165Y02289*
X02165Y0229*
Y0229*
X02165Y0229*
X02165Y0229*
X02165Y02291*
X02165Y02291*
X02165Y02292*
X02165Y02292*
X02165Y02292*
X02164Y02292*
X02164Y02293*
X02164Y02293*
X02163Y02293*
X02163Y02294*
X02162Y02294*
X02161Y02295*
X02161*
X02161Y02295*
X02161Y02295*
X02161Y02295*
X02161Y02295*
X02161Y02295*
X0216Y02295*
X0216Y02295*
X0216Y02295*
X02159Y02295*
X02159Y02295*
X02158Y02295*
X02158Y02295*
X02157Y02295*
X02156Y02295*
X02156*
X02156Y02295*
X02156Y02295*
X02156Y02295*
X02157Y02295*
X02157Y02294*
X02157Y02294*
X02158Y02293*
X02158Y02293*
X02158Y02293*
X02158Y02292*
X02158Y02292*
X02159Y02292*
X02159Y02291*
X02159Y02291*
X02159Y0229*
X02159Y02289*
Y02289*
X02159Y02289*
X02159Y02288*
X02159Y02288*
X02159Y02287*
X02158Y02287*
X02158Y02286*
X02158Y02286*
X02158Y02285*
X02157Y02285*
X02157Y02284*
X02157Y02284*
X02157Y02284*
X02157Y02284*
X02156Y02284*
X02156Y02284*
X02156Y02283*
X02156Y02283*
X02155Y02283*
X02155Y02283*
X02155Y02283*
X02154Y02282*
X02154Y02282*
X02153Y02282*
X02153Y02282*
X02152Y02282*
X02151Y02282*
X02151Y02282*
X02151*
X02151*
X02151*
X0215*
X0215Y02282*
X0215*
X02149Y02282*
X02149Y02282*
X02148Y02282*
X02147Y02282*
X02146Y02283*
X02146*
X02146Y02283*
X02146Y02283*
X02146Y02283*
X02146Y02283*
X02145Y02284*
X02145Y02284*
X02144Y02284*
X02144Y02285*
X02143Y02286*
X02143Y02286*
X02143Y02286*
X02143Y02286*
X02143Y02287*
X02143Y02287*
X02142Y02288*
X02142Y02289*
X02142Y0229*
Y0229*
X02142Y0229*
Y0229*
X02142Y02291*
X02142Y02291*
X02142Y02291*
X02143Y02292*
X02143Y02292*
X02143Y02293*
X02143Y02293*
X02143Y02294*
X02144Y02295*
X02144Y02295*
X02145Y02296*
X02145Y02296*
X02145Y02296*
X02145Y02296*
X02145Y02296*
X02146Y02296*
X02146Y02297*
X02146Y02297*
X02147Y02297*
X02147Y02297*
X02148Y02297*
X02149Y02298*
X02149Y02298*
X0215Y02298*
X02151Y02298*
X02152Y02298*
X02153Y02298*
X02154Y02298*
X02154*
X02155*
X02155*
X02155*
X02155*
X02156Y02298*
G37*
G36*
X02375Y02676D02*
X02375Y02676D01*
X02375Y02676*
X02375Y02676*
X02374Y02676*
X02374Y02675*
X02374Y02675*
X02374Y02675*
X02373Y02674*
X02373Y02674*
X02373Y02673*
X02372Y02673*
X02372Y02672*
X02371Y02671*
X02371Y02671*
X0237Y0267*
X0237Y02669*
X0237Y02669*
X0237Y02669*
X0237Y02669*
X0237Y02668*
X02369Y02668*
X02369Y02668*
X02369Y02667*
X02369Y02666*
X02368Y02666*
X02368Y02665*
X02368Y02664*
X02367Y02664*
X02367Y02662*
X02366Y0266*
Y0266*
X02366Y0266*
X02366Y0266*
X02366Y0266*
X02366Y0266*
X02366Y02659*
X02366Y02659*
X02366Y02658*
X02366Y02658*
X02366Y02657*
X02365Y02656*
X02365Y02655*
X02365Y02654*
X02362*
Y02654*
Y02654*
Y02654*
X02362Y02654*
Y02654*
X02362Y02655*
X02362Y02655*
X02362Y02656*
X02362Y02656*
X02362Y02657*
X02362Y02657*
X02362Y02658*
X02363Y02658*
X02363Y02659*
X02363Y02661*
Y02661*
X02363Y02661*
X02363Y02661*
X02363Y02661*
X02363Y02662*
X02364Y02662*
X02364Y02663*
X02364Y02663*
X02364Y02664*
X02364Y02665*
X02365Y02666*
X02366Y02667*
X02366Y02669*
X02366Y02669*
X02366Y02669*
X02367Y02669*
X02367Y02669*
X02367Y0267*
X02367Y0267*
X02367Y02671*
X02368Y02671*
X02368Y02672*
X02369Y02673*
X0237Y02674*
X02371Y02675*
X02358*
Y02678*
X02375*
Y02676*
G37*
G36*
X02346Y02679D02*
X02346D01*
X02347Y02679*
X02348Y02679*
X02349Y02678*
X0235Y02678*
X0235Y02678*
X0235Y02678*
X0235*
X02351Y02678*
X02351Y02678*
X02351Y02678*
X02351Y02677*
X02352Y02677*
X02352Y02677*
X02353Y02676*
X02353Y02676*
X02353Y02676*
X02353Y02675*
X02354Y02675*
X02354Y02675*
X02354Y02674*
X02354Y02673*
X02354Y02673*
X02354Y02672*
Y02672*
Y02672*
Y02672*
X02354Y02671*
Y02671*
X02354Y02671*
X02354Y0267*
X02354Y0267*
X02354Y02669*
X02353Y02668*
X02353Y02668*
X02353Y02667*
X02352Y02667*
X02352Y02667*
X02352Y02667*
X02352Y02667*
X02352Y02667*
X02352Y02667*
X02351Y02666*
X02351Y02666*
X0235Y02666*
X0235Y02666*
X0235Y02666*
X02349Y02665*
X02348Y02665*
X02348Y02665*
X02347Y02665*
X02347Y02665*
X02347Y02665*
X02348Y02665*
X02348Y02665*
X02349Y02664*
X02349Y02664*
X02349Y02664*
X02349Y02664*
X02349Y02663*
X0235Y02663*
X0235Y02663*
X02351Y02662*
X02351Y02662*
X02351Y02661*
X02352Y0266*
X02356Y02654*
X02352*
X02349Y02659*
Y02659*
X02349Y02659*
X02349Y02659*
X02349Y02659*
X02348Y0266*
X02348Y0266*
X02348Y02661*
X02347Y02661*
X02347Y02662*
X02346Y02662*
X02346Y02662*
X02346Y02662*
X02346Y02663*
X02346Y02663*
X02345Y02663*
X02345Y02664*
X02345Y02664*
X02345Y02664*
X02345Y02664*
X02344Y02664*
X02344Y02664*
X02344Y02664*
X02343Y02665*
X02343*
X02343Y02665*
X02343*
X02343Y02665*
X02342Y02665*
X02342*
X02342Y02665*
X02337*
Y02654*
X02334*
Y02679*
X02346*
X02346Y02679*
G37*
G36*
X01647Y02486D02*
X01635D01*
X01635Y02486*
X01635*
X01634Y02486*
X01633Y02486*
X01632Y02486*
X01632Y02486*
X01631Y02486*
X01631Y02486*
X01631*
X01631Y02486*
X01631Y02486*
X0163Y02487*
X0163Y02487*
X01629Y02487*
X01629Y02488*
X01628Y02488*
X01628Y02489*
X01628Y02489*
X01628Y02489*
X01628Y02489*
X01628Y0249*
X01627Y0249*
X01627Y02491*
X01627Y02492*
X01627Y02493*
Y02493*
Y02493*
Y02493*
X01627Y02493*
Y02493*
X01627Y02494*
X01627Y02494*
X01627Y02495*
X01628Y02496*
X01628Y02496*
X01628Y02497*
X01629Y02497*
X01629Y02497*
X01629Y02497*
X01629Y02497*
X01629Y02498*
X01629Y02498*
X0163Y02498*
X0163Y02498*
X0163Y02498*
X01631Y02498*
X01631Y02499*
X01632Y02499*
X01632Y02499*
X01633Y02499*
X01633Y02499*
X01634Y02499*
X01634Y02499*
X01634Y025*
X01634Y025*
X01633Y025*
X01633Y025*
X01632Y025*
X01632Y02501*
X01632Y02501*
X01632Y02501*
X01632Y02501*
X01631Y02502*
X01631Y02502*
X0163Y02503*
X0163Y02503*
X01629Y02504*
X01625Y02511*
X01629*
X01632Y02506*
Y02506*
X01633Y02506*
X01633Y02505*
X01633Y02505*
X01633Y02505*
X01633Y02504*
X01634Y02504*
X01634Y02503*
X01635Y02503*
X01635Y02502*
X01635Y02502*
X01635Y02502*
X01635Y02502*
X01635Y02502*
X01636Y02501*
X01636Y02501*
X01637Y02501*
X01637Y025*
X01637Y025*
X01637Y025*
X01637Y025*
X01638Y025*
X01638Y025*
X01638*
X01638Y025*
X01638*
X01639Y025*
X01639Y025*
X01639*
X0164Y025*
X01644*
Y02511*
X01647*
Y02486*
G37*
G36*
X01615Y02511D02*
X01616Y02511D01*
X01616Y02511*
X01616Y02511*
X01617Y02511*
X01618Y02511*
X01618Y02511*
X01619Y0251*
X01619Y0251*
X0162Y0251*
X0162Y0251*
X01621Y02509*
X01621Y02509*
X01621Y02509*
X01621Y02509*
X01621Y02509*
X01621Y02509*
X01622Y02508*
X01622Y02508*
X01622Y02508*
X01622Y02507*
X01622Y02507*
X01623Y02506*
X01623Y02505*
X01623Y02505*
X01623Y02504*
X01623Y02504*
Y02504*
Y02503*
Y02503*
X01623Y02503*
Y02503*
X01623Y02503*
X01623Y02502*
X01623Y02502*
X01623Y02501*
X01622Y025*
X01622Y02499*
Y02499*
X01622Y02499*
X01622Y02499*
X01621Y02499*
X01621Y02499*
X0162Y02498*
X0162Y02498*
X01619Y02497*
X01618Y02497*
X01618*
X01618Y02497*
X01619Y02497*
X01619Y02497*
X01619Y02497*
X0162Y02496*
X0162Y02496*
X01621Y02496*
X01621Y02495*
X01621Y02495*
X01621Y02495*
X01621Y02495*
X01622Y02494*
X01622Y02494*
X01622Y02493*
X01622Y02493*
X01622Y02492*
Y02492*
Y02492*
Y02492*
X01622Y02492*
X01622Y02491*
X01622Y02491*
X01622Y0249*
X01622Y0249*
X01621Y02489*
X01621Y02489*
X01621Y02488*
X0162Y02488*
X0162Y02487*
X0162Y02487*
X0162Y02487*
X0162Y02487*
X0162Y02487*
X0162Y02487*
X01619Y02487*
X01619Y02487*
X01619Y02486*
X01618Y02486*
X01617Y02486*
X01616Y02486*
X01615Y02486*
X01615Y02486*
X01615*
X01614Y02486*
X01614*
X01614Y02486*
X01613Y02486*
X01612Y02486*
X01611Y02486*
X01611Y02487*
X0161Y02487*
X0161Y02487*
X0161Y02487*
X01609Y02488*
X01609Y02488*
X01609Y02488*
X01609Y02488*
X01609Y02488*
X01609Y02488*
X01608Y02489*
X01608Y02489*
X01608Y0249*
X01608Y02491*
X01608Y02492*
X01607Y02492*
Y02492*
Y02492*
X01608Y02493*
X01608Y02493*
X01608Y02494*
X01608Y02494*
X01608Y02495*
X01608Y02495*
X01608Y02495*
X01609Y02495*
X01609Y02496*
X01609Y02496*
X01609Y02496*
X0161Y02497*
X01611Y02497*
X01611Y02497*
X01611*
X01611Y02497*
X01611Y02497*
X01611Y02497*
X0161Y02498*
X0161Y02498*
X01609Y02498*
X01609Y02499*
X01608Y02499*
X01608Y025*
X01608Y025*
X01607Y025*
X01607Y025*
X01607Y02501*
X01607Y02501*
X01607Y02502*
X01606Y02503*
X01606Y02504*
Y02504*
Y02504*
Y02504*
X01606Y02504*
X01607Y02504*
X01607Y02505*
X01607Y02506*
X01607Y02506*
X01607Y02507*
X01607Y02507*
X01608Y02508*
X01608Y02508*
X01608Y02509*
X01609Y02509*
X01609Y02509*
X01609Y02509*
X01609Y02509*
X01609Y02509*
X01609Y0251*
X0161Y0251*
X0161Y0251*
X0161Y0251*
X01611Y0251*
X01611Y02511*
X01612Y02511*
X01612Y02511*
X01613Y02511*
X01613Y02511*
X01614Y02511*
X01615Y02511*
X01615*
X01615Y02511*
G37*
G36*
X0259Y01159D02*
X02578D01*
X02578Y01159*
X02578*
X02577Y01159*
X02576Y01159*
X02575Y0116*
X02575Y0116*
X02574Y0116*
X02574Y0116*
X02574*
X02574Y0116*
X02573Y0116*
X02573Y0116*
X02573Y01161*
X02572Y01161*
X02572Y01161*
X02571Y01162*
X02571Y01162*
X02571Y01163*
X02571Y01163*
X02571Y01163*
X0257Y01164*
X0257Y01164*
X0257Y01165*
X0257Y01165*
X0257Y01166*
Y01166*
Y01166*
Y01166*
X0257Y01167*
Y01167*
X0257Y01167*
X0257Y01168*
X0257Y01169*
X02571Y01169*
X02571Y0117*
X02571Y0117*
X02572Y01171*
X02572Y01171*
X02572Y01171*
X02572Y01171*
X02572Y01171*
X02572Y01171*
X02573Y01172*
X02573Y01172*
X02573Y01172*
X02574Y01172*
X02574Y01172*
X02575Y01172*
X02575Y01173*
X02576Y01173*
X02576Y01173*
X02577Y01173*
X02577Y01173*
X02577Y01173*
X02577Y01173*
X02576Y01173*
X02576Y01174*
X02575Y01174*
X02575Y01174*
X02575Y01174*
X02575Y01175*
X02574Y01175*
X02574Y01175*
X02574Y01176*
X02573Y01176*
X02573Y01177*
X02572Y01178*
X02568Y01185*
X02572*
X02575Y01179*
Y01179*
X02575Y01179*
X02576Y01179*
X02576Y01179*
X02576Y01179*
X02576Y01178*
X02577Y01177*
X02577Y01177*
X02577Y01176*
X02578Y01176*
X02578Y01176*
X02578Y01176*
X02578Y01175*
X02578Y01175*
X02579Y01175*
X02579Y01174*
X02579Y01174*
X0258Y01174*
X0258Y01174*
X0258Y01174*
X0258Y01174*
X0258Y01174*
X02581Y01173*
X02581*
X02581Y01173*
X02581*
X02581Y01173*
X02582Y01173*
X02582*
X02582Y01173*
X02587*
Y01185*
X0259*
Y01159*
G37*
G36*
X02557Y01165D02*
X02557Y01165D01*
X02558Y01165*
X02558Y01165*
X02558Y01165*
X02559Y01166*
X02559Y01166*
X0256Y01167*
X0256Y01167*
X0256*
X0256Y01167*
X02561Y01167*
X02561Y01167*
X02561Y01168*
X02562Y01168*
X02562Y01168*
X02563Y01168*
X02564Y01169*
Y01166*
X02564*
X02563Y01165*
X02563Y01165*
X02563Y01165*
X02563Y01165*
X02563Y01165*
X02562Y01165*
X02561Y01164*
X02561Y01164*
X0256Y01163*
X02559Y01163*
X02559Y01163*
X02559Y01163*
X02559Y01162*
X02558Y01162*
X02558Y01162*
X02558Y01161*
X02557Y0116*
X02557Y0116*
X02556Y01159*
X02554*
Y01185*
X02557*
Y01165*
G37*
G36*
X0212Y01781D02*
X02121Y01781D01*
X02121Y01781*
X02121Y01781*
X02122Y01781*
X02123Y01781*
X02124Y01781*
X02124Y0178*
X02125Y0178*
X02126Y0178*
X02126Y0178*
X02126Y01779*
X02126Y01779*
X02126Y01779*
X02126Y01779*
X02127Y01779*
X02127Y01779*
X02127Y01778*
X02127Y01778*
X02128Y01778*
X02128Y01777*
X02128Y01777*
X02129Y01776*
X02129Y01776*
X02129Y01775*
X0213Y01774*
X02126Y01773*
Y01773*
X02126Y01773*
X02126Y01774*
X02126Y01774*
X02126Y01774*
X02126Y01774*
X02126Y01775*
X02125Y01776*
X02125Y01776*
X02124Y01777*
X02124Y01777*
X02124Y01777*
X02123Y01778*
X02123Y01778*
X02123Y01778*
X02122Y01778*
X02121Y01778*
X0212Y01779*
X0212Y01779*
X02119*
X02119Y01779*
X02119*
X02119Y01779*
X02118Y01778*
X02117Y01778*
X02116Y01778*
X02115Y01778*
X02115Y01777*
X02115*
X02115Y01777*
X02114Y01777*
X02114Y01777*
X02114Y01776*
X02113Y01776*
X02113Y01775*
X02112Y01774*
X02112Y01773*
Y01773*
X02112Y01773*
X02112Y01773*
X02112Y01773*
X02112Y01773*
X02112Y01773*
X02112Y01772*
X02111Y01771*
X02111Y0177*
X02111Y0177*
X02111Y01769*
Y01769*
Y01768*
Y01768*
Y01768*
X02111Y01768*
Y01767*
X02111Y01767*
X02111Y01767*
X02111Y01766*
X02112Y01765*
X02112Y01764*
X02112Y01763*
Y01763*
X02112Y01763*
X02112Y01763*
X02112Y01763*
X02113Y01762*
X02113Y01762*
X02113Y01761*
X02114Y0176*
X02114Y0176*
X02115Y01759*
X02115*
X02115Y01759*
X02115Y01759*
X02115Y01759*
X02116Y01759*
X02116Y01759*
X02117Y01759*
X02118Y01758*
X02118Y01758*
X02119Y01758*
X0212*
X0212Y01758*
X0212*
X0212Y01758*
X02121Y01758*
X02122Y01759*
X02123Y01759*
X02123Y01759*
X02124Y0176*
X02124Y0176*
X02124Y0176*
X02124Y0176*
X02125Y01761*
X02125Y01761*
X02126Y01762*
X02126Y01763*
X02126Y01764*
X02127Y01765*
X0213Y01764*
Y01764*
X0213Y01764*
X0213Y01763*
X0213Y01763*
X0213Y01763*
X0213Y01762*
X02129Y01762*
X02129Y01762*
X02129Y0176*
X02128Y01759*
X02127Y01758*
X02127Y01758*
X02126Y01758*
X02126Y01758*
X02126Y01757*
X02126Y01757*
X02126Y01757*
X02125Y01757*
X02125Y01757*
X02125Y01757*
X02124Y01756*
X02124Y01756*
X02123Y01756*
X02123Y01756*
X02122Y01756*
X02121Y01755*
X0212Y01755*
X0212Y01755*
X02119*
X02119Y01755*
X02119*
X02118Y01755*
X02118Y01756*
X02117Y01756*
X02116Y01756*
X02115Y01756*
X02114Y01757*
X02113Y01757*
X02113Y01757*
X02113Y01757*
X02113Y01757*
X02113Y01757*
X02113Y01757*
X02112Y01758*
X02112Y01758*
X02111Y01759*
X0211Y0176*
X0211Y01761*
X02109Y01762*
Y01762*
X02109Y01762*
X02109Y01762*
X02109Y01762*
X02109Y01763*
X02109Y01763*
X02109Y01763*
X02108Y01764*
X02108Y01764*
X02108Y01765*
X02108Y01766*
X02108Y01767*
X02108Y01769*
Y01769*
Y01769*
Y01769*
X02108Y01769*
Y0177*
X02108Y0177*
X02108Y0177*
X02108Y01771*
X02108Y01772*
X02108Y01773*
X02109Y01774*
X02109Y01775*
Y01776*
X02109Y01776*
X02109Y01776*
X0211Y01776*
X0211Y01776*
X0211Y01776*
X0211Y01777*
X02111Y01778*
X02112Y01779*
X02113Y01779*
X02114Y0178*
X02114*
X02114Y0178*
X02114Y0178*
X02114Y0178*
X02114Y0178*
X02115Y0178*
X02115Y01781*
X02115Y01781*
X02116Y01781*
X02116Y01781*
X02117Y01781*
X02118Y01781*
X0212Y01781*
X0212*
X0212Y01781*
G37*
G36*
X02145Y01756D02*
X02141D01*
Y01776*
X02141Y01776*
X02141Y01775*
X02141Y01775*
X02141Y01775*
X0214Y01775*
X0214Y01774*
X02139Y01774*
X02138Y01773*
X02138*
X02138Y01773*
X02138Y01773*
X02138Y01773*
X02137Y01773*
X02137Y01773*
X02136Y01772*
X02136Y01772*
X02135Y01772*
Y01775*
X02135*
X02135Y01775*
X02136Y01775*
X02136Y01775*
X02136Y01775*
X02136Y01775*
X02137Y01776*
X02137Y01776*
X02138Y01777*
X02139Y01777*
X0214Y01778*
X0214Y01778*
X0214Y01778*
X0214Y01778*
X0214Y01778*
X02141Y01779*
X02141Y01779*
X02142Y0178*
X02142Y01781*
X02143Y01781*
X02145*
Y01756*
G37*
G36*
X02161Y01781D02*
X02162Y01781D01*
X02162Y01781*
X02163Y01781*
X02164Y01781*
X02164Y0178*
X02164Y0178*
X02164Y0178*
X02165Y0178*
X02165Y0178*
X02166Y01779*
X02166Y01779*
X02166Y01779*
X02167Y01778*
X02167Y01778*
X02167Y01778*
X02167Y01777*
X02167Y01777*
X02168Y01776*
X02168Y01776*
X02168Y01775*
X02168Y01774*
Y01774*
X02168Y01774*
Y01774*
X02168Y01774*
X02168Y01774*
X02169Y01773*
X02169Y01773*
X02169Y01773*
X02169Y01772*
X02169Y01772*
X02169Y01771*
X02169Y01771*
X02169Y0177*
Y0177*
X02169Y01768*
Y01768*
Y01768*
Y01768*
Y01768*
X02169Y01767*
Y01767*
X02169Y01766*
X02169Y01766*
X02169Y01765*
X02169Y01763*
X02168Y01762*
X02168Y01762*
X02168Y01761*
Y01761*
X02168Y01761*
X02168Y01761*
X02168Y01761*
X02168Y0176*
X02168Y0176*
X02167Y0176*
X02167Y01759*
X02166Y01758*
X02166Y01757*
X02165Y01757*
X02165*
X02165Y01757*
X02165Y01757*
X02165Y01757*
X02165Y01756*
X02164Y01756*
X02163Y01756*
X02163Y01756*
X02162Y01755*
X02161Y01755*
X0216*
X0216Y01755*
X0216Y01755*
X02159Y01756*
X02159Y01756*
X02159Y01756*
X02158Y01756*
X02157Y01756*
X02157Y01756*
X02156Y01757*
X02156Y01757*
X02155Y01758*
X02155Y01758*
X02155Y01758*
X02155Y01758*
X02155Y01758*
X02155Y01759*
X02154Y01759*
X02154Y01759*
X02154Y0176*
X02154Y0176*
X02153Y01761*
X02153Y01762*
X02153Y01763*
X02153Y01764*
X02153Y01765*
X02153Y01766*
X02153Y01767*
X02152Y01768*
Y01768*
Y01768*
Y01769*
Y01769*
X02153Y01769*
Y0177*
X02153Y0177*
X02153Y01771*
X02153Y01772*
X02153Y01773*
X02153Y01774*
X02153Y01775*
X02153Y01775*
Y01775*
X02153Y01776*
X02153Y01776*
X02154Y01776*
X02154Y01776*
X02154Y01776*
X02154Y01777*
X02154Y01778*
X02155Y01778*
X02155Y01779*
X02156Y0178*
X02156*
X02156Y0178*
X02156Y0178*
X02156Y0178*
X02157Y0178*
X02157Y0178*
X02158Y01781*
X02159Y01781*
X0216Y01781*
X02161Y01781*
X02161*
X02161Y01781*
G37*
G36*
X02125Y01691D02*
X02125D01*
X02126Y01691*
X02127Y01691*
X02128Y01691*
X02129Y0169*
X0213Y0169*
X02131Y0169*
X02131Y0169*
X02132*
X02132Y0169*
X02132Y0169*
X02132Y0169*
X02132Y01689*
X02132Y01689*
X02133Y01689*
X02134Y01689*
X02135Y01688*
X02135Y01687*
X02136Y01687*
Y01687*
X02136Y01687*
X02136Y01686*
X02136Y01686*
X02136Y01686*
X02136Y01686*
X02137Y01685*
X02137Y01685*
X02137Y01684*
X02137Y01683*
X02137Y01682*
Y01681*
X02137Y01681*
Y01681*
X02137Y01681*
X02137Y0168*
X02137Y01679*
X02137Y01678*
X02136Y01678*
X02136Y01677*
X02136Y01677*
X02136Y01677*
X02135Y01677*
X02135Y01676*
X02134Y01676*
X02134Y01676*
X02133Y01675*
X02132Y01675*
X02131Y01675*
X02131Y01678*
X02131*
X02131*
X02131Y01678*
X02131Y01678*
X02132Y01678*
X02132Y01678*
X02132Y01678*
X02133Y01678*
X02133Y01679*
X02134Y01679*
X02134Y01679*
X02134Y01679*
X02134Y01679*
X02134Y0168*
X02134Y0168*
X02135Y01681*
X02135Y01681*
X02135Y01682*
Y01682*
X02135Y01682*
X02135Y01683*
X02135Y01683*
X02134Y01683*
X02134Y01684*
X02134Y01684*
X02134Y01684*
X02134Y01685*
X02134Y01685*
X02134Y01685*
X02133Y01685*
X02133Y01686*
X02133Y01686*
X02132Y01686*
X02132Y01686*
X02132Y01686*
X02132Y01686*
X02132Y01687*
X02131Y01687*
X02131Y01687*
X0213Y01687*
X02129Y01687*
X02129*
X02129Y01687*
X02129*
X02129Y01687*
X02129Y01687*
X02128Y01687*
X02128Y01688*
X02127Y01688*
X02126Y01688*
X02126*
X02126*
X02125*
X02125*
X02125*
X02125Y01688*
X02125Y01688*
X02126Y01687*
X02126Y01687*
X02126Y01687*
X02127Y01686*
X02127Y01686*
X02127Y01685*
X02127Y01685*
X02128Y01685*
X02128Y01685*
X02128Y01684*
X02128Y01684*
X02128Y01683*
X02128Y01682*
X02128Y01682*
Y01681*
X02128Y01681*
X02128Y01681*
X02128Y01681*
X02128Y0168*
X02128Y01679*
X02128Y01679*
X02127Y01678*
X02127Y01678*
X02127Y01677*
X02126Y01677*
X02126Y01676*
X02126Y01676*
X02126Y01676*
X02126Y01676*
X02126Y01676*
X02125Y01676*
X02125Y01676*
X02125Y01675*
X02124Y01675*
X02124Y01675*
X02124Y01675*
X02123Y01675*
X02123Y01675*
X02122Y01674*
X02121Y01674*
X02121Y01674*
X0212Y01674*
X0212*
X0212*
X0212*
X02119Y01674*
X02119Y01674*
X02119Y01674*
X02118Y01674*
X02118Y01674*
X02117Y01675*
X02116Y01675*
X02116Y01675*
X02115Y01675*
X02115Y01676*
X02114Y01676*
X02114Y01676*
X02114Y01676*
X02114Y01677*
X02114Y01677*
X02113Y01677*
X02113Y01677*
X02113Y01677*
X02113Y01678*
X02113Y01678*
X02112Y01678*
X02112Y01679*
X02112Y0168*
X02112Y0168*
X02112Y01681*
X02112Y01682*
X02112Y01682*
Y01682*
X02112Y01683*
Y01683*
X02112Y01683*
X02112Y01684*
X02112Y01684*
X02112Y01685*
X02112Y01686*
X02113Y01687*
Y01687*
X02113Y01687*
X02113Y01687*
X02113Y01687*
X02113Y01687*
X02114Y01688*
X02114Y01688*
X02115Y01689*
X02116Y01689*
X02117Y0169*
X02117*
X02117Y0169*
X02117Y0169*
X02117Y0169*
X02117Y0169*
X02118Y0169*
X02118Y0169*
X02118Y0169*
X02119Y0169*
X02119Y0169*
X0212Y01691*
X02121Y01691*
X02121Y01691*
X02122Y01691*
X02123Y01691*
X02124*
X02124*
X02124*
X02124*
X02125*
X02125Y01691*
G37*
G36*
X02129Y01671D02*
X02129Y01671D01*
X0213Y01671*
X0213Y01671*
X0213Y01671*
X02131Y01671*
X02131Y0167*
X02132Y0167*
X02133Y01669*
X02134Y01669*
X02135Y01668*
X02135Y01668*
X02135Y01668*
X02135Y01667*
X02135Y01667*
X02135Y01667*
X02136Y01667*
X02136Y01667*
X02136Y01666*
X02136Y01666*
X02136Y01665*
X02137Y01665*
X02137Y01664*
X02137Y01664*
X02137Y01662*
X02137Y01662*
X02137Y01661*
Y01661*
X02137Y0166*
Y0166*
X02137Y0166*
X02137Y01659*
X02137Y01659*
X02137Y01658*
X02137Y01656*
X02136Y01655*
X02136Y01655*
X02136Y01654*
X02136Y01654*
X02136Y01654*
X02135Y01654*
X02135Y01654*
X02135Y01653*
X02134Y01653*
X02134Y01652*
X02133Y01652*
X02132Y01651*
X02131Y0165*
X02131*
X02131Y0165*
X02131Y0165*
X0213Y0165*
X0213Y0165*
X0213Y0165*
X02129Y0165*
X02129Y0165*
X02128Y0165*
X02128Y0165*
X02127Y01649*
X02125Y01649*
X02124Y01649*
X02124*
X02124*
X02124*
X02123Y01649*
X02123*
X02123Y01649*
X02122Y01649*
X02122Y01649*
X02121Y01649*
X0212Y0165*
X02118Y0165*
X02117Y01651*
X02117*
X02117Y01651*
X02117Y01651*
X02117Y01651*
X02116Y01651*
X02116Y01651*
X02116Y01652*
X02115Y01652*
X02114Y01653*
X02113Y01654*
X02113Y01655*
Y01655*
X02113Y01655*
X02113Y01655*
X02113Y01655*
X02112Y01656*
X02112Y01656*
X02112Y01656*
X02112Y01657*
X02112Y01657*
X02112Y01658*
X02111Y01659*
X02111Y0166*
X02111Y01661*
Y01661*
X02111Y01662*
X02111Y01662*
X02111Y01662*
X02111Y01663*
X02111Y01663*
X02112Y01664*
X02112Y01665*
X02112Y01666*
X02113Y01666*
X02113Y01667*
X02113Y01667*
X02113Y01667*
X02113Y01667*
X02113Y01668*
X02114Y01668*
X02114Y01668*
X02114Y01668*
X02114Y01669*
X02115Y01669*
X02115Y01669*
X02115Y01669*
X02116Y0167*
X02116Y0167*
X02117Y0167*
X02117Y0167*
X02119Y01671*
X02119Y01668*
X02119*
X02119Y01668*
X02119Y01668*
X02119Y01668*
X02119Y01667*
X02118Y01667*
X02118Y01667*
X02117Y01667*
X02116Y01666*
X02116Y01666*
X02115Y01665*
X02115Y01665*
X02115Y01665*
X02115Y01664*
X02115Y01664*
X02114Y01663*
X02114Y01663*
X02114Y01662*
X02114Y01661*
Y01661*
X02114Y0166*
Y0166*
X02114Y0166*
X02114Y01659*
X02114Y01658*
X02115Y01658*
X02115Y01657*
X02115Y01656*
Y01656*
X02116Y01656*
X02116Y01656*
X02116Y01655*
X02116Y01655*
X02117Y01655*
X02118Y01654*
X02118Y01654*
X02119Y01653*
X02119*
X02119Y01653*
X02119Y01653*
X0212Y01653*
X0212Y01653*
X0212Y01653*
X02121Y01653*
X02121Y01653*
X02122Y01653*
X02123Y01653*
X02124Y01653*
X02124*
X02124*
X02124*
X02125*
X02125Y01653*
X02125*
X02126Y01653*
X02126Y01653*
X02127Y01653*
X02128Y01653*
X02129Y01653*
X0213Y01653*
X0213*
X0213Y01654*
X0213Y01654*
X0213Y01654*
X02131Y01654*
X02131Y01654*
X02132Y01655*
X02132Y01655*
X02133Y01656*
X02133Y01656*
Y01656*
X02133Y01656*
X02133Y01657*
X02133Y01657*
X02134Y01657*
X02134Y01658*
X02134Y01658*
X02134Y01659*
X02134Y0166*
X02134Y01661*
Y01661*
X02134Y01661*
Y01661*
X02134Y01662*
X02134Y01662*
X02134Y01663*
X02134Y01664*
X02133Y01665*
X02133Y01665*
X02133Y01665*
X02133Y01665*
X02133Y01666*
X02132Y01666*
X02132Y01666*
X02131Y01667*
X0213Y01667*
X02129Y01668*
X02128Y01668*
X02129Y01671*
X02129*
X02129Y01671*
G37*
G36*
X02317Y01708D02*
X02318Y01708D01*
X02318Y01708*
X02318Y01708*
X02319Y01708*
X0232Y01708*
X0232Y01707*
X02321Y01707*
X02321Y01707*
X02322Y01707*
X02322Y01706*
X02322Y01706*
X02322Y01706*
X02322Y01706*
X02323Y01706*
X02323Y01706*
X02323Y01705*
X02323Y01705*
X02323Y01705*
X02324Y01704*
X02324Y01703*
X02325Y01702*
X02325Y01702*
X02325Y01701*
X02322Y01701*
Y01701*
X02322Y01701*
Y01701*
X02322Y01701*
X02321Y01702*
X02321Y01702*
X02321Y01703*
X02321Y01703*
X0232Y01704*
X0232Y01704*
X0232Y01704*
X0232Y01705*
X02319Y01705*
X02319Y01705*
X02319Y01705*
X02318Y01705*
X02317Y01706*
X02317Y01706*
X02317*
X02316Y01706*
X02316Y01706*
X02315Y01705*
X02315Y01705*
X02314Y01705*
X02314Y01705*
X02313Y01704*
X02313Y01704*
X02313Y01704*
X02313Y01704*
X02312Y01703*
X02312Y01703*
X02312Y01702*
X02312Y01701*
X02312Y017*
Y017*
Y017*
Y017*
X02312Y017*
X02312Y017*
X02312Y01699*
X02312Y01699*
X02312Y01698*
X02313Y01697*
X02313Y01697*
X02313Y01697*
X02313Y01697*
X02314Y01696*
X02314Y01696*
X02314Y01696*
X02315Y01696*
X02316Y01696*
X02316Y01695*
X02317*
X02317Y01695*
X02317Y01696*
X02318Y01696*
X02318Y01696*
X02319Y01696*
X02318Y01693*
X02318*
X02318Y01693*
X02317*
X02317Y01693*
X02317Y01693*
X02316Y01693*
X02316Y01693*
X02315Y01692*
X02314Y01692*
X02314Y01692*
X02314Y01692*
X02314Y01692*
X02313Y01691*
X02313Y01691*
X02313Y0169*
X02313Y0169*
X02313Y01689*
Y01689*
Y01689*
Y01689*
X02313Y01688*
X02313Y01688*
X02313Y01687*
X02313Y01687*
X02313Y01687*
X02314Y01686*
X02314Y01686*
X02314Y01686*
X02314Y01686*
X02315Y01686*
X02315Y01685*
X02316Y01685*
X02316Y01685*
X02317Y01685*
X02317*
X02317Y01685*
X02318Y01685*
X02318Y01685*
X02319Y01685*
X02319Y01686*
X0232Y01686*
X0232Y01686*
X0232Y01686*
X0232Y01687*
X0232Y01687*
X02321Y01687*
X02321Y01688*
X02321Y01689*
X02321Y01689*
X02324Y01689*
Y01689*
X02324Y01689*
X02324Y01689*
X02324Y01688*
X02324Y01688*
X02324Y01688*
X02324Y01687*
X02324Y01686*
X02323Y01686*
X02323Y01685*
X02322Y01684*
X02322Y01684*
X02322Y01684*
X02322Y01684*
X02322Y01684*
X02321Y01684*
X02321Y01684*
X02321Y01683*
X0232Y01683*
X02319Y01683*
X02318Y01682*
X02317Y01682*
X02317*
X02316Y01682*
X02316Y01683*
X02315Y01683*
X02314Y01683*
X02314Y01683*
X02313Y01683*
X02313*
X02313Y01683*
X02313Y01683*
X02312Y01684*
X02312Y01684*
X02312Y01684*
X02311Y01685*
X02311Y01685*
X0231Y01686*
X0231Y01686*
X0231Y01686*
X0231Y01686*
X0231Y01687*
X0231Y01687*
X0231Y01688*
X0231Y01688*
X0231Y01689*
Y01689*
Y01689*
X0231Y0169*
X0231Y0169*
X0231Y0169*
X0231Y01691*
X0231Y01691*
X0231Y01692*
X0231Y01692*
X02311Y01692*
X02311Y01692*
X02311Y01693*
X02311Y01693*
X02312Y01693*
X02312Y01694*
X02313Y01694*
X02313*
X02313Y01694*
X02313*
X02313Y01694*
X02312Y01694*
X02312Y01695*
X02311Y01695*
X02311Y01695*
X0231Y01696*
X0231Y01696*
X0231Y01696*
X02309Y01697*
X02309Y01697*
X02309Y01697*
X02309Y01698*
X02308Y01699*
X02308Y01699*
X02308Y017*
Y017*
Y017*
Y01701*
X02308Y01701*
X02308Y01701*
X02308Y01701*
X02308Y01702*
X02309Y01702*
X02309Y01703*
X02309Y01704*
X02309Y01704*
X0231Y01705*
X0231Y01705*
X0231Y01705*
X02311Y01706*
X02311Y01706*
X02311Y01706*
X02311Y01706*
X02311Y01706*
X02311Y01706*
X02312Y01707*
X02312Y01707*
X02312Y01707*
X02313Y01707*
X02313Y01707*
X02314Y01708*
X02314Y01708*
X02315Y01708*
X02315Y01708*
X02316Y01708*
X02317Y01708*
X02317*
X02317Y01708*
G37*
G36*
X02339D02*
X02339D01*
X02339Y01708*
X0234Y01708*
X0234Y01708*
X02341Y01708*
X02343Y01707*
X02344Y01707*
X02344Y01707*
X02345Y01707*
X02345Y01706*
X02345Y01706*
X02345Y01706*
X02345Y01706*
X02346Y01706*
X02346Y01705*
X02347Y01705*
X02347Y01704*
X02348Y01703*
X02349Y01702*
Y01702*
X02349Y01702*
X02349Y01701*
X02349Y01701*
X02349Y01701*
X02349Y01701*
X02349Y017*
X02349Y017*
X02349Y01699*
X02349Y01699*
X0235Y01698*
X0235Y01696*
X0235Y01695*
Y01695*
Y01695*
Y01695*
X0235Y01694*
Y01694*
X0235Y01694*
X0235Y01693*
X0235Y01693*
X0235Y01692*
X02349Y0169*
X02349Y01689*
X02348Y01688*
Y01688*
X02348Y01688*
X02348Y01688*
X02348Y01688*
X02348Y01687*
X02348Y01687*
X02347Y01686*
X02347Y01686*
X02346Y01685*
X02345Y01684*
X02344Y01684*
X02344*
X02344Y01684*
X02344Y01683*
X02344Y01683*
X02343Y01683*
X02343Y01683*
X02343Y01683*
X02342Y01683*
X02342Y01683*
X02341Y01683*
X0234Y01682*
X02339Y01682*
X02338Y01682*
X02338*
X02337Y01682*
X02337Y01682*
X02337Y01682*
X02336Y01682*
X02336Y01682*
X02335Y01683*
X02334Y01683*
X02333Y01683*
X02333Y01683*
X02332Y01684*
X02332Y01684*
X02332Y01684*
X02332Y01684*
X02331Y01684*
X02331Y01684*
X02331Y01685*
X02331Y01685*
X02331Y01685*
X0233Y01685*
X0233Y01686*
X0233Y01686*
X02329Y01687*
X02329Y01687*
X02329Y01688*
X02329Y01688*
X02328Y01689*
X02331Y0169*
Y0169*
X02331Y0169*
X02331Y0169*
X02332Y0169*
X02332Y0169*
X02332Y01689*
X02332Y01689*
X02332Y01688*
X02333Y01687*
X02333Y01687*
X02334Y01686*
X02334Y01686*
X02334Y01686*
X02335Y01686*
X02335Y01686*
X02336Y01685*
X02336Y01685*
X02337Y01685*
X02338Y01685*
X02338*
X02339Y01685*
X02339*
X02339Y01685*
X0234Y01685*
X02341Y01685*
X02341Y01686*
X02342Y01686*
X02343Y01686*
X02343*
X02343Y01686*
X02343Y01687*
X02344Y01687*
X02344Y01687*
X02344Y01688*
X02345Y01689*
X02345Y01689*
X02346Y0169*
Y0169*
X02346Y0169*
X02346Y0169*
X02346Y01691*
X02346Y01691*
X02346Y01691*
X02346Y01692*
X02346Y01692*
X02346Y01693*
X02346Y01694*
X02346Y01695*
Y01695*
Y01695*
Y01695*
Y01695*
X02346Y01696*
Y01696*
X02346Y01696*
X02346Y01697*
X02346Y01698*
X02346Y01699*
X02346Y017*
X02346Y01701*
Y01701*
X02345Y01701*
X02345Y01701*
X02345Y01701*
X02345Y01701*
X02345Y01702*
X02344Y01703*
X02344Y01703*
X02343Y01704*
X02343Y01704*
X02343*
X02343Y01704*
X02342Y01704*
X02342Y01704*
X02342Y01705*
X02341Y01705*
X02341Y01705*
X0234Y01705*
X02339Y01705*
X02338Y01705*
X02338*
X02338Y01705*
X02338*
X02337Y01705*
X02337Y01705*
X02336Y01705*
X02335Y01705*
X02334Y01704*
X02334Y01704*
X02334Y01704*
X02334Y01704*
X02333Y01703*
X02333Y01703*
X02333Y01703*
X02332Y01702*
X02332Y01701*
X02331Y017*
X02331Y01699*
X02328Y017*
Y017*
X02328Y017*
X02328Y017*
X02328Y017*
X02328Y01701*
X02328Y01701*
X02328Y01702*
X02329Y01702*
X02329Y01703*
X0233Y01704*
X0233Y01705*
X02331Y01706*
X02331Y01706*
X02331Y01706*
X02332Y01706*
X02332Y01706*
X02332Y01706*
X02332Y01707*
X02333Y01707*
X02333Y01707*
X02333Y01707*
X02334Y01707*
X02334Y01707*
X02335Y01708*
X02335Y01708*
X02337Y01708*
X02337Y01708*
X02338Y01708*
X02338*
X02339Y01708*
G37*
G36*
X03322Y01426D02*
X03322D01*
X03323Y01426*
X03323Y01426*
X03324Y01425*
X03325Y01425*
X03326Y01425*
X03327Y01425*
X03327Y01424*
X03328Y01424*
X03328Y01424*
X03328Y01424*
X03328Y01424*
X03328Y01424*
X03329Y01423*
X03329Y01423*
X0333Y01422*
X03331Y01421*
X03331Y0142*
X03332Y01419*
Y01419*
X03332Y01419*
X03332Y01419*
X03332Y01419*
X03332Y01418*
X03332Y01418*
X03332Y01418*
X03333Y01417*
X03333Y01417*
X03333Y01416*
X03333Y01415*
X03333Y01414*
X03333Y01412*
Y01412*
Y01412*
Y01412*
X03333Y01412*
Y01411*
X03333Y01411*
X03333Y01411*
X03333Y0141*
X03333Y01409*
X03333Y01408*
X03332Y01407*
X03332Y01406*
Y01406*
X03332Y01405*
X03332Y01405*
X03331Y01405*
X03331Y01405*
X03331Y01405*
X03331Y01404*
X0333Y01403*
X03329Y01402*
X03328Y01402*
X03327Y01401*
X03327*
X03327Y01401*
X03327Y01401*
X03327Y01401*
X03327Y01401*
X03326Y01401*
X03326Y01401*
X03326Y014*
X03325Y014*
X03325Y014*
X03324Y014*
X03323Y014*
X03321Y014*
X03321*
X03321Y014*
X0332Y014*
X0332Y014*
X0332Y014*
X03319Y014*
X03318Y014*
X03317Y014*
X03316Y01401*
X03316Y01401*
X03315Y01401*
X03315Y01402*
X03315Y01402*
X03315Y01402*
X03315Y01402*
X03315Y01402*
X03314Y01402*
X03314Y01402*
X03314Y01403*
X03314Y01403*
X03313Y01403*
X03313Y01404*
X03313Y01404*
X03312Y01405*
X03312Y01405*
X03312Y01406*
X03311Y01407*
X03315Y01408*
Y01408*
X03315Y01408*
X03315Y01407*
X03315Y01407*
X03315Y01407*
X03315Y01407*
X03315Y01406*
X03316Y01406*
X03316Y01405*
X03317Y01404*
X03317Y01404*
X03317Y01404*
X03317Y01404*
X03318Y01403*
X03318Y01403*
X03319Y01403*
X0332Y01403*
X0332Y01402*
X03321Y01402*
X03322*
X03322Y01402*
X03322*
X03322Y01403*
X03323Y01403*
X03324Y01403*
X03325Y01403*
X03325Y01403*
X03326Y01404*
X03326*
X03326Y01404*
X03327Y01404*
X03327Y01404*
X03327Y01405*
X03328Y01405*
X03328Y01406*
X03329Y01407*
X03329Y01408*
Y01408*
X03329Y01408*
X03329Y01408*
X03329Y01408*
X03329Y01408*
X03329Y01409*
X03329Y01409*
X03329Y0141*
X0333Y01411*
X0333Y01412*
X0333Y01412*
Y01413*
Y01413*
Y01413*
Y01413*
X0333Y01413*
Y01414*
X0333Y01414*
X0333Y01414*
X03329Y01415*
X03329Y01416*
X03329Y01417*
X03329Y01418*
Y01418*
X03329Y01418*
X03329Y01418*
X03329Y01418*
X03328Y01419*
X03328Y01419*
X03328Y0142*
X03327Y01421*
X03327Y01421*
X03326Y01422*
X03326*
X03326Y01422*
X03326Y01422*
X03326Y01422*
X03325Y01422*
X03325Y01422*
X03324Y01422*
X03323Y01423*
X03322Y01423*
X03322Y01423*
X03321*
X03321Y01423*
X03321*
X03321Y01423*
X0332Y01423*
X03319Y01422*
X03318Y01422*
X03318Y01422*
X03317Y01421*
X03317Y01421*
X03317Y01421*
X03317Y01421*
X03316Y01421*
X03316Y0142*
X03315Y01419*
X03315Y01419*
X03315Y01418*
X03314Y01416*
X03311Y01417*
Y01417*
X03311Y01417*
X03311Y01418*
X03311Y01418*
X03311Y01418*
X03311Y01419*
X03312Y01419*
X03312Y0142*
X03312Y01421*
X03313Y01422*
X03314Y01423*
X03314Y01423*
X03315Y01424*
X03315Y01424*
X03315Y01424*
X03315Y01424*
X03315Y01424*
X03315Y01424*
X03316Y01424*
X03316Y01424*
X03317Y01425*
X03317Y01425*
X03317Y01425*
X03318Y01425*
X03319Y01425*
X0332Y01426*
X03321Y01426*
X03321Y01426*
X03322*
X03322Y01426*
G37*
G36*
X03299Y01406D02*
X033Y01406D01*
X033Y01406*
X033Y01406*
X033Y01406*
X03301Y01407*
X03301Y01407*
X03302Y01407*
X03302Y01408*
X03302*
X03303Y01408*
X03303Y01408*
X03303Y01408*
X03304Y01408*
X03304Y01409*
X03305Y01409*
X03305Y01409*
X03306Y01409*
Y01406*
X03306*
X03306Y01406*
X03305Y01406*
X03305Y01406*
X03305Y01406*
X03305Y01406*
X03304Y01405*
X03303Y01405*
X03303Y01405*
X03302Y01404*
X03301Y01403*
X03301Y01403*
X03301Y01403*
X03301Y01403*
X03301Y01403*
X033Y01402*
X033Y01402*
X03299Y01401*
X03299Y01401*
X03298Y014*
X03296*
Y01425*
X03299*
Y01406*
G37*
G36*
X03289Y01425D02*
Y01425D01*
Y01425*
X03289Y01425*
X03289Y01424*
X03289Y01424*
X03289Y01424*
X03289Y01423*
Y01423*
X03289Y01423*
X03288Y01423*
X03288Y01423*
X03288Y01422*
X03288Y01422*
X03287Y01421*
X03287Y0142*
X03287Y0142*
Y0142*
X03286Y0142*
X03286Y0142*
X03286Y01419*
X03285Y01419*
X03285Y01418*
X03284Y01418*
X03283Y01417*
X03282Y01416*
X03282Y01416*
X03282Y01416*
X03282Y01416*
X03282Y01415*
X03281Y01415*
X03281Y01415*
X0328Y01414*
X03279Y01413*
X03278Y01412*
X03278Y01412*
X03278Y01411*
X03277Y01411*
X03277Y01411*
Y01411*
X03277Y01411*
X03277Y0141*
X03277Y0141*
X03276Y0141*
X03276Y01409*
X03276Y01409*
X03276Y01408*
X03275Y01408*
X03275Y01407*
Y01407*
Y01407*
X03275Y01407*
X03275Y01406*
X03276Y01406*
X03276Y01405*
X03276Y01405*
X03276Y01404*
X03277Y01404*
X03277Y01404*
X03277Y01404*
X03277Y01403*
X03278Y01403*
X03278Y01403*
X03279Y01403*
X03279Y01403*
X0328Y01402*
X0328*
X03281Y01403*
X03281Y01403*
X03281Y01403*
X03282Y01403*
X03283Y01403*
X03283Y01403*
X03284Y01404*
X03284Y01404*
X03284Y01404*
X03284Y01404*
X03284Y01405*
X03285Y01405*
X03285Y01406*
X03285Y01407*
X03285Y01408*
X03288Y01407*
Y01407*
Y01407*
X03288Y01407*
X03288Y01407*
X03288Y01406*
X03288Y01406*
X03288Y01405*
X03288Y01404*
X03287Y01403*
X03287Y01403*
X03286Y01402*
X03286Y01402*
X03286Y01402*
X03286Y01402*
X03286Y01402*
X03286Y01401*
X03285Y01401*
X03285Y01401*
X03285Y01401*
X03284Y01401*
X03284Y01401*
X03284Y014*
X03283Y014*
X03283Y014*
X03281Y014*
X03281Y014*
X0328Y014*
X0328*
X0328Y014*
X03279Y014*
X03279Y014*
X03278Y014*
X03278Y014*
X03277Y014*
X03276Y01401*
X03276Y01401*
X03275Y01401*
X03275Y01402*
X03274Y01402*
X03274Y01402*
X03274Y01402*
X03274Y01402*
X03274Y01402*
X03274Y01403*
X03274Y01403*
X03273Y01403*
X03273Y01404*
X03273Y01405*
X03272Y01406*
X03272Y01406*
X03272Y01407*
Y01407*
Y01407*
X03272Y01408*
X03272Y01408*
X03272Y01408*
X03272Y01409*
X03273Y01409*
X03273Y0141*
X03273Y0141*
X03273Y0141*
X03273Y0141*
X03273Y01411*
X03274Y01411*
X03274Y01412*
X03274Y01412*
X03275Y01413*
X03275Y01413*
X03275Y01413*
X03276Y01414*
X03276Y01414*
X03276Y01414*
X03276Y01414*
X03277Y01415*
X03277Y01415*
X03278Y01416*
X03278Y01416*
X03279Y01416*
X03279Y01417*
X0328Y01417*
X0328Y01418*
X0328Y01418*
X0328Y01418*
X0328Y01418*
X03281Y01418*
X03281Y01419*
X03282Y01419*
X03282Y0142*
X03283Y0142*
X03283Y0142*
X03283Y01421*
X03283Y01421*
X03283Y01421*
X03284Y01421*
X03284Y01421*
X03284Y01422*
X03285Y01422*
X03272*
Y01425*
X03289*
Y01425*
G37*
G36*
X03706Y01313D02*
X03686D01*
X03686Y01313*
X03687Y01313*
X03687Y01313*
X03687Y01313*
X03687Y01312*
X03688Y01312*
X03688Y01311*
X03689Y01311*
Y0131*
X03689Y0131*
X03689Y0131*
X03689Y0131*
X03689Y01309*
X03689Y01309*
X0369Y01308*
X0369Y01308*
X0369Y01307*
X03687*
Y01307*
X03687Y01307*
X03687Y01308*
X03687Y01308*
X03687Y01308*
X03687Y01308*
X03686Y01309*
X03686Y0131*
X03685Y0131*
X03685Y01311*
X03684Y01312*
X03684Y01312*
X03684Y01312*
X03684Y01312*
X03684Y01312*
X03683Y01313*
X03683Y01313*
X03682Y01314*
X03681Y01314*
X03681Y01315*
Y01317*
X03706*
Y01313*
G37*
G36*
X037Y01302D02*
X037Y01301D01*
X037Y01301*
X03701Y01301*
X03702Y01301*
X03702Y01301*
X03702Y01301*
X03702Y01301*
X03703Y013*
X03703Y013*
X03703Y013*
X03704Y013*
X03704Y01299*
X03705Y01299*
X03705Y01299*
X03705Y01299*
X03705Y01299*
X03705Y01298*
X03705Y01298*
X03705Y01297*
X03706Y01297*
X03706Y01296*
Y01296*
X03706Y01296*
X03706Y01296*
X03706Y01295*
X03706Y01294*
X03706Y01294*
X03706Y01293*
Y01283*
X03681*
Y01292*
X03681Y01293*
Y01293*
X03681Y01294*
X03681Y01294*
X03681Y01295*
X03681Y01296*
X03682Y01297*
Y01297*
X03682Y01297*
X03682Y01297*
X03682Y01297*
X03682Y01298*
X03683Y01298*
X03683Y01298*
X03684Y01299*
X03684Y01299*
X03684Y01299*
X03684Y01299*
X03685Y013*
X03685Y013*
X03686Y013*
X03686Y013*
X03687Y013*
X03687Y013*
X03688*
X03688*
X03688Y013*
X03688Y013*
X03689Y013*
X03689Y013*
X0369Y013*
X03691Y01299*
X03691Y01299*
X03691Y01299*
X03691Y01299*
X03691Y01299*
X03692Y01298*
X03692Y01298*
X03692Y01297*
X03693Y01297*
Y01297*
X03693Y01297*
X03693Y01297*
X03693Y01297*
X03693Y01298*
X03693Y01298*
X03694Y01299*
X03694Y01299*
X03695Y013*
X03695Y013*
X03695Y013*
X03695Y013*
X03696Y01301*
X03696Y01301*
X03697Y01301*
X03697Y01301*
X03698Y01302*
X03699Y01302*
X03699*
X03699*
X037Y01302*
G37*
G36*
X03684Y01265D02*
X03692D01*
Y01276*
X03695*
Y01265*
X03706*
Y01261*
X03681*
Y01278*
X03684*
Y01265*
G37*
%LN5th_year_project-2*%
%LPC*%
G36*
X02144Y02239D02*
X02132D01*
X02144Y02231*
Y02239*
G37*
G36*
X0303Y02911D02*
X0303D01*
X0303*
X0303*
X0303Y02911*
X0303*
X0303Y02911*
X03029Y02911*
X03028Y02911*
X03028Y0291*
X03027Y0291*
X03026Y0291*
X03026Y0291*
X03026Y02909*
X03026Y02909*
X03026Y02909*
X03025Y02908*
X03025Y02908*
X03025Y02907*
X03025Y02906*
Y02906*
X03025Y02906*
X03025Y02905*
X03025Y02905*
X03025Y02904*
X03025Y02904*
X03026Y02903*
X03026Y02903*
X03026Y02902*
X03027Y02902*
X03027Y02902*
X03027Y02902*
X03028Y02902*
X03029Y02901*
X03029Y02901*
X0303Y02901*
X0303*
X03031*
X03031Y02901*
X03031Y02901*
X03032Y02901*
X03032Y02901*
X03033Y02901*
X03033Y02902*
X03033Y02902*
X03034Y02902*
X03034Y02902*
X03034Y02902*
X03035Y02902*
X03035Y02903*
X03035Y02903*
X03036Y02904*
X03036Y02904*
X03036Y02904*
X03036Y02904*
X03036Y02904*
X03036Y02905*
X03036Y02905*
X03036Y02906*
X03036Y02906*
Y02906*
X03036Y02907*
X03036Y02907*
X03036Y02907*
X03036Y02908*
X03036Y02908*
X03035Y02909*
X03035Y0291*
X03035Y0291*
X03034Y0291*
X03034Y0291*
X03034Y0291*
X03033Y0291*
X03032Y02911*
X03031Y02911*
X0303Y02911*
G37*
G36*
X0302Y0289D02*
X0302D01*
X0302*
X0302*
X0302Y0289*
X03019Y0289*
X03019Y0289*
X03018Y0289*
X03018Y02889*
X03017Y02889*
X03017Y02889*
X03017Y02889*
X03017Y02888*
X03017Y02888*
X03016Y02887*
X03016Y02887*
X03016Y02886*
X03016Y02885*
Y02877*
X03024*
Y02884*
X03024Y02885*
X03024Y02885*
X03024Y02886*
X03024Y02886*
X03024Y02887*
X03024Y02888*
X03024Y02888*
X03024Y02888*
X03024Y02888*
X03024Y02888*
X03023Y02889*
X03023Y02889*
X03023Y02889*
X03022Y0289*
X03022Y0289*
X03022Y0289*
X03022Y0289*
X03022Y0289*
X03021Y0289*
X03021Y0289*
X03021Y0289*
X0302Y0289*
G37*
G36*
X03483Y02786D02*
X03474D01*
Y02779*
X03474Y02778*
X03474Y02778*
X03474Y02777*
X03474Y02777*
X03475Y02776*
X03475Y02776*
X03475Y02776*
X03475Y02775*
X03475Y02775*
X03475Y02775*
X03475Y02775*
X03476Y02774*
X03476Y02774*
X03476Y02774*
X03476Y02774*
X03476Y02774*
X03477Y02774*
X03477Y02773*
X03477Y02773*
X03478Y02773*
X03478Y02773*
X03478Y02773*
X03478*
X03479*
X03479*
X03479Y02773*
X03479Y02773*
X0348Y02773*
X0348Y02774*
X03481Y02774*
X03481Y02774*
X03481Y02774*
X03482Y02775*
X03482Y02775*
X03482Y02775*
X03482Y02776*
X03482Y02777*
X03483Y02777*
X03483Y02778*
Y02786*
G37*
G36*
X03381Y02795D02*
X03372D01*
Y02788*
X03372Y02787*
X03372Y02787*
X03372Y02786*
X03372Y02786*
X03373Y02785*
X03373Y02785*
X03373Y02785*
X03373Y02784*
X03373Y02784*
X03373Y02784*
X03373Y02784*
X03374Y02783*
X03374Y02783*
X03374Y02783*
X03374Y02783*
X03374Y02783*
X03375Y02782*
X03375Y02782*
X03375Y02782*
X03376Y02782*
X03376Y02782*
X03377Y02782*
X03377*
X03377*
X03377*
X03377Y02782*
X03378Y02782*
X03378Y02782*
X03379Y02783*
X03379Y02783*
X03379Y02783*
X0338Y02783*
X0338Y02784*
X0338Y02784*
X0338Y02784*
X0338Y02785*
X0338Y02786*
X03381Y02786*
X03381Y02787*
Y02795*
G37*
G36*
X0327D02*
X03262D01*
Y02788*
X03262Y02787*
X03262Y02787*
X03262Y02786*
X03262Y02786*
X03262Y02785*
X03262Y02785*
X03262Y02785*
X03262Y02784*
X03262Y02784*
X03262Y02784*
X03263Y02784*
X03263Y02783*
X03263Y02783*
X03264Y02783*
X03264Y02783*
X03264Y02783*
X03264Y02782*
X03264Y02782*
X03265Y02782*
X03265Y02782*
X03265Y02782*
X03266Y02782*
X03266*
X03266*
X03266*
X03266Y02782*
X03267Y02782*
X03267Y02782*
X03268Y02783*
X03268Y02783*
X03269Y02783*
X03269Y02783*
X03269Y02784*
X03269Y02784*
X03269Y02784*
X0327Y02785*
X0327Y02786*
X0327Y02786*
X0327Y02787*
Y02795*
G37*
G36*
X03256Y02773D02*
Y02765D01*
X03268*
X03256Y02773*
G37*
G36*
X03111Y02815D02*
X03111D01*
X03111*
X0311*
X0311Y02815*
X0311Y02815*
X03109Y02815*
X03109Y02815*
X03108Y02815*
X03108Y02814*
X03108Y02814*
X03108Y02814*
X03107Y02814*
X03107Y02813*
X03107Y02813*
X03107Y02812*
X03107Y02811*
X03107Y0281*
Y02802*
X03115*
Y0281*
X03115Y0281*
X03115Y02811*
X03115Y02811*
X03115Y02812*
X03115Y02812*
X03114Y02813*
X03114Y02813*
X03114Y02813*
X03114Y02813*
X03114Y02814*
X03114Y02814*
X03114Y02814*
X03113Y02814*
X03113Y02815*
X03113Y02815*
X03113Y02815*
X03113Y02815*
X03112Y02815*
X03112Y02815*
X03112Y02815*
X03111Y02815*
X03111Y02815*
G37*
G36*
X02737Y01474D02*
X02732D01*
Y01455*
X02738*
X02738Y01455*
X02739Y01455*
X0274Y01455*
X0274Y01455*
X02741Y01455*
X02741Y01455*
X02741Y01455*
X02742Y01455*
X02742Y01455*
X02742Y01456*
X02743Y01456*
X02743Y01456*
X02743Y01456*
X02744Y01456*
X02744Y01457*
X02744Y01457*
X02744Y01457*
X02744Y01457*
X02745Y01458*
X02745Y01458*
X02745Y01459*
X02746Y0146*
Y0146*
X02746Y0146*
X02746Y0146*
X02746Y0146*
X02746Y0146*
X02746Y0146*
X02746Y01461*
X02746Y01462*
X02746Y01463*
X02746Y01463*
X02746Y01465*
Y01465*
Y01465*
Y01465*
Y01465*
X02746Y01466*
X02746Y01466*
X02746Y01466*
X02746Y01467*
X02746Y01468*
X02746Y01469*
X02745Y0147*
X02745Y0147*
X02745Y01471*
Y01471*
X02745Y01471*
X02745Y01471*
X02745Y01471*
X02744Y01471*
X02744Y01472*
X02744Y01472*
X02743Y01473*
X02742Y01473*
X02742Y01473*
X02742Y01474*
X02741Y01474*
X02741Y01474*
X02741Y01474*
X0274Y01474*
X02739Y01474*
X02738Y01474*
X02737Y01474*
G37*
G36*
X01819Y02526D02*
X01814D01*
Y02507*
X0182*
X0182Y02507*
X01821Y02507*
X01821Y02507*
X01822Y02507*
X01823Y02507*
X01823Y02507*
X01823Y02507*
X01823Y02507*
X01824Y02508*
X01824Y02508*
X01824Y02508*
X01825Y02508*
X01825Y02508*
X01825Y02509*
X01825Y02509*
X01826Y02509*
X01826Y02509*
X01826Y02509*
X01826Y0251*
X01827Y0251*
X01827Y02511*
X01827Y02512*
Y02512*
X01827Y02512*
X01827Y02512*
X01827Y02512*
X01827Y02512*
X01827Y02513*
X01828Y02513*
X01828Y02514*
X01828Y02515*
X01828Y02516*
X01828Y02517*
Y02517*
Y02517*
Y02517*
Y02517*
X01828Y02518*
X01828Y02518*
X01828Y02518*
X01828Y02519*
X01828Y0252*
X01827Y02521*
X01827Y02522*
X01827Y02522*
X01827Y02523*
Y02523*
X01827Y02523*
X01826Y02523*
X01826Y02523*
X01826Y02523*
X01826Y02524*
X01825Y02524*
X01825Y02525*
X01824Y02525*
X01823Y02526*
X01823Y02526*
X01823Y02526*
X01823Y02526*
X01822Y02526*
X01822Y02526*
X01821Y02526*
X0182Y02526*
X01819Y02526*
G37*
G36*
X01949Y02855D02*
X01941Y02843D01*
X01949*
Y02855*
G37*
G36*
X02156Y01957D02*
X0215D01*
Y01949*
X02156*
X02157Y01949*
X02157Y01949*
X02158Y01949*
X02158Y01949*
X02159Y01949*
X02159Y01949*
X02159Y01949*
X02159Y0195*
X02159Y0195*
X0216Y0195*
X0216Y0195*
X0216Y0195*
X02161Y01951*
X02161Y01951*
X02161Y01951*
X02161Y01951*
X02161Y01951*
X02161Y01952*
X02161Y01952*
X02161Y01952*
X02161Y01953*
Y01953*
Y01953*
X02161Y01953*
X02161Y01954*
X02161Y01954*
X02161Y01954*
X02161Y01955*
X02161Y01955*
X02161Y01955*
X0216Y01955*
X0216Y01955*
X0216Y01956*
X0216Y01956*
X0216Y01956*
X02159Y01956*
X02159Y01956*
X02159*
X02159Y01957*
X02158Y01957*
X02158Y01957*
X02157Y01957*
X02157Y01957*
X02156Y01957*
G37*
G36*
X02157Y01946D02*
X0215D01*
Y01938*
X02157*
X02158Y01938*
X02158Y01938*
X02159Y01938*
X02159*
X02159Y01938*
X02159Y01938*
X02159Y01938*
X0216Y01938*
X0216Y01938*
X02161Y01938*
X02161Y01938*
X02161Y01938*
X02161Y01939*
X02161Y01939*
X02161Y01939*
X02162Y01939*
X02162Y0194*
X02162Y0194*
X02162Y0194*
X02162Y0194*
X02162Y0194*
X02162Y01941*
X02162Y01941*
X02162Y01941*
X02162Y01942*
Y01942*
Y01942*
X02162Y01942*
X02162Y01943*
X02162Y01943*
X02162Y01943*
X02162Y01944*
X02162Y01944*
X02161Y01944*
X02161Y01944*
X02161Y01945*
X02161Y01945*
X02161Y01945*
X0216Y01945*
X0216Y01946*
X0216Y01946*
X02159Y01946*
X02159Y01946*
X02159Y01946*
X02159Y01946*
X02158Y01946*
X02157Y01946*
X02157Y01946*
G37*
G36*
X02151Y02295D02*
X02151D01*
X02151*
X0215Y02295*
X0215Y02295*
X02149Y02295*
X02149Y02295*
X02148Y02294*
X02148Y02294*
X02148Y02294*
X02147Y02294*
X02147Y02294*
X02147Y02294*
X02147Y02293*
X02146Y02293*
X02146Y02293*
X02145Y02292*
X02145Y02292*
X02145Y02292*
X02145Y02292*
X02145Y02292*
X02145Y02291*
X02145Y02291*
X02145Y0229*
X02145Y0229*
Y0229*
X02145Y02289*
X02145Y02289*
X02145Y02289*
X02145Y02288*
X02145Y02288*
X02146Y02287*
X02146Y02286*
X02146Y02286*
X02147Y02286*
X02147Y02286*
X02147Y02286*
X02148Y02285*
X02149Y02285*
X0215Y02285*
X02151Y02285*
X02151*
X02151*
X02151*
X02151Y02285*
X02151*
X02152Y02285*
X02152Y02285*
X02153Y02285*
X02153Y02286*
X02154Y02286*
X02155Y02286*
X02155Y02286*
X02155Y02287*
X02155Y02287*
X02156Y02287*
X02156Y02288*
X02156Y02288*
X02156Y02289*
X02156Y0229*
Y0229*
X02156Y0229*
X02156Y02291*
X02156Y02291*
X02156Y02292*
X02156Y02292*
X02155Y02293*
X02155Y02293*
X02155Y02294*
X02154Y02294*
X02154Y02294*
X02154Y02294*
X02153Y02294*
X02152Y02295*
X02152Y02295*
X02151Y02295*
G37*
G36*
X02345Y02676D02*
X02337D01*
Y02668*
X02345*
X02345Y02668*
X02346Y02668*
X02347Y02668*
X02347Y02668*
X02348Y02668*
X02348Y02668*
X02348Y02668*
X02348Y02668*
X02349Y02668*
X02349Y02668*
X02349Y02669*
X0235Y02669*
X0235Y02669*
X0235Y0267*
X0235Y0267*
X0235Y0267*
X0235Y0267*
X02351Y0267*
X02351Y02671*
X02351Y02671*
X02351Y02671*
X02351Y02672*
Y02672*
Y02672*
Y02672*
X02351Y02672*
X02351Y02673*
X02351Y02673*
X0235Y02674*
X0235Y02674*
X0235Y02675*
X02349Y02675*
X02349Y02675*
X02349Y02675*
X02349Y02675*
X02348Y02676*
X02347Y02676*
X02346Y02676*
X02345Y02676*
G37*
G36*
X01644Y02497D02*
X01636D01*
X01636Y02497*
X01635Y02497*
X01635Y02497*
X01634Y02497*
X01634Y02496*
X01633Y02496*
X01633Y02496*
X01633Y02496*
X01633Y02496*
X01632Y02496*
X01632Y02496*
X01632Y02495*
X01631Y02495*
X01631Y02495*
X01631Y02495*
X01631Y02495*
X01631Y02494*
X01631Y02494*
X01631Y02494*
X01631Y02493*
X0163Y02493*
X0163Y02493*
Y02493*
Y02493*
Y02492*
X01631Y02492*
X01631Y02492*
X01631Y02491*
X01631Y02491*
X01631Y0249*
X01632Y0249*
X01632Y0249*
X01632Y02489*
X01632Y02489*
X01633Y02489*
X01633Y02489*
X01634Y02489*
X01635Y02489*
X01636Y02488*
X01644*
Y02497*
G37*
G36*
X01615Y02509D02*
X01615D01*
X01614Y02509*
X01614Y02509*
X01613Y02509*
X01613Y02508*
X01612Y02508*
X01612Y02508*
X01611Y02507*
X01611Y02507*
X01611Y02507*
X01611Y02507*
X0161Y02506*
X0161Y02506*
X0161Y02505*
X0161Y02505*
X0161Y02504*
Y02504*
Y02504*
Y02503*
X0161Y02503*
X0161Y02503*
X0161Y02502*
X0161Y02502*
X0161Y02501*
X01611Y02501*
X01611Y025*
X01611Y025*
X01611Y025*
X01612Y025*
X01612Y02499*
X01613Y02499*
X01613Y02499*
X01614Y02499*
X01615Y02499*
X01615*
X01615Y02499*
X01616Y02499*
X01616Y02499*
X01617Y02499*
X01617Y02499*
X01618Y02499*
X01618Y025*
X01619Y025*
X01619Y025*
X01619Y02501*
X01619Y02501*
X01619Y02502*
X0162Y02502*
X0162Y02503*
X0162Y02504*
Y02504*
Y02504*
X0162Y02504*
X0162Y02504*
X0162Y02505*
X0162Y02505*
X01619Y02506*
X01619Y02506*
X01619Y02506*
X01619Y02506*
X01619Y02507*
X01619Y02507*
X01619Y02507*
X01618Y02508*
X01618Y02508*
X01617Y02508*
X01617Y02508*
X01617Y02508*
X01617Y02508*
X01617Y02508*
X01616Y02509*
X01616Y02509*
X01615Y02509*
X01615Y02509*
G37*
G36*
X01615Y02496D02*
X01614D01*
X01614Y02496*
X01614Y02496*
X01613Y02496*
X01613Y02496*
X01612Y02495*
X01612Y02495*
X01612Y02495*
X01612Y02495*
X01611Y02494*
X01611Y02494*
X01611Y02494*
X01611Y02493*
X01611Y02493*
X01611Y02492*
Y02492*
Y02492*
Y02492*
X01611Y02492*
X01611Y02491*
X01611Y02491*
X01611Y0249*
X01611Y0249*
X01612Y02489*
X01612Y02489*
X01612Y02489*
X01612Y02489*
X01613Y02489*
X01613Y02488*
X01614Y02488*
X01614Y02488*
X01615Y02488*
X01615*
X01615Y02488*
X01616Y02488*
X01616Y02488*
X01617Y02489*
X01617Y02489*
X01618Y02489*
X01618Y02489*
X01618Y02489*
X01618Y0249*
X01618Y0249*
X01618Y0249*
X01619Y02491*
X01619Y02491*
X01619Y02492*
Y02492*
Y02492*
X01619Y02493*
X01619Y02493*
X01619Y02493*
X01618Y02494*
X01618Y02494*
X01618Y02495*
X01618Y02495*
X01618Y02495*
X01617Y02495*
X01617Y02495*
X01617Y02496*
X01616Y02496*
X01615Y02496*
X01615Y02496*
G37*
G36*
X02587Y0117D02*
X02579D01*
X02579Y0117*
X02578Y0117*
X02578Y0117*
X02577Y0117*
X02577Y0117*
X02576Y0117*
X02576Y0117*
X02576Y0117*
X02576Y0117*
X02575Y0117*
X02575Y01169*
X02575Y01169*
X02574Y01169*
X02574Y01168*
X02574Y01168*
X02574Y01168*
X02574Y01168*
X02574Y01168*
X02574Y01167*
X02573Y01167*
X02573Y01167*
X02573Y01166*
Y01166*
Y01166*
Y01166*
X02573Y01166*
X02574Y01165*
X02574Y01165*
X02574Y01164*
X02574Y01164*
X02575Y01163*
X02575Y01163*
X02575Y01163*
X02575Y01163*
X02576Y01163*
X02576Y01162*
X02577Y01162*
X02578Y01162*
X02579Y01162*
X02587*
Y0117*
G37*
G36*
X02161Y01779D02*
X0216D01*
X0216Y01779*
X0216Y01779*
X02159Y01778*
X02159Y01778*
X02158Y01778*
X02158Y01777*
X02157Y01777*
X02157Y01777*
Y01777*
X02157Y01777*
X02157Y01776*
X02157Y01776*
X02157Y01776*
X02157Y01776*
X02157Y01775*
X02156Y01775*
X02156Y01774*
X02156Y01774*
X02156Y01773*
X02156Y01772*
X02156Y01771*
X02156Y0177*
X02156Y01769*
Y01768*
Y01768*
Y01768*
Y01768*
X02156Y01767*
Y01767*
X02156Y01766*
X02156Y01766*
X02156Y01765*
X02156Y01764*
X02156Y01762*
X02156Y01762*
X02157Y01761*
X02157Y0176*
X02157Y0176*
Y0176*
X02157Y0176*
X02157Y0176*
X02158Y01759*
X02158Y01759*
X02159Y01759*
X02159Y01758*
X0216Y01758*
X0216Y01758*
X02161Y01758*
X02161*
X02161Y01758*
X02161Y01758*
X02162Y01758*
X02162Y01758*
X02163Y01759*
X02163Y01759*
X02164Y01759*
X02164Y0176*
X02164Y0176*
Y0176*
X02164Y0176*
X02164Y0176*
X02164Y0176*
X02165Y01761*
X02165Y01761*
X02165Y01761*
X02165Y01762*
X02165Y01762*
X02165Y01763*
X02165Y01764*
X02165Y01764*
X02166Y01765*
X02166Y01766*
X02166Y01767*
Y01768*
Y01768*
Y01769*
Y01769*
X02166Y01769*
Y0177*
X02166Y0177*
X02166Y01771*
X02166Y01772*
X02165Y01773*
X02165Y01774*
X02165Y01775*
X02165Y01776*
X02165Y01776*
X02164Y01777*
Y01777*
X02164Y01777*
X02164Y01777*
X02164Y01777*
X02163Y01778*
X02163Y01778*
X02162Y01778*
X02161Y01779*
X02161Y01779*
X02161Y01779*
G37*
G36*
X0212Y01687D02*
X0212D01*
X0212*
X0212*
X02119Y01687*
X02119*
X02119Y01687*
X02118Y01687*
X02118Y01687*
X02117Y01687*
X02116Y01686*
X02116Y01686*
X02116Y01686*
X02115Y01686*
X02115Y01685*
X02115Y01685*
X02115Y01684*
X02114Y01684*
X02114Y01683*
X02114Y01683*
Y01682*
X02114Y01682*
X02114Y01682*
X02114Y01681*
X02115Y01681*
X02115Y0168*
X02115Y0168*
X02115Y01679*
X02116Y01679*
X02116Y01679*
X02116Y01679*
X02116Y01678*
X02117Y01678*
X02118Y01678*
X02118Y01678*
X02119Y01677*
X0212Y01677*
X0212*
X0212*
X0212*
X02121Y01677*
X02121Y01677*
X02122Y01678*
X02122Y01678*
X02123Y01678*
X02123Y01678*
X02124Y01679*
X02124Y01679*
X02124Y01679*
X02125Y01679*
X02125Y0168*
X02125Y0168*
X02125Y01681*
X02126Y01682*
X02126Y01682*
Y01683*
X02126Y01683*
X02126Y01683*
X02125Y01684*
X02125Y01684*
X02125Y01685*
X02125Y01685*
X02124Y01686*
X02124Y01686*
X02124Y01686*
X02123Y01686*
X02123Y01687*
X02122Y01687*
X02122Y01687*
X02121Y01687*
X0212Y01687*
G37*
G36*
X03699Y01298D02*
X03699D01*
X03699*
X03698Y01298*
X03698Y01298*
X03698Y01298*
X03697Y01298*
X03697Y01298*
X03696Y01297*
X03696Y01297*
X03696Y01297*
X03696Y01297*
X03696Y01297*
X03696Y01297*
X03695Y01296*
X03695Y01296*
X03695Y01295*
X03695Y01295*
X03695Y01295*
X03695Y01295*
X03695Y01294*
X03695Y01294*
X03695Y01293*
X03695Y01292*
Y01286*
X03703*
Y01293*
X03703Y01294*
X03703Y01294*
X03703Y01294*
Y01294*
X03703Y01295*
X03703Y01295*
X03703Y01295*
X03703Y01296*
X03702Y01296*
X03702Y01296*
X03702Y01296*
X03702Y01297*
X03702Y01297*
X03702Y01297*
X03702Y01297*
X03701Y01297*
X03701Y01298*
X03701Y01298*
X03701Y01298*
X03701Y01298*
X037Y01298*
X037Y01298*
X037Y01298*
X03699Y01298*
X03699Y01298*
G37*
G36*
X03688Y01297D02*
X03688D01*
X03688*
X03687Y01297*
X03687Y01297*
X03687Y01297*
X03686Y01297*
X03686Y01297*
X03686Y01296*
X03686Y01296*
X03685Y01296*
X03685Y01296*
X03685Y01296*
X03685Y01296*
X03685Y01295*
X03684Y01295*
X03684Y01295*
Y01295*
X03684Y01294*
X03684Y01294*
X03684Y01294*
X03684Y01293*
X03684Y01293*
X03684Y01292*
Y01286*
X03692*
Y01292*
X03692Y01292*
X03692Y01293*
X03691Y01294*
X03691Y01294*
X03691Y01294*
X03691Y01294*
X03691Y01295*
X03691Y01295*
X03691Y01295*
X03691Y01295*
X03691Y01296*
X0369Y01296*
X0369Y01296*
X0369Y01296*
X0369Y01296*
X0369Y01297*
X03689Y01297*
X03689Y01297*
X03689Y01297*
X03688Y01297*
X03688Y01297*
G37*
%LN5th_year_project-3*%
%LPD*%
G54D12*
X02243Y02455D02*
X02909D01*
Y0179D02*
Y02455D01*
X02243Y0179D02*
X02909D01*
X02243D02*
Y02455D01*
X01609Y02238D02*
X018D01*
X01609Y01875D02*
Y02238D01*
Y01875D02*
X018D01*
Y02238*
X01476Y02003D02*
X01555D01*
Y02153*
X01476D02*
X01555D01*
X01476Y02003D02*
Y02153D01*
X02113Y0211D02*
X02193D01*
Y0226*
X02113D02*
X02193D01*
X02113Y0211D02*
Y0226D01*
X02947Y02273D02*
X03012D01*
Y0238*
X02947D02*
X03012D01*
X02947Y02273D02*
Y0238D01*
X03128Y03264D02*
X03955D01*
Y03152D02*
Y03264D01*
X03128Y03152D02*
X03955D01*
X03128D02*
Y03264D01*
X03017Y0283D02*
Y02917D01*
X03061*
Y0283D02*
Y02917D01*
X03017Y0283D02*
X03061D01*
X03482Y02746D02*
Y02833D01*
X03438Y02746D02*
X03482D01*
X03438D02*
Y02833D01*
X03482*
X03379Y02755D02*
Y02842D01*
X03336Y02755D02*
X03379D01*
X03336D02*
Y02842D01*
X03379*
X03269Y02755D02*
Y02842D01*
X03226Y02755D02*
X03269D01*
X03226D02*
Y02842D01*
X03269*
X03108Y02755D02*
Y02842D01*
X03151*
Y02755D02*
Y02842D01*
X03108Y02755D02*
X03151D01*
X03533Y01587D02*
X03576D01*
X03533Y015D02*
Y01587D01*
Y015D02*
X03576D01*
Y01587*
X01937Y02377D02*
X02D01*
X01937Y02283D02*
Y02377D01*
Y02283D02*
X02D01*
Y02377*
X0268Y01436D02*
Y01483D01*
Y01436D02*
X02778D01*
Y01483*
X0268D02*
X02778D01*
X01761Y02488D02*
Y02535D01*
Y02488D02*
X0186D01*
Y02535*
X01761D02*
X0186D01*
X01807Y0289D02*
X02035D01*
Y02778D02*
Y0289D01*
X01807Y02778D02*
X02035D01*
X01807D02*
Y0289D01*
X01793Y02259D02*
Y02346D01*
X0175Y02259D02*
X01793D01*
X0175D02*
Y02346D01*
X01793*
X02124Y01963D02*
X02182D01*
Y01934D02*
Y01963D01*
X02124Y01934D02*
X02182D01*
X02124D02*
Y01963D01*
X0273Y01695D02*
Y0176D01*
Y01695D02*
X02836D01*
Y0176*
X0273D02*
X02836D01*
X02175Y02271D02*
Y02358D01*
X02131Y02271D02*
X02175D01*
X02131D02*
Y02358D01*
X02175*
X02291Y02683D02*
X02377D01*
Y02639D02*
Y02683D01*
X02291Y02639D02*
X02377D01*
X02291D02*
Y02683D01*
X01604Y0249D02*
X0169D01*
X01604D02*
Y02533D01*
X0169*
Y0249D02*
Y02533D01*
X02547Y01163D02*
X02633D01*
X02547D02*
Y01206D01*
X02633*
Y01163D02*
Y01206D01*
X02098Y01789D02*
X02185D01*
Y01746D02*
Y01789D01*
X02098Y01746D02*
X02185D01*
X02098D02*
Y01789D01*
X02116Y01606D02*
Y01693D01*
X02159*
Y01606D02*
Y01693D01*
X02116Y01606D02*
X02159D01*
X02265Y01658D02*
X02435D01*
X02265D02*
Y01758D01*
X02435*
Y01658D02*
Y01758D01*
X03263Y01391D02*
X0335D01*
X03263D02*
Y01435D01*
X0335*
Y01391D02*
Y01435D01*
X03682Y01266D02*
Y01324D01*
X03711*
Y01266D02*
Y01324D01*
X03682Y01266D02*
X03711D01*
M02*