%FSTAX23Y23*%
%MOIN*%
%SFA1B1*%

%IPPOS*%
%ADD15C,0.010000*%
%ADD54R,0.061810X0.061810*%
%ADD55C,0.061810*%
%ADD64C,0.015750*%
%ADD66C,0.005910*%
%ADD68O,0.102360X0.047240*%
%ADD69O,0.106300X0.047240*%
%ADD70O,0.086610X0.047240*%
%ADD71C,0.051180*%
%ADD72R,0.051180X0.051180*%
%ADD73R,0.061020X0.061020*%
%ADD74C,0.061020*%
%ADD75C,0.031500*%
%ADD76C,0.005910*%
%LN5th_year_project-1*%
%LPD*%
G54D15*
X03236Y02518D02*
X03596Y02877D01*
X03236Y02432D02*
Y02518D01*
X03611Y02877D02*
X03615Y02881D01*
X03596Y02877D02*
X03611D01*
X03305Y02283D02*
X03362D01*
X03248D02*
X03305D01*
X03236Y02432D02*
X03305Y02364D01*
Y02283D02*
Y02364D01*
X02437Y01591D02*
X02438Y0159D01*
X02034Y02949D02*
Y02997D01*
Y02949D02*
X02072Y02911D01*
Y02692D02*
Y02911D01*
X03169Y02362D02*
X03248Y02283D01*
G54D54*
X03192Y03208D03*
X01871Y02834D03*
G54D55*
X03292Y03208D03*
X03392D03*
X03492D03*
X03592D03*
X03692D03*
X03792D03*
X03892D03*
X01971Y02834D03*
G54D64*
X01875Y022D02*
X01876Y02202D01*
X01875Y0212D02*
X01898Y02096D01*
X01875Y0212D02*
Y022D01*
X01797Y01837D02*
X01798D01*
X01958Y01998*
X03114Y0122D02*
X03397D01*
X03448Y01271D02*
Y01362D01*
X03397Y0122D02*
X03448Y01271D01*
X01958Y01998D02*
X02074D01*
X02101Y01971*
Y0192D02*
Y01971D01*
Y01607D02*
Y0192D01*
X03027Y01826D02*
X03151Y0195D01*
X0322D02*
X0337Y021D01*
X03151Y0195D02*
X0322D01*
X03547Y01213D02*
Y0135D01*
X03562Y01196D02*
Y01197D01*
X03547Y01213D02*
X03562Y01197D01*
X03547Y0135D02*
X0361Y01413D01*
X02365Y0236D02*
X02376Y02371D01*
X02384*
X02389Y02376*
X02365Y02231D02*
Y0236D01*
X0337Y021D02*
Y02165D01*
X03493Y02027D02*
X03575D01*
X03417Y01951D02*
X03493Y02027D01*
X03417Y01921D02*
Y01951D01*
X02101Y01607D02*
X02141Y01566D01*
X02438Y0159D02*
X02466D01*
X02476Y016*
Y01615*
X02465Y01625D02*
X02476Y01615D01*
X02255Y01625D02*
X02465D01*
X03027Y01307D02*
Y01826D01*
Y01307D02*
X03114Y0122D01*
X03688Y01413D02*
X03712Y01437D01*
Y01476*
X0361Y01413D02*
X03688D01*
G54D66*
X02699Y02245D02*
D01*
X02699Y02243*
X02699Y02241*
X02699Y02239*
X02699Y02238*
X027Y02236*
X027Y02234*
X02701Y02232*
X02702Y0223*
X02702Y02228*
X02703Y02226*
X02704Y02225*
X02706Y02223*
X02707Y02221*
X02708Y0222*
X0271Y02219*
X02712Y02218*
X02713Y02217*
X02715Y02216*
X02717Y02215*
X02719Y02214*
X02721Y02213*
X02723Y02213*
X02725Y02213*
X02727Y02213*
X02729Y02213*
X02731Y02213*
X02733Y02213*
X02735Y02213*
X02736Y02214*
X02738Y02215*
X0274Y02215*
X02742Y02216*
X02744Y02217*
X02745Y02218*
X02747Y0222*
X02748Y02221*
X0275Y02223*
X02751Y02224*
X02752Y02226*
X02753Y02228*
X02754Y02229*
X02755Y02231*
X02755Y02233*
X02756Y02235*
X01972Y02511D02*
X02067D01*
X02217Y02334D02*
Y02362D01*
X02067Y02511D02*
X02217Y02362D01*
X02078Y02096D02*
X02179D01*
X02031Y02049D02*
X02078Y02096D01*
X01903Y02049D02*
X02031D01*
X02213Y02153D02*
X02232Y02134D01*
X02334*
X02213Y02153D02*
Y02279D01*
X02214Y0228*
X02345Y02135D02*
X0235Y0214D01*
X02334Y02134D02*
X02335Y02135D01*
X02345*
X01519Y02334D02*
X01562Y02291D01*
Y01602D02*
Y02291D01*
Y01602D02*
X01716Y01448D01*
X02756Y02235D02*
X02757Y02236D01*
X02759Y02238D01*
X02824*
X02687Y0226D02*
X02699Y02248D01*
X02824Y02286D02*
Y02301D01*
X02699Y02246D02*
Y02248D01*
X02687Y0226D02*
Y02439D01*
X02824Y02301D02*
X02824Y02301D01*
X02824Y02301D02*
Y02387D01*
X02728Y02241D02*
Y02361D01*
X02699Y02245D02*
Y02246D01*
X02208Y01496D02*
Y01728D01*
X02359Y01878*
Y02*
X02738Y02629D02*
Y02978D01*
X02661Y02553D02*
X02738Y02629D01*
X02661Y022D02*
Y02553D01*
X02748Y025D02*
X02785D01*
X02811Y02525*
X02687Y02439D02*
X02748Y025D01*
X02811Y02525D02*
Y03287D01*
X01842Y03255D02*
X01884Y03298D01*
X01842Y03145D02*
Y03255D01*
X01884Y03298D02*
X02188D01*
X02822Y02181D02*
X02824Y02184D01*
X0264Y02126D02*
X02824D01*
X02681Y02181D02*
X02822D01*
X03407Y02236D02*
X03408Y02235D01*
X03307Y02236D02*
X03407D01*
X03259Y02188D02*
X03307Y02236D01*
X03399Y02419D02*
X03438Y02379D01*
X03437Y02154D02*
X03438Y02155D01*
Y02379*
X02496Y01869D02*
Y0237D01*
X01624Y02581D02*
Y02818D01*
X02038Y02111D02*
Y02167D01*
X01624Y02581D02*
X02038Y02167D01*
X01625Y02829D02*
X01629Y02834D01*
X01624Y02818D02*
X01625Y02819D01*
Y02829*
X03166Y02024D02*
X03259Y02118D01*
X0291Y0185D02*
X03084Y02024D01*
X03166*
X02728Y01979D02*
X02857Y0185D01*
X0291*
X02728Y01979D02*
Y02003D01*
X03646Y01963D02*
X03678Y01995D01*
Y02569*
X03276Y025D02*
X03354D01*
X03272Y02495D02*
X03276Y025D01*
X03259Y02118D02*
Y02188D01*
X0274Y03358D02*
X02811Y03287D01*
X02607Y0216D02*
Y02651D01*
Y0216D02*
X0264Y02126D01*
X02607Y02651D02*
X02696Y02741D01*
X02496Y0237D02*
X02507Y02381D01*
X02842Y02644D02*
Y03334D01*
X02964Y02802D02*
X02967Y02799D01*
X02964Y02802D02*
Y03065D01*
X03194Y03295*
X02773Y02563D02*
Y03072D01*
X02715Y03027D02*
X02722D01*
X02707Y0302D02*
X02715Y03027D01*
X02707Y0302D02*
X02707D01*
X02696Y03009D02*
X02707Y0302D01*
X02656Y02747D02*
Y0307D01*
X02655Y03071D02*
X02656Y0307D01*
X02783Y03393D02*
Y03418D01*
Y03393D02*
X02842Y03334D01*
X02589Y03463D02*
X02602Y03476D01*
X02589Y03436D02*
Y03463D01*
X02432Y03333D02*
X02456Y03358D01*
X02432Y03299D02*
Y03333D01*
X02118Y0313D02*
X0212Y03128D01*
Y03119D02*
Y03128D01*
Y03119D02*
X02149Y0309D01*
X02965Y0262D02*
Y02648D01*
Y0262D02*
X03007Y02577D01*
X03062*
X03093Y02547*
Y0244D02*
Y02547D01*
X03053Y02107D02*
Y024D01*
X03093Y0244*
X0283Y02055D02*
X03094D01*
X02507Y02598D02*
X02656Y02747D01*
X02696Y02741D02*
Y03009D01*
X02661Y022D02*
X02681Y02181D01*
X02824Y02387D02*
X0294Y02503D01*
X03634Y02595D02*
X03652D01*
X03678Y02569*
X03633Y02594D02*
X03634Y02595D01*
X03307Y02903D02*
X0336Y02956D01*
X03307Y02696D02*
Y02903D01*
X0336Y02956D02*
X03657D01*
X03324Y02444D02*
X0335Y02419D01*
X03324Y02444D02*
Y02461D01*
X0335Y02419D02*
X03399D01*
X03462Y02998D02*
Y03023D01*
X03412Y03073D02*
X03462Y03023D01*
X03114Y03073D02*
X03412D01*
X03692Y02992D02*
Y03023D01*
X03657Y02956D02*
X03692Y02992D01*
X03208Y02598D02*
X03307Y02696D01*
X03194Y03295D02*
X03492D01*
X0261Y03094D02*
X02633Y03118D01*
X02751*
X0261Y02763D02*
Y03094D01*
X03795Y0294D02*
Y03023D01*
X03354Y025D02*
X03795Y0294D01*
X0294Y02503D02*
X03043D01*
X03094Y02055D02*
X03129Y0209D01*
X02893Y02814D02*
X03129Y02578D01*
Y0209D02*
Y02578D01*
X02893Y02814D02*
Y03397D01*
X02602Y03476D02*
X02814D01*
X0259Y02062D02*
X02822D01*
X02814Y03476D02*
X02893Y03397D01*
X02822Y02062D02*
X0283Y02055D01*
X02511Y03429D02*
Y0346D01*
X02456Y03358D02*
X0274D01*
X02456Y03515D02*
X02511Y0346D01*
X01665Y03515D02*
X02456D01*
X01519Y0337D02*
X01665Y03515D01*
X01519Y02334D02*
Y0337D01*
X01716Y01448D02*
X02161D01*
X02208Y01496*
X02149Y0309D02*
X02452D01*
X02559Y02984*
Y02755D02*
Y02984D01*
X01933Y03055D02*
X0207D01*
X01842Y03145D02*
X01933Y03055D01*
X0207D02*
X02098Y03027D01*
Y02763D02*
Y03027D01*
Y02763D02*
X02137Y02724D01*
X02401D02*
X02476Y02649D01*
X02137Y02724D02*
X02401D01*
X02476Y02602D02*
Y02649D01*
X02507Y02381D02*
Y02598D01*
G54D68*
X04047Y01575D03*
G54D69*
X04047Y01235D03*
G54D70*
X03836Y01575D03*
Y01235D03*
G54D71*
X02196Y03216D03*
X02275D03*
X02354D03*
X02433D03*
X02511D03*
X0259D03*
X02118D03*
X02039D03*
X0196D03*
G54D72*
X02669Y03216D03*
G54D73*
X02407Y02834D03*
G54D74*
X02307Y02834D03*
X02207D03*
G54D75*
X01876Y02202D03*
X01898Y02096D03*
X01903Y02049D03*
X02179Y02096D03*
X0235Y0214D03*
X01797Y01837D03*
X02728Y02241D03*
X02824Y02286D03*
Y02238D03*
X02728Y02361D03*
X02824Y02126D03*
Y02184D03*
X03408Y02235D03*
X03562Y01196D03*
X02214Y0228D03*
X02496Y01869D03*
X03575Y02027D03*
X0337Y02165D03*
X03646Y01963D03*
X03272Y02495D03*
X03615Y02881D03*
X03437Y02154D03*
X02217Y02334D03*
X02389Y02376D03*
X02038Y02111D03*
X02101Y0192D03*
X02359Y02D03*
X02842Y02644D03*
X02967Y02799D03*
X02738Y02978D03*
X02773Y03072D03*
X02722Y03027D03*
X02655Y03071D03*
X02783Y03418D03*
X02589Y03436D03*
X02511Y03429D03*
X02432Y03299D03*
X02188Y03298D03*
X02118Y0313D03*
X02365Y02231D03*
X02965Y02648D03*
X03053Y02107D03*
X02437Y01591D03*
X02255Y01625D03*
X02034Y02997D03*
X02072Y02692D03*
X03324Y02461D03*
X03633Y02594D03*
X03462Y02998D03*
X03114Y03073D03*
X02773Y02563D03*
X03692Y03023D03*
X03208Y02598D03*
X03492Y03295D03*
X02751Y03118D03*
X0261Y02763D03*
X03795Y03023D03*
X03043Y02503D03*
X02728Y02003D03*
X03448Y01362D03*
X03362Y02283D03*
X03169Y02362D03*
X01972Y02511D03*
X03417Y01921D03*
X03712Y01476D03*
X0259Y02062D03*
X02559Y02755D03*
X02476Y02602D03*
X01629Y02834D03*
X02141Y01566D03*
G54D76*
X02699Y02246D03*
X02757Y02236D03*
M02*