%FSTAX23Y23*%
%MOIN*%
%SFA1B1*%

%IPPOS*%
%ADD12C,0.007870*%
%ADD77C,0.003940*%
%ADD78C,0.001970*%
%LN5th_year_project-1*%
%LPD*%
G54D12*
X02243Y02455D02*
X02909D01*
Y0179D02*
Y02455D01*
X02243Y0179D02*
X02909D01*
X02243D02*
Y02455D01*
X01609Y02238D02*
X018D01*
X01609Y01875D02*
Y02238D01*
Y01875D02*
X018D01*
Y02238*
X01476Y02003D02*
X01555D01*
Y02153*
X01476D02*
X01555D01*
X01476Y02003D02*
Y02153D01*
X02113Y0211D02*
X02193D01*
Y0226*
X02113D02*
X02193D01*
X02113Y0211D02*
Y0226D01*
X02947Y02273D02*
X03012D01*
Y0238*
X02947D02*
X03012D01*
X02947Y02273D02*
Y0238D01*
X03128Y03264D02*
X03955D01*
Y03152D02*
Y03264D01*
X03128Y03152D02*
X03955D01*
X03128D02*
Y03264D01*
X03017Y0283D02*
Y02917D01*
X03061*
Y0283D02*
Y02917D01*
X03017Y0283D02*
X03061D01*
X03482Y02746D02*
Y02833D01*
X03438Y02746D02*
X03482D01*
X03438D02*
Y02833D01*
X03482*
X03379Y02755D02*
Y02842D01*
X03336Y02755D02*
X03379D01*
X03336D02*
Y02842D01*
X03379*
X03269Y02755D02*
Y02842D01*
X03226Y02755D02*
X03269D01*
X03226D02*
Y02842D01*
X03269*
X03108Y02755D02*
Y02842D01*
X03151*
Y02755D02*
Y02842D01*
X03108Y02755D02*
X03151D01*
X03533Y01587D02*
X03576D01*
X03533Y015D02*
Y01587D01*
Y015D02*
X03576D01*
Y01587*
X01937Y02377D02*
X02D01*
X01937Y02283D02*
Y02377D01*
Y02283D02*
X02D01*
Y02377*
X0268Y01436D02*
Y01483D01*
Y01436D02*
X02778D01*
Y01483*
X0268D02*
X02778D01*
X01761Y02488D02*
Y02535D01*
Y02488D02*
X0186D01*
Y02535*
X01761D02*
X0186D01*
X01807Y0289D02*
X02035D01*
Y02778D02*
Y0289D01*
X01807Y02778D02*
X02035D01*
X01807D02*
Y0289D01*
X01793Y02259D02*
Y02346D01*
X0175Y02259D02*
X01793D01*
X0175D02*
Y02346D01*
X01793*
X02124Y01963D02*
X02182D01*
Y01934D02*
Y01963D01*
X02124Y01934D02*
X02182D01*
X02124D02*
Y01963D01*
X0273Y01695D02*
Y0176D01*
Y01695D02*
X02836D01*
Y0176*
X0273D02*
X02836D01*
X02175Y02271D02*
Y02358D01*
X02131Y02271D02*
X02175D01*
X02131D02*
Y02358D01*
X02175*
X02291Y02683D02*
X02377D01*
Y02639D02*
Y02683D01*
X02291Y02639D02*
X02377D01*
X02291D02*
Y02683D01*
X01604Y0249D02*
X0169D01*
X01604D02*
Y02533D01*
X0169*
Y0249D02*
Y02533D01*
X02547Y01163D02*
X02633D01*
X02547D02*
Y01206D01*
X02633*
Y01163D02*
Y01206D01*
X02098Y01789D02*
X02185D01*
Y01746D02*
Y01789D01*
X02098Y01746D02*
X02185D01*
X02098D02*
Y01789D01*
X02116Y01606D02*
Y01693D01*
X02159*
Y01606D02*
Y01693D01*
X02116Y01606D02*
X02159D01*
X02265Y01658D02*
X02435D01*
X02265D02*
Y01758D01*
X02435*
Y01658D02*
Y01758D01*
X03263Y01391D02*
X0335D01*
X03263D02*
Y01435D01*
X0335*
Y01391D02*
Y01435D01*
X03682Y01266D02*
Y01324D01*
X03711*
Y01266D02*
Y01324D01*
X03682Y01266D02*
X03711D01*
G54D77*
X03755Y02157D02*
X03795D01*
X03775Y02137D02*
Y02177D01*
X02141Y01844D02*
Y01879D01*
X02124Y01862D02*
X02159D01*
X02354Y0152D02*
Y01542D01*
X02343Y01531D02*
X02365D01*
X02354Y01583D02*
Y01605D01*
X02343Y01594D02*
X02365D01*
X02354Y01319D02*
Y01341D01*
X02343Y0133D02*
X02365D01*
X02354Y0139D02*
Y01412D01*
X02343Y01401D02*
X02365D01*
X02354Y01453D02*
Y01475D01*
X02343Y01464D02*
X02365D01*
X02133Y02036D02*
Y02058D01*
X02123Y02047D02*
X02144D01*
X03303Y01641D02*
Y01681D01*
X03283Y01661D02*
X03322D01*
G54D78*
X04041Y01884D02*
Y0243D01*
X03469Y01884D02*
X04041D01*
X03469D02*
Y0243D01*
X04041*
X03783Y012D02*
X04133D01*
Y01611*
X03783D02*
X04133D01*
X03783Y012D02*
Y01611D01*
X02295Y03216D02*
X02334D01*
X02314Y03196D02*
Y03236D01*
X02732Y03156D02*
Y03276D01*
X01897D02*
X02732D01*
X01897Y03156D02*
Y03276D01*
Y03156D02*
X02732D01*
X0214Y02775D02*
X02473D01*
Y02893*
X0214D02*
X02473D01*
X0214Y02775D02*
Y02893D01*
X02074Y01903D02*
X02208D01*
X02074Y0182D02*
X02208D01*
X02074D02*
Y01903D01*
X02208Y0182D02*
Y01903D01*
X02311Y01507D02*
X02397D01*
X02311Y01555D02*
X02397D01*
Y01507D02*
Y01555D01*
X02311Y01507D02*
Y01555D01*
Y0157D02*
X02397D01*
X02311Y01618D02*
X02397D01*
Y0157D02*
Y01618D01*
X02311Y0157D02*
Y01618D01*
Y01307D02*
X02397D01*
X02311Y01354D02*
X02397D01*
Y01307D02*
Y01354D01*
X02311Y01307D02*
Y01354D01*
Y01377D02*
X02397D01*
X02311Y01425D02*
X02397D01*
Y01377D02*
Y01425D01*
X02311Y01377D02*
Y01425D01*
Y0144D02*
X02397D01*
X02311Y01488D02*
X02397D01*
Y0144D02*
Y01488D01*
X02311Y0144D02*
Y01488D01*
X0209Y02023D02*
X02177D01*
X0209Y0207D02*
X02177D01*
Y02023D02*
Y0207D01*
X0209Y02023D02*
Y0207D01*
X03161Y01494D02*
X03444D01*
X03161Y01828D02*
X03444D01*
X03161Y01494D02*
Y01828D01*
X03444Y01494D02*
Y01828D01*
M02*