%FSTAX23Y23*%
%MOIN*%
%SFA1B1*%

%IPPOS*%
%AMD39*
4,1,8,-0.015800,-0.034400,0.015800,-0.034400,0.017700,-0.032500,0.017700,0.032500,0.015800,0.034400,-0.015800,0.034400,-0.017700,0.032500,-0.017700,-0.032500,-0.015800,-0.034400,0.0*
1,1,0.003900,-0.015800,-0.032500*
1,1,0.003900,0.015800,-0.032500*
1,1,0.003900,0.015800,0.032500*
1,1,0.003900,-0.015800,0.032500*
%
%AMD40*
4,1,8,-0.060900,-0.034400,0.060900,-0.034400,0.063000,-0.032400,0.063000,0.032400,0.060900,0.034400,-0.060900,0.034400,-0.063000,0.032400,-0.063000,-0.032400,-0.060900,-0.034400,0.0*
1,1,0.004140,-0.060900,-0.032400*
1,1,0.004140,0.060900,-0.032400*
1,1,0.004140,0.060900,0.032400*
1,1,0.004140,-0.060900,0.032400*
%
%ADD12C,0.007870*%
%ADD13C,0.005000*%
%ADD15C,0.010000*%
%ADD16R,0.047240X0.011810*%
%ADD17R,0.011810X0.047240*%
%ADD18R,0.118110X0.098430*%
%ADD19R,0.039850X0.045600*%
%ADD20R,0.053390X0.043490*%
%ADD21R,0.036610X0.035430*%
%ADD22R,0.030710X0.041340*%
%ADD23R,0.072050X0.044880*%
%ADD24R,0.129920X0.027560*%
%ADD25R,0.110240X0.033860*%
%ADD26R,0.043310X0.027560*%
%ADD27R,0.031970X0.029850*%
%ADD28R,0.027560X0.039370*%
%ADD29R,0.027560X0.011810*%
%ADD30R,0.055120X0.029530*%
%ADD31R,0.031500X0.031500*%
%ADD32R,0.010730X0.018600*%
%ADD33R,0.043490X0.053390*%
%ADD34R,0.019680X0.031500*%
%ADD35R,0.029850X0.031970*%
%ADD36R,0.037400X0.041340*%
%ADD37R,0.029920X0.028350*%
%ADD38R,0.057270X0.061270*%
G04~CAMADD=39~8~0.0~0.0~354.3~689.0~19.5~0.0~15~0.0~0.0~0.0~0.0~0~0.0~0.0~0.0~0.0~0~0.0~0.0~0.0~180.0~354.0~689.0*
%ADD39D39*%
G04~CAMADD=40~8~0.0~0.0~1259.8~689.0~20.7~0.0~15~0.0~0.0~0.0~0.0~0~0.0~0.0~0.0~0.0~0~0.0~0.0~0.0~180.0~1260.0~690.0*
%ADD40D40*%
%ADD41R,0.018600X0.010730*%
%ADD54R,0.061810X0.061810*%
%ADD55C,0.061810*%
%ADD64C,0.015750*%
%ADD65C,0.011810*%
%ADD66C,0.005910*%
%ADD67C,0.017320*%
%ADD68O,0.102360X0.047240*%
%ADD69O,0.106300X0.047240*%
%ADD70O,0.086610X0.047240*%
%ADD71C,0.051180*%
%ADD72R,0.051180X0.051180*%
%ADD73R,0.061020X0.061020*%
%ADD74C,0.061020*%
%ADD75C,0.031500*%
%LN5th_year_project-1*%
%LPD*%
G54D12*
X02062Y02637D02*
X02072Y02647D01*
Y02692*
X02338Y01875D02*
X02365Y01901D01*
X02338Y01819D02*
Y01875D01*
X03784Y01524D02*
X0381D01*
X02367Y02834D02*
X02407D01*
X02355Y02846D02*
X02367Y02834D01*
X02355Y02846D02*
Y02951D01*
G54D13*
X02208Y02215D02*
X02241Y02182D01*
X02271*
X02352*
X02881Y02339D02*
X0292D01*
X02803D02*
X02881D01*
X02271Y02005D02*
X02301D01*
X02212D02*
X02271D01*
X0236Y01781D02*
X02374Y01767D01*
X0236Y01818D02*
X0236Y01817D01*
Y01789D02*
Y01817D01*
X0236Y01781D02*
Y01789D01*
X0236Y01789D02*
X0236Y01789D01*
X02301Y02005D02*
X02313Y01993D01*
X0292Y02339D02*
X02935Y02354D01*
X02359Y02471D02*
X0236Y0247D01*
X02385Y02381D02*
X02389Y02376D01*
X0236Y02391D02*
X0237Y02381D01*
X0236Y02391D02*
Y02428D01*
X02364Y0223D02*
X02365Y02231D01*
X03783Y01346D02*
X0382D01*
X02338Y01819D02*
X0234Y01818D01*
X02793Y01781D02*
X02807Y01767D01*
X02793Y01781D02*
Y01818D01*
G54D15*
X03547Y01519D02*
X03551Y01523D01*
X03555Y01519*
X02561Y01185D02*
D01*
X03712Y01476D02*
X03713Y01477D01*
X02133Y01944D02*
X02133Y01944D01*
Y01948*
X02125Y01944D02*
X02133D01*
X02373Y01594D02*
X02376Y01591D01*
X02814Y01816D02*
X02848D01*
X03525Y02283D02*
X03528Y0228D01*
X03362Y02283D02*
X03525D01*
X0298Y02354D02*
X02987Y02362D01*
X02807Y01732D02*
X02811Y01728D01*
X02979Y02354D02*
X0298Y02354D01*
X0217Y01862D02*
X02171Y0186D01*
X02373Y01594D02*
X02374Y01594D01*
X0177Y02279D02*
X01771Y02278D01*
X02166Y01858D02*
X0217Y01862D01*
X02163Y01764D02*
X02166Y01767D01*
X02113Y01771D02*
X02117Y01767D01*
G54D16*
X02271Y02359D03*
Y02339D03*
Y0232D03*
Y023D03*
Y0228D03*
Y02261D03*
Y02241D03*
Y02221D03*
Y02201D03*
Y02182D03*
Y02162D03*
Y02142D03*
Y02123D03*
Y02103D03*
Y02083D03*
Y02064D03*
Y02044D03*
Y02024D03*
Y02005D03*
Y01985D03*
Y01965D03*
Y01946D03*
Y01926D03*
Y01906D03*
Y01887D03*
X02881D03*
Y01906D03*
Y01926D03*
Y01946D03*
Y01965D03*
Y01985D03*
Y02005D03*
Y02024D03*
Y02044D03*
Y02064D03*
Y02083D03*
Y02103D03*
Y02123D03*
Y02142D03*
Y02162D03*
Y02182D03*
Y02201D03*
Y02221D03*
Y02241D03*
Y02261D03*
Y0228D03*
Y023D03*
Y0232D03*
Y02339D03*
Y02359D03*
G54D17*
X0234Y01818D03*
X0236D03*
X02379D03*
X02399D03*
X02419D03*
X02438D03*
X02458D03*
X02478D03*
X02497D03*
X02517D03*
X02537D03*
X02556D03*
X02576D03*
X02596D03*
X02615D03*
X02635D03*
X02655D03*
X02675D03*
X02694D03*
X02714D03*
X02734D03*
X02753D03*
X02773D03*
X02793D03*
X02812D03*
Y02428D03*
X02793D03*
X02773D03*
X02753D03*
X02734D03*
X02714D03*
X02694D03*
X02675D03*
X02655D03*
X02635D03*
X02615D03*
X02596D03*
X02576D03*
X02556D03*
X02537D03*
X02517D03*
X02497D03*
X02478D03*
X02458D03*
X02438D03*
X02419D03*
X02399D03*
X02379D03*
X0236D03*
X0234D03*
G54D18*
X01704Y01929D03*
Y02185D03*
G54D19*
X01515Y02111D03*
Y02046D03*
X02153Y02217D03*
Y02152D03*
G54D20*
X0298Y02354D03*
Y02299D03*
G54D21*
X04019Y01993D03*
G54D22*
X04022Y02161D03*
G54D23*
X03529Y01911D03*
G54D24*
X03972Y01902D03*
Y02412D03*
G54D25*
X03548Y02409D03*
G54D26*
X03528Y02063D03*
Y02107D03*
Y0215D03*
Y02193D03*
Y02237D03*
Y0228D03*
Y02323D03*
Y02366D03*
G54D27*
X03039Y02849D03*
Y02898D03*
X0346Y02814D03*
Y02765D03*
X03358Y02823D03*
Y02774D03*
X03248Y02823D03*
Y02774D03*
X03129D03*
Y02823D03*
X03555Y01519D03*
Y01569D03*
X01771Y02327D03*
Y02278D03*
X02153Y02339D03*
Y0229D03*
X02137Y01624D03*
Y01674D03*
G54D28*
X03871Y01283D03*
Y01527D03*
G54D29*
X03871Y01316D03*
Y01336D03*
Y01356D03*
Y01375D03*
Y01395D03*
Y01415D03*
Y01435D03*
Y01454D03*
Y01474D03*
Y01494D03*
X0382Y01523D03*
Y01503D03*
Y01484D03*
Y01464D03*
Y01444D03*
Y01425D03*
Y01385D03*
Y01366D03*
Y01346D03*
Y01326D03*
Y01307D03*
Y01287D03*
G54D30*
X01968Y02302D03*
Y02359D03*
G54D31*
X02758Y01459D03*
X02699D03*
X0184Y02511D03*
X01781D03*
G54D32*
X02133Y01948D03*
X02173D03*
G54D33*
X02811Y01728D03*
X02755D03*
G54D34*
X02305Y02661D03*
X02364D03*
X01677Y02511D03*
X01618D03*
X0262Y01185D03*
X02561D03*
G54D35*
X02117Y01767D03*
X02166D03*
X03331Y01413D03*
X03282D03*
G54D36*
X02113Y01862D03*
X0217D03*
G54D37*
X02373Y01531D03*
X02335D03*
X02373Y01594D03*
X02335D03*
X02373Y0133D03*
X02335D03*
X02373Y01401D03*
X02335D03*
X02373Y01464D03*
X02335D03*
X02153Y02047D03*
X02114D03*
G54D38*
X02386Y01708D03*
X02313D03*
G54D39*
X03212Y01538D03*
X03303D03*
X03393D03*
G54D40*
X03303Y01784D03*
G54D41*
X03696Y01275D03*
Y01314D03*
G54D54*
X03192Y03208D03*
X01871Y02834D03*
G54D55*
X03292Y03208D03*
X03392D03*
X03492D03*
X03592D03*
X03692D03*
X03792D03*
X03892D03*
X01971Y02834D03*
G54D64*
X02173Y01979D02*
X0222D01*
X02085D02*
X02168D01*
X02173*
X02059Y01952D02*
X02085Y01979D01*
X01876Y0224D02*
X01879Y02243D01*
X01876Y02202D02*
Y0224D01*
X01898Y02096D02*
X01901D01*
X01903Y02094*
X01964*
X02011Y02047D02*
X02114D01*
X01964Y02094D02*
X02011Y02047D01*
X02064Y02289D02*
X02071Y02282D01*
Y02239D02*
Y02282D01*
Y02239D02*
X02093Y02217D01*
X02153*
X02064Y02289D02*
X02152D01*
X01879Y02243D02*
X02018D01*
X02064Y02289*
X01844Y02278D02*
X01879Y02243D01*
X01771Y02278D02*
X01844D01*
X01545Y0235D02*
X01618D01*
X01515Y0232D02*
X01545Y0235D01*
X01515Y02111D02*
Y0232D01*
X02155Y02215D02*
X02208D01*
X02153Y02217D02*
X02155Y02215D01*
X01795Y01839D02*
X01797Y01837D01*
X01506Y01839D02*
X01795D01*
X02073Y0256D02*
Y02692D01*
X01444Y01901D02*
X01506Y01839D01*
X01497Y02637D02*
X02062D01*
X01444Y02584D02*
X01497Y02637D01*
X02212Y02421D02*
X0225D01*
X01444Y01901D02*
Y02584D01*
X02073Y0256D02*
X02212Y02421D01*
X03331Y01338D02*
X03394Y01275D01*
X03331Y01338D02*
Y01413D01*
X03394Y01275D02*
X03696D01*
X02173Y01948D02*
X02219D01*
X02167Y01978D02*
X02168Y01979D01*
X02173Y01948D02*
Y01972D01*
X02167Y01978D02*
X02173Y01972D01*
X02313Y01777D02*
X0234D01*
X02313Y01708D02*
Y01777D01*
X02181Y01849D02*
X02212D01*
X02171Y01858D02*
Y0186D01*
X02212Y01849D02*
X02284Y01777D01*
X02313D02*
Y01993D01*
X03467Y01539D02*
Y01578D01*
Y01539D02*
X03487Y01519D01*
X03547*
X0342Y01625D02*
X03467Y01578D01*
X03555Y01442D02*
Y01519D01*
X02938Y02303D02*
X02976D01*
X02935Y02354D02*
X02979D01*
X02875Y01592D02*
X02876Y01593D01*
X02875Y01505D02*
Y01592D01*
X02829Y01459D02*
X02875Y01505D01*
X02758Y01459D02*
X02829D01*
X03175Y02774D02*
X03187Y02787D01*
Y02805D02*
X03205Y02822D01*
X03187Y02787D02*
Y02805D01*
X03129Y02774D02*
X03175D01*
X03245Y02822D02*
X03246Y02822D01*
X03205Y02822D02*
X03245D01*
X02699Y01593D02*
X02876D01*
X03562Y01196D02*
X03746D01*
X02395Y01185D02*
X02561D01*
X02335Y01245D02*
Y0133D01*
Y01245D02*
X02395Y01185D01*
X02335Y0133D02*
Y01401D01*
X02114Y02046D02*
X02114Y02047D01*
X03713Y01477D02*
X03737D01*
X02207Y02651D02*
X02359Y02498D01*
X02405Y02836D02*
Y03006D01*
X02275Y03136D02*
Y03216D01*
Y03136D02*
X02405Y03006D01*
X02335Y01464D02*
Y01531D01*
Y01401D02*
Y01464D01*
Y01531D02*
Y01594D01*
Y01632*
X03337Y02258D02*
X03362Y02283D01*
X03337Y02197D02*
Y02258D01*
Y02197D02*
X0337Y02165D01*
X03221Y01625D02*
X0342D01*
X03212Y01538D02*
Y01616D01*
X03221Y01625*
X03212Y01453D02*
Y01538D01*
X03456Y02811D02*
Y02816D01*
X02214Y0228D02*
X02233Y02261D01*
X02284Y01777D02*
X02313D01*
X0247Y01529D02*
X02635D01*
X02437Y01562D02*
X0247Y01529D01*
X02437Y01562D02*
Y01591D01*
X03575Y02027D02*
Y02176D01*
X03533Y01421D02*
X03555Y01442D01*
X0237Y02381D02*
X02385D01*
X02407Y02834D02*
X03023D01*
X03034Y02854D02*
X03039Y02849D01*
X02635Y01529D02*
X02699Y01593D01*
X03064Y02774D02*
X03129D01*
X02386Y01708D02*
Y01754D01*
Y01649D02*
Y01708D01*
X02909Y01593D02*
X031Y01784D01*
X03303*
X03491*
X02376Y01591D02*
X02437D01*
X02254Y01624D02*
X02255Y01625D01*
X02137Y01624D02*
X02254D01*
X0231Y02997D02*
X02355Y02951D01*
X02034Y02997D02*
X0231D01*
X02876Y01593D02*
X02909D01*
X02848Y01816D02*
X02876Y01788D01*
Y01593D02*
Y01788D01*
X03358Y02823D02*
X03449D01*
X03248D02*
X03358D01*
X03188Y03037D02*
Y03205D01*
X03192Y03208*
X03188Y03037D02*
X03248Y02978D01*
Y02823D02*
Y02978D01*
X03448Y01362D02*
Y01393D01*
X03476Y01421*
X03533*
X02987Y02362D02*
X03169D01*
X02207Y02651D02*
Y02834D01*
X03555Y0172D02*
Y01799D01*
Y01519D02*
X03649D01*
X03692Y01476*
X03712*
X03696Y01314D02*
X03751D01*
X03783Y01346*
X03449Y02823D02*
X03456Y02816D01*
Y02811D02*
X0346Y02814D01*
X03246Y02822D02*
X03248Y02823D01*
X03039Y02799D02*
X03064Y02774D01*
X03039Y02799D02*
Y02849D01*
X03023Y02834D02*
X03038Y02849D01*
X03039*
X01925Y03023D02*
X01971Y02977D01*
Y02834D02*
Y02977D01*
X01834Y03023D02*
X01925D01*
X01775Y03082D02*
X01834Y03023D01*
X01775Y03082D02*
Y03279D01*
X01834Y03338*
X02295*
X02354Y03279*
Y03216D02*
Y03279D01*
X02405Y02836D02*
X02407Y02834D01*
X02807Y01732D02*
Y01767D01*
X02755Y01728D02*
Y01767D01*
X03555Y01569D02*
Y0172D01*
X03491Y01784D02*
X03555Y0172D01*
X03331Y01413D02*
X03361D01*
X03393Y01445D02*
Y01538D01*
X03361Y01413D02*
X03393Y01445D01*
X03212Y01453D02*
X03252Y01413D01*
X03282*
X01971Y02834D02*
X02207D01*
X02141Y01566D02*
Y0162D01*
X02137Y01624D02*
X02141Y0162D01*
X02059Y01868D02*
Y01952D01*
Y01868D02*
X02064Y01862D01*
X02113*
X02171Y01858D02*
X02181Y01849D01*
X02373Y01531D02*
Y01594D01*
Y01464D02*
Y01531D01*
Y01401D02*
Y01464D01*
Y0133D02*
Y01401D01*
X02313Y01653D02*
Y01708D01*
X02374Y01636D02*
X02386Y01649D01*
X02374Y01594D02*
Y01636D01*
X02313Y01653D02*
X02335Y01632D01*
X01618Y0235D02*
X01688Y02279D01*
X01618Y0235D02*
Y02511D01*
X01688Y02279D02*
X0177D01*
X02374Y01767D02*
X02386Y01754D01*
X02163Y01736D02*
Y01764D01*
X02137Y01711D02*
X02163Y01736D01*
X02166Y01767D02*
Y01858D01*
X02137Y01674D02*
Y01711D01*
X02113Y01771D02*
Y01862D01*
G54D65*
X02114Y02012D02*
Y02046D01*
X02121Y02005D02*
X02212D01*
X02114Y02012D02*
X02121Y02005D01*
X02352Y02182D02*
X02364Y02193D01*
Y0223*
X0235Y0214D02*
X02354Y02136D01*
Y02127D02*
X02363Y02118D01*
X02354Y02127D02*
Y02136D01*
X02782Y02306D02*
X02784Y02303D01*
Y02285D02*
Y02303D01*
X02782Y01902D02*
Y02282D01*
X02422Y02118D02*
X02445Y0214D01*
X02388Y02093D02*
X02397D01*
X02782Y02282D02*
X02784Y02285D01*
X02445Y02273D02*
X02741D01*
X02445Y0214D02*
Y02273D01*
X02741D02*
X02763Y02294D01*
X02782Y02306D02*
Y02318D01*
X02353Y02298D02*
X02436D01*
X02363Y02118D02*
X02388Y02093D01*
X02436Y02298D02*
X02445Y0229D01*
X02782Y02318D02*
X02803Y02339D01*
X02397Y02093D02*
X02422Y02118D01*
X02445Y02273D02*
Y0229D01*
X02365Y01901D02*
X02762D01*
X03737Y01477D02*
X03784Y01524D01*
X02765Y01902D02*
X02782D01*
X02793Y0189*
Y01876D02*
Y0189D01*
X02793Y01876D02*
X02793Y01876D01*
X02101Y0192D02*
X02125Y01944D01*
X03417Y01877D02*
Y01921D01*
X03448Y01846D02*
X03507D01*
X03417Y01877D02*
X03448Y01846D01*
X03507D02*
X03555Y01799D01*
G54D66*
X02224Y02123D02*
X02271D01*
X02199Y02098D02*
X02224Y02123D01*
X02181Y02098D02*
X02199D01*
X02179Y02096D02*
X02181Y02098D01*
X01704Y02185D02*
X01705Y02184D01*
X01812*
X01844Y02152*
X02153*
X01704Y01929D02*
D01*
X01632D02*
X01704D01*
X01535Y02026D02*
X01632Y01929D01*
X01515Y02043D02*
Y02046D01*
Y02043D02*
X01532Y02026D01*
X01535*
X01704Y01929D02*
X01704D01*
X01783*
X01903Y02049*
X02179Y02047D02*
X02236Y02103D01*
X02271*
X02153Y02152D02*
X02222D01*
X02232Y02142D02*
X02271D01*
X02222Y02152D02*
X02232Y02142D01*
X02038Y02111D02*
X02099D01*
X02143Y02056D02*
Y02066D01*
X02099Y02111D02*
X02143Y02066D01*
Y02056D02*
X02153Y02047D01*
X01772Y02384D02*
X01782Y02394D01*
X02828Y02286D02*
X02842Y023D01*
X0225Y02413D02*
Y02421D01*
Y02413D02*
X02253Y0241D01*
X02313*
X02315Y02408*
X0232*
X0234Y02311D02*
X02353Y02298D01*
X0232Y02408D02*
X0234Y02428D01*
X02363Y02118D02*
X02422D01*
X02315D02*
X02363D01*
X02308Y02131D02*
Y02154D01*
Y02126D02*
X02315Y02118D01*
X02795Y02358D02*
X0288D01*
X01782Y02394D02*
X02307D01*
X02168Y02378D02*
X023D01*
X02308Y0237*
X02842Y023D02*
X02881D01*
X02763Y02294D02*
Y02326D01*
X02308Y02226D02*
Y0237D01*
X0288Y02358D02*
X02881Y02359D01*
X02308Y02126D02*
Y02131D01*
X02307Y02394D02*
X02317Y02383D01*
X023Y02161D02*
X02308Y02154D01*
X02272Y02161D02*
X023D01*
X02271Y02162D02*
X02272Y02161D01*
X0234Y02311D02*
Y02428D01*
X02824Y02286D02*
X02828D01*
X02728Y02003D02*
Y02241D01*
X02317Y02383D02*
X02323Y02377D01*
X02763Y02326D02*
X02795Y02358D01*
X02308Y02131D02*
D01*
X02271Y02064D02*
X02589D01*
X02153Y02363D02*
X02168Y02378D01*
X02824Y02235D02*
Y02238D01*
X02236Y01965D02*
X02271D01*
X02219Y01948D02*
X02236Y01965D01*
X0222Y01979D02*
X02226Y01985D01*
X02271*
X0234Y01777D02*
Y01818D01*
X02935Y0244D02*
Y02467D01*
X02875Y02381D02*
X02935Y0244D01*
Y02467D02*
X03026Y02559D01*
X02759Y02381D02*
X02875D01*
X0299Y02599D02*
X03207D01*
X02815Y0244D02*
X02831D01*
X02812Y02428D02*
Y02437D01*
X02831Y0244D02*
X0299Y02599D01*
X02812Y02437D02*
X02815Y0244D01*
X03207Y02599D02*
X03208Y02598D01*
X02675Y02428D02*
Y02531D01*
X0283Y02687*
X03184*
X02842Y02519D02*
Y02644D01*
X02793Y02429D02*
Y02471D01*
X02842Y02519*
X02919Y02726D02*
X02966Y02773D01*
X02649Y02657D02*
X02718Y02726D01*
X02919*
X03184Y02687D02*
X03248Y0275D01*
X02559Y02586D02*
Y02755D01*
X02512Y0249D02*
Y0254D01*
X02559Y02586*
X02497Y02428D02*
Y02475D01*
X02512Y0249*
X02537Y02428D02*
Y02515D01*
X0261Y02588*
X02881Y0232D02*
X02922D01*
X02938Y02303*
X03437Y02119D02*
Y02154D01*
Y02119D02*
X0345Y02107D01*
X03528*
X02364Y02661D02*
D01*
X02733Y02427D02*
X02734Y02426D01*
Y02389D02*
Y02426D01*
X02728Y02361D02*
Y02383D01*
X02734Y02389*
X02724Y02364D02*
X02728Y02361D01*
X02753Y02387D02*
X02759Y02381D01*
X02753Y02387D02*
Y02428D01*
X03762Y01213D02*
Y01262D01*
X03787Y01287*
X0382*
X03746Y01196D02*
X03762Y01213D01*
X02323Y02223D02*
Y02377D01*
X02323Y02219D02*
Y02223D01*
X02306Y02201D02*
X02323Y02219D01*
Y02223D02*
X02323Y02223D01*
X02303Y02221D02*
X02308Y02226D01*
X0236Y02428D02*
Y0247D01*
X02359Y02471D02*
Y02498D01*
X02829Y02131D02*
Y02141D01*
X02824Y02184D02*
X02826Y02182D01*
X03098*
X02824Y02235D02*
X02838Y02221D01*
X0285Y02162D02*
X02881D01*
X02838Y02221D02*
X02881D01*
X02824Y02126D02*
X02829Y02131D01*
X02881Y02162D02*
X03126D01*
X02829Y02141D02*
X0285Y02162D01*
X0341Y02237D02*
X03528D01*
X03408Y02235D02*
X0341Y02237D01*
X02238Y023D02*
X02271D01*
X02233Y02261D02*
X02271D01*
X02222Y02316D02*
Y02329D01*
Y02316D02*
X02238Y023D01*
X02496Y01869D02*
X02497Y01867D01*
Y01818D02*
Y01867D01*
X02793Y01818D02*
Y01876D01*
X02271Y02221D02*
X02303D01*
X02662Y03087D02*
X02669Y03094D01*
Y03216*
X03282Y02366D02*
X03527D01*
X03098Y02182D02*
X03282Y02366D01*
X03528Y02013D02*
X03578Y01963D01*
X03646*
X03528Y02193D02*
X03558D01*
X03575Y02176*
X03268Y02495D02*
X03272D01*
X0326Y02503D02*
X03268Y02495D01*
X03472Y02184D02*
X03501Y02154D01*
X03418Y02184D02*
X03472D01*
X03404Y02027D02*
Y0217D01*
X03418Y02184*
X01772Y02327D02*
X01851D01*
X01772Y02328D02*
Y02384D01*
X01771Y02327D02*
X01772Y02328D01*
X02217Y02334D02*
X02222Y02329D01*
X0261Y02588D02*
Y02763D01*
X02364Y02562D02*
Y02661D01*
Y02562D02*
X02458Y02468D01*
Y02428D02*
Y02468D01*
X02793Y02428D02*
X02793Y02429D01*
X02354Y02005D02*
X02359Y02D01*
X02329Y02044D02*
X02354Y02019D01*
Y02005D02*
Y02019D01*
X02733Y02427D02*
X02734Y02428D01*
X02966Y02778D02*
Y02797D01*
Y02778D02*
X02966Y02778D01*
X02966Y02797D02*
X02967Y02799D01*
X02966Y02773D02*
Y02778D01*
X02738Y02978D02*
X03013D01*
X03039Y02952*
X02722Y03027D02*
X03065D01*
X03129Y02963*
X02655Y03071D02*
Y03078D01*
X02662Y03085D02*
Y03087D01*
X02655Y03078D02*
X02662Y03085D01*
X02783Y03418D02*
Y03468D01*
X02811Y03496*
X0259Y03216D02*
Y03435D01*
X02589Y03436D02*
X0259Y03435D01*
X02433Y03216D02*
Y03298D01*
X02432Y03299D02*
X02433Y03298D01*
X02188Y03224D02*
Y03298D01*
Y03224D02*
X02196Y03216D01*
X02118Y0313D02*
Y03216D01*
X02699Y01246D02*
Y01459D01*
X0262Y01185D02*
X02638D01*
X02699Y01246*
X02271Y02201D02*
X02306D01*
X03278Y02774D02*
X0329Y02762D01*
X03248Y02774D02*
X03278D01*
X0329Y02718D02*
Y02762D01*
X02965Y02648D02*
X0322D01*
X0329Y02718*
X03053Y02067D02*
Y02107D01*
Y02067D02*
X03115Y02005D01*
X03382*
X03404Y02027*
X03524Y02154D02*
X03528Y0215D01*
X03501Y02154D02*
X03524D01*
X03129Y02823D02*
Y02963D01*
X03381Y02774D02*
X03386Y02769D01*
X03358Y02774D02*
X03381D01*
X03357Y02671D02*
Y02773D01*
X03324Y02461D02*
X03356D01*
X03386Y02491*
Y02769*
X03458Y02645D02*
Y02763D01*
X0346Y02765*
X03509Y02594D02*
X03633D01*
X03458Y02645D02*
X03509Y02594D01*
X03528Y02013D02*
Y02063D01*
X0346Y02765D02*
X0346Y02765D01*
X03527*
X03553Y02791*
X03462Y02919D02*
X03553Y02828D01*
Y02791D02*
Y02828D01*
X03462Y02919D02*
Y02998D01*
X02773Y03072D02*
X03113D01*
X03114Y03073*
X02773Y02563D02*
X02773Y02563D01*
X02773Y02428D02*
Y02563D01*
X03357Y02773D02*
X03358Y02774D01*
X03245Y02559D02*
X03357Y02671D01*
X03026Y02559D02*
X03245D01*
X03248Y0275D02*
Y02774D01*
X03592Y03208D02*
Y0336D01*
X02811Y03496D02*
X03456D01*
X03592Y0336*
X03692Y03208D02*
X03692Y03207D01*
Y03023D02*
Y03207D01*
X03492Y03208D02*
Y03295D01*
X02649Y02562D02*
Y02657D01*
X02556Y0247D02*
X02649Y02562D01*
X02556Y02428D02*
Y0247D01*
X03393Y0321D02*
Y03322D01*
X03392Y03208D02*
X03393Y0321D01*
X0307Y03385D02*
X0333D01*
X03393Y03322*
X03007Y03165D02*
Y03322D01*
X0307Y03385*
X0296Y03118D02*
X03007Y03165D01*
X02751Y03118D02*
X0296D01*
X03039Y02898D02*
Y02952D01*
X0227Y02143D02*
X02271Y02142D01*
X03792Y0303D02*
X03795Y03027D01*
Y03023D02*
Y03027D01*
X03792Y0303D02*
Y03208D01*
X03043Y02503D02*
X0326D01*
X03286Y02322D02*
X03527D01*
X01843Y02511D02*
X01972D01*
X02589Y02064D02*
X0259Y02062D01*
X02511Y03216D02*
Y03429D01*
X02271Y02044D02*
X02329D01*
X02118Y03216D02*
D01*
X02478Y02428D02*
Y026D01*
X02476Y02602D02*
X02478Y026D01*
X02755Y01728D02*
X02755Y01728D01*
Y01767D02*
X02773Y01785D01*
Y01818*
X03527Y02322D02*
X03528Y02323D01*
X03126Y02162D02*
X03286Y02322D01*
X03527Y02366D02*
X03528Y02366D01*
X02976Y02303D02*
X0298Y02299D01*
X02305Y02661D02*
X02307Y02663D01*
Y02834*
X01629D02*
X01871D01*
X01677Y02511D02*
X01778D01*
X01967Y02303D02*
X01968Y02302D01*
X01851Y02327D02*
X01876Y02303D01*
X01967*
X01968Y02359D02*
X02056D01*
X02152Y02338D02*
X02153Y02339D01*
X02056Y02359D02*
X02077Y02338D01*
X02152*
X02153Y02339D02*
Y02363D01*
X02153Y02047D02*
X02179D01*
G54D67*
X03892Y0294D02*
Y03208D01*
X03615Y02881D02*
X03833D01*
X03892Y0294*
G54D68*
X04047Y01575D03*
G54D69*
X04047Y01235D03*
G54D70*
X03836Y01575D03*
Y01235D03*
G54D71*
X02196Y03216D03*
X02275D03*
X02354D03*
X02433D03*
X02511D03*
X0259D03*
X02118D03*
X02039D03*
X0196D03*
G54D72*
X02669Y03216D03*
G54D73*
X02407Y02834D03*
G54D74*
X02307Y02834D03*
X02207D03*
G54D75*
X01876Y02202D03*
X01898Y02096D03*
X01903Y02049D03*
X02179Y02096D03*
X0235Y0214D03*
X01797Y01837D03*
X02728Y02241D03*
X02824Y02286D03*
Y02238D03*
X02728Y02361D03*
X02824Y02126D03*
Y02184D03*
X03408Y02235D03*
X03562Y01196D03*
X02214Y0228D03*
X02496Y01869D03*
X03575Y02027D03*
X0337Y02165D03*
X03646Y01963D03*
X03272Y02495D03*
X03615Y02881D03*
X03437Y02154D03*
X02217Y02334D03*
X02389Y02376D03*
X02038Y02111D03*
X02101Y0192D03*
X02359Y02D03*
X02842Y02644D03*
X02967Y02799D03*
X02738Y02978D03*
X02773Y03072D03*
X02722Y03027D03*
X02655Y03071D03*
X02783Y03418D03*
X02589Y03436D03*
X02511Y03429D03*
X02432Y03299D03*
X02188Y03298D03*
X02118Y0313D03*
X02365Y02231D03*
X02965Y02648D03*
X03053Y02107D03*
X02437Y01591D03*
X02255Y01625D03*
X02034Y02997D03*
X02072Y02692D03*
X03324Y02461D03*
X03633Y02594D03*
X03462Y02998D03*
X03114Y03073D03*
X02773Y02563D03*
X03692Y03023D03*
X03208Y02598D03*
X03492Y03295D03*
X02751Y03118D03*
X0261Y02763D03*
X03795Y03023D03*
X03043Y02503D03*
X02728Y02003D03*
X03448Y01362D03*
X03362Y02283D03*
X03169Y02362D03*
X01972Y02511D03*
X03417Y01921D03*
X03712Y01476D03*
X0259Y02062D03*
X02559Y02755D03*
X02476Y02602D03*
X01629Y02834D03*
X02141Y01566D03*
M02*