%FSTAX23Y23*%
%MOIN*%
%SFA1B1*%

%IPPOS*%
%ADD77C,0.003940*%
%LN5th_year_project-1*%
%LPD*%
G54D77*
X02556Y02123D02*
X02596D01*
X02576Y02103D02*
Y02142D01*
X01685Y02057D02*
X01724D01*
X01704Y02037D02*
Y02076D01*
X01496Y02078D02*
X01535D01*
X01515Y02059D02*
Y02098D01*
X02133Y02185D02*
X02173D01*
X02153Y02165D02*
Y02204D01*
X0296Y02327D02*
X03D01*
X0298Y02307D02*
Y02346D01*
X03522Y03208D02*
X03561D01*
X03542Y03188D02*
Y03228D01*
X03039Y02854D02*
Y02893D01*
X03019Y02874D02*
X03059D01*
X0346Y0277D02*
Y02809D01*
X0344Y0279D02*
X0348D01*
X03358Y02779D02*
Y02818D01*
X03338Y02799D02*
X03377D01*
X03248Y02779D02*
Y02818D01*
X03228Y02799D02*
X03267D01*
X03129Y02779D02*
Y02818D01*
X0311Y02799D02*
X03149D01*
X03535Y01544D02*
X03574D01*
X03555Y01524D02*
Y01564D01*
X01948Y0233D02*
X01988D01*
X01968Y02311D02*
Y0235D01*
X02729Y01439D02*
Y01479D01*
X02709Y01459D02*
X02749D01*
X01811Y02492D02*
Y02531D01*
X01791Y02511D02*
X0183D01*
X01901Y02834D02*
X0194D01*
X01921Y02814D02*
Y02854D01*
X01771Y02283D02*
Y02322D01*
X01751Y02303D02*
X01791D01*
X02133Y01948D02*
X02173D01*
X02153Y01929D02*
Y01968D01*
X02783Y01708D02*
Y01748D01*
X02763Y01728D02*
X02803D01*
X02153Y02295D02*
Y02334D01*
X02133Y02314D02*
X02173D01*
X02314Y02661D02*
X02354D01*
X02334Y02641D02*
Y02681D01*
X01627Y02511D02*
X01667D01*
X01647Y02492D02*
Y02531D01*
X0257Y01185D02*
X0261D01*
X0259Y01165D02*
Y01204D01*
X02122Y01767D02*
X02161D01*
X02141Y01748D02*
Y01787D01*
X02137Y01629D02*
Y01669D01*
X02118Y01649D02*
X02157D01*
X0233Y01708D02*
X0237D01*
X0235Y01688D02*
Y01728D01*
X03287Y01413D02*
X03326D01*
X03307Y01393D02*
Y01433D01*
X03696Y01275D02*
Y01314D01*
X03677Y01295D02*
X03716D01*
M02*